<?xml version="1.0" encoding="utf-8"?>
<!-- Generator: Adobe Illustrator 22.0.0, SVG Export Plug-In . SVG Version: 6.00 Build 0)  -->
<svg version="1.1" id="Layer_1" xmlns="http://www.w3.org/2000/svg" xmlns:xlink="http://www.w3.org/1999/xlink" x="0px" y="0px"
	 viewBox="0 0 25 25" style="enable-background:new 0 0 25 25;" xml:space="preserve">
<style type="text/css">
	.st0{fill:#CA8EEE;}
	.st1{fill:#444444;}
	.st2{fill:#0085B2;}
	.st3{fill:#D93600;}
	.st4{fill:#F76A63;}
	.st5{fill:#514D93;}
	.st6{fill:#F9C700;}
	.st7{fill:#6F90C8;}
	.st8{fill:none;stroke:#1F218B;stroke-width:2;stroke-linecap:round;stroke-miterlimit:10;}
</style>
<path class="st3" d="M21.6,2.4H3.4C1.5,2.4,0,4.2,0,6.3v10c0,2.2,1.5,3.9,3.4,3.9H5l3.6,3.3c0.4,0.3,1,0.2,1.1-0.3
	c0.2-1.2,0.9-2.9,2.8-2.9c4.4,0,9.1,0,9.1,0c1.9,0,3.4-1.8,3.4-3.9v-10C25,4.2,23.5,2.4,21.6,2.4z M7.4,13.1c-1,0-1.9-0.8-1.9-1.9
	s0.8-1.9,1.9-1.9s1.9,0.8,1.9,1.9S8.4,13.1,7.4,13.1z M12.9,13.1c-1,0-1.9-0.8-1.9-1.9s0.8-1.9,1.9-1.9s1.9,0.8,1.9,1.9
	S14,13.1,12.9,13.1z M18.5,13.1c-1,0-1.9-0.8-1.9-1.9s0.8-1.9,1.9-1.9s1.9,0.8,1.9,1.9S19.5,13.1,18.5,13.1z"/>
</svg>
