<?xml version="1.0" encoding="utf-8"?>
<!-- Generator: Adobe Illustrator 22.0.0, SVG Export Plug-In . SVG Version: 6.00 Build 0)  -->
<svg version="1.1" id="Layer_1" xmlns="http://www.w3.org/2000/svg" xmlns:xlink="http://www.w3.org/1999/xlink" x="0px" y="0px"
	 viewBox="0 0 25 25" style="enable-background:new 0 0 25 25;" xml:space="preserve">
<style type="text/css">
	.st0{fill:#CA8EEE;}
	.st1{fill:#444444;}
	.st2{fill:#0085B2;}
	.st3{fill:#D93600;}
	.st4{fill:#F76A63;}
	.st5{fill:#514D93;}
	.st6{fill:#F9C700;}
	.st7{fill:#6F90C8;}
	.st8{fill:none;stroke:#1F218B;stroke-width:2;stroke-linecap:round;stroke-miterlimit:10;}
</style>
<g>
	<g>
		<path class="st1" d="M24.7,19.5c-0.4-1.3-5.9-3-8.5-4c-0.1,0-0.1-0.1-0.2-0.2c-1.1,0.5-2.3,0.8-3.6,0.8c-1.2,0-2.3-0.2-3.3-0.7
			c-0.1,0.1-0.2,0.1-0.3,0.2c-1.6,0.5-7.5,2.8-8.2,3.9C0.2,20,0,20.9,0,21.7c0,1.1,0.8,2,1.9,2h21.1c1.1,0,2-0.9,1.9-2
			C25,20.9,24.9,20.1,24.7,19.5z"/>
	</g>
	<path class="st1" d="M17.1,7.4c-0.5,3.4-2.1,5.8-4.7,5.8c-2.6,0-4.2-2.5-4.6-5.8c-0.4-3.3,2-6.1,4.6-6.1C15,1.3,17.6,4,17.1,7.4z"
		/>
</g>
</svg>
