<?xml version="1.0" encoding="utf-8"?>
<!-- Generator: Adobe Illustrator 22.0.0, SVG Export Plug-In . SVG Version: 6.00 Build 0)  -->
<svg version="1.1" id="Layer_1" xmlns="http://www.w3.org/2000/svg" xmlns:xlink="http://www.w3.org/1999/xlink" x="0px" y="0px"
	 viewBox="0 0 25 25" style="enable-background:new 0 0 25 25;" xml:space="preserve">
<style type="text/css">
	.st0{fill:#CA8EEE;}
	.st1{fill:#444444;}
	.st2{fill:#0085B2;}
	.st3{fill:#D93600;}
	.st4{fill:#F76A63;}
	.st5{fill:#514D93;}
	.st6{fill:#F9C700;}
	.st7{fill:#6F90C8;}
	.st8{fill:none;stroke:#1F218B;stroke-width:2;stroke-linecap:round;stroke-miterlimit:10;}
</style>
<path class="st1" d="M23.3,1.6H1.7C0.7,1.6,0,2.4,0,3.3v18.4c0,0.9,0.7,1.7,1.7,1.7h21.7c0.9,0,1.7-0.7,1.7-1.7V3.3
	C25,2.4,24.3,1.6,23.3,1.6z M17.9,6.3c1.2,0,2.2,1,2.2,2.2c0,1.2-1,2.2-2.2,2.2c-1.2,0-2.2-1-2.2-2.2C15.7,7.3,16.7,6.3,17.9,6.3z
	 M23.2,20.4c0,0.5-0.4,0.8-0.8,0.8H2.6c-0.5,0-0.8-0.4-0.8-0.8v-1.5c0-0.2,0.1-0.4,0.3-0.6l5.1-4.8c0.3-0.2,0.7-0.3,1-0.1l5.2,2.9
	c0.2,0.1,0.6,0.1,0.8,0l3.1-1.7c0.3-0.2,0.6-0.1,0.9,0.1l4.7,3.4c0.2,0.2,0.3,0.4,0.3,0.7V20.4z"/>
</svg>
