<?xml version="1.0" encoding="utf-8"?>
<!-- Generator: Adobe Illustrator 22.0.0, SVG Export Plug-In . SVG Version: 6.00 Build 0)  -->
<svg version="1.1" id="Layer_1" xmlns="http://www.w3.org/2000/svg" xmlns:xlink="http://www.w3.org/1999/xlink" x="0px" y="0px"
	 viewBox="0 0 25 25" style="enable-background:new 0 0 25 25;" xml:space="preserve">
<style type="text/css">
	.st0{fill:#CA8EEE;}
	.st1{fill:#444444;}
	.st2{fill:#0085B2;}
	.st3{fill:#D93600;}
	.st4{fill:#F76A63;}
	.st5{fill:#514D93;}
	.st6{fill:#F9C700;}
	.st7{fill:#6F90C8;}
	.st8{fill:none;stroke:#1F218B;stroke-width:2;stroke-linecap:round;stroke-miterlimit:10;}
</style>
<path class="st0" d="M22.8,1.6H2.2C1,1.6,0,2.6,0,3.8v13.8c0,1.2,1,2.2,2.2,2.2h20.6c1.2,0,2.2-1,2.2-2.2V3.8
	C25,2.6,24,1.6,22.8,1.6z M4,16.4v-5c0-0.4,0.3-0.7,0.7-0.7h2.2c0.4,0,0.7,0.3,0.7,0.7v5c0,0.4-0.3,0.7-0.7,0.7H4.6
	C4.3,17,4,16.7,4,16.4z M10.8,16.4V8.5c0-0.4,0.3-0.7,0.7-0.7h2.2c0.4,0,0.7,0.3,0.7,0.7v7.9c0,0.4-0.3,0.7-0.7,0.7h-2.2
	C11.1,17,10.8,16.7,10.8,16.4z M20.4,17h-2.2c-0.4,0-0.7-0.3-0.7-0.7V5.9c0-0.4,0.3-0.7,0.7-0.7h2.2c0.4,0,0.7,0.3,0.7,0.7v10.5
	C21,16.7,20.7,17,20.4,17z"/>
<path class="st0" d="M17.1,24.2c-0.3,0-0.5-0.1-0.7-0.3l-3.7-3.7c-0.2-0.2-0.3-0.2-0.5,0l-3.7,3.7c-0.4,0.4-1,0.4-1.4,0
	s-0.4-1,0-1.4l3.7-3.7c0.9-0.9,2.4-0.9,3.3,0l3.7,3.7c0.4,0.4,0.4,1,0,1.4C17.6,24.1,17.4,24.2,17.1,24.2z"/>
</svg>
