<?xml version="1.0" encoding="utf-8"?>
<!-- Generator: Adobe Illustrator 22.0.0, SVG Export Plug-In . SVG Version: 6.00 Build 0)  -->
<svg version="1.1" id="Layer_1" xmlns="http://www.w3.org/2000/svg" xmlns:xlink="http://www.w3.org/1999/xlink" x="0px" y="0px"
	 viewBox="0 0 25 25" style="enable-background:new 0 0 25 25;" xml:space="preserve">
<style type="text/css">
	.st0{fill:#CA8EEE;}
	.st1{fill:#444444;}
	.st2{fill:#0085B2;}
	.st3{fill:#D93600;}
	.st4{fill:#F76A63;}
	.st5{fill:#514D93;}
	.st6{fill:#F9C700;}
	.st7{fill:#6F90C8;}
	.st8{fill:none;stroke:#1F218B;stroke-width:2;stroke-linecap:round;stroke-miterlimit:10;}
</style>
<g>
	<path class="st4" d="M11,3.1H14c0.9,0,1.7,0.7,1.8,1.7h2.6c-0.2-2.4-2.1-4.2-4.4-4.2H11c-2.3,0-4.2,1.9-4.4,4.2h2.6
		C9.3,3.8,10.1,3.1,11,3.1L11,3.1z M11,3.1"/>
	<path class="st4" d="M18.4,6H2.5C1.7,6,0.8,6.7,0.3,7.2C0,7.6,0,7.8,0,8.1c0.2,1.8,1.4,3.6,3.5,4.9c1.8,1.2,4.1,2,6.7,2.3
		c0.8,0.1,1.6,0.1,2.4,0.1c1.5,0,2.9-0.2,4.3-0.5c1.8-0.4,3.4-1.1,4.7-2c2.1-1.4,3.3-3.1,3.5-4.9c0-0.3-0.1-0.7-0.3-0.9
		C24.2,6.7,23.3,6,22.5,6H18.4z M18.4,6"/>
	<path class="st4" d="M22.1,14.7c-1.2,0.8-2.5,1.5-4,1.9c-1.8,0.6-3.7,0.8-5.6,0.8c-0.1,0-0.3,0-0.4,0c-3.5-0.1-6.7-1-9.2-2.8
		c-1-0.7-1.9-1.6-2.6-2.5C0.1,12,0,12.1,0,12.4v8.1c0,1.8,1.3,3.3,3,3.3H22c0.5,0,1-0.2,1.5-0.4c0.9-0.6,1.5-1.6,1.5-2.8v-8.1
		c0-0.3-0.1-0.3-0.3-0.1C24,13.2,23.2,14,22.1,14.7L22.1,14.7z M22.1,14.7"/>
</g>
</svg>
