<svg xmlns="http://www.w3.org/2000/svg" width="32" height="20.76" viewBox="0 0 32 20.76">
  <path id="Path_942" data-name="Path 942" d="M30.968,3.05H6.352A3.7,3.7,0,0,0,2.66,6.742V20.118A3.685,3.685,0,0,0,6.352,23.81H30.968a3.685,3.685,0,0,0,3.692-3.692V6.742A3.7,3.7,0,0,0,30.968,3.05ZM11.475,8.407a2.332,2.332,0,0,1,2.118,2.733c-.217,1.5-.941,2.588-2.118,2.588-1.158,0-1.864-1.122-2.045-2.588A2.329,2.329,0,0,1,11.475,8.407Zm4.778,10.045H6.8a.862.862,0,0,1-.869-.887,2.4,2.4,0,0,1,.217-1.014C6.479,16.027,9.122,15,9.846,14.8a.325.325,0,0,0,.127-.09,3.5,3.5,0,0,0,1.5.326,3.689,3.689,0,0,0,1.611-.362.12.12,0,0,0,.09.072c1.176.471,3.6,1.231,3.8,1.81a4.117,4.117,0,0,1,.145,1A.877.877,0,0,1,16.253,18.453Zm10.525-.923H21.33A1.33,1.33,0,0,1,20,16.2v-1.33h6.778a1.33,1.33,0,0,1,1.33,1.33h0A1.33,1.33,0,0,1,26.778,17.53Zm3.294-4.941H20v-1.33a1.33,1.33,0,0,1,1.33-1.33h8.742a1.33,1.33,0,0,1,1.33,1.33h0A1.33,1.33,0,0,1,30.072,12.589Z" transform="translate(-2.66 -3.05)" fill="#00aff0"/>
</svg>
