<svg xmlns="http://www.w3.org/2000/svg" width="53.224" height="44" viewBox="0 0 53.224 44">
  <g id="Personal" transform="translate(-133 -822)">
    <g id="Group_169" data-name="Group 169" transform="translate(129.954 821.757)">
      <path id="Path_893" data-name="Path 893" d="M26.358,22.5H18.585l-.267,5.437,4.154,1.376,4.154-1.376Z" transform="translate(-0.224 -0.303)" fill="#e49769"/>
      <g id="Group_163" data-name="Group 163" transform="translate(3.046 0.243)">
        <path id="Path_894" data-name="Path 894" d="M29.771,28.034c-1.388-.648-3.261-1.487-3.421-1.545-.011,0-.01,0-.017,0-.128.148-2.06,2.333-4.079,2.182-2.091.156-4.086-2.19-4.086-2.19-.016,0-1.977.89-3.387,1.548C11.258,29.667,5.031,32.441,4.313,33.3,1.9,36.2,3.066,39.589,6.664,40.636l12.79,3.721a10.035,10.035,0,0,0,5.606,0l12.818-3.722c3.6-1.046,4.773-4.438,2.357-7.336C39.518,32.44,33.293,29.667,29.771,28.034Z" transform="translate(-3.046 -0.757)" fill="#4180c2"/>
        <path id="Path_895" data-name="Path 895" d="M13.265,15.475c-.6-.949-.478-3.726.958-2.663h.163c-.069-.561-.139-1.114-.208-1.636-.352-2.707-1.146-8.759,8.3-8.759s8.651,6.052,8.3,8.759c-.068.522-.138,1.075-.208,1.636h.164c1.437-1.063,1.558,1.714.959,2.663a5.779,5.779,0,0,0-.807,1.736c-.221.638-.59.724-.9.653-.04.378-.072.708-.1.97-.132,1.46-3.64,4.385-4.435,5.3-.746.856-5.214.856-5.959,0-.8-.915-4.3-3.84-4.438-5.3-.022-.262-.055-.592-.1-.97-.306.071-.674-.015-.895-.653Z" transform="translate(-3.27 -0.243)" fill="#f7c593"/>
        <path id="Path_896" data-name="Path 896" d="M31.292,5.848c-.108-1.706-4.7-5.8-8.814-5.6-3.882-.2-8.185,3.44-8.749,5.284a1.409,1.409,0,0,0-.078.36,16.977,16.977,0,0,0,.133,3.479l0,.019c.13,1.158.365,2.313.588,3.466l.011-.06,0,.012.158-.9a9.671,9.671,0,0,1,.305-1.537c.035-.125.074-.254.117-.386.021-.065.045-.127.067-.192,0-.006.012-.024.025-.048A22.663,22.663,0,0,0,22.5,11.188c3.547,0,6.448-1.564,7.293-1.465a.406.406,0,0,1,.1.077c.023.065.047.127.068.192a9.978,9.978,0,0,1,.435,1.971l.158.9.011-.058,0,.01c.223-1.153.457-2.308.588-3.466l0-.019A16.97,16.97,0,0,0,31.292,5.848Z" transform="translate(-3.27 -0.243)" fill="#4d4e4e"/>
      </g>
    </g>
    <g id="Group_170" data-name="Group 170" transform="translate(153.758 826.854)">
      <path id="Path_897" data-name="Path 897" d="M16.664,24.053v-1.3l-1.2-.628L9.389,23.845l-.024.123a1.7,1.7,0,0,0,1.572,2.01,3.839,3.839,0,0,0,2.029-.367,7.217,7.217,0,0,1,2.876-.723A.855.855,0,0,0,16.664,24.053Z" transform="translate(-1.561 -5.296)" fill="#4d4e4e"/>
      <path id="Path_898" data-name="Path 898" d="M26.015,24.019v-1.3l1.268-.628,6.2-.114.174,1.328a2.242,2.242,0,0,1-2.4,2.632,3.607,3.607,0,0,1-1.333-.356,8,8,0,0,0-3.043-.723A.879.879,0,0,1,26.015,24.019Z" transform="translate(-5.706 -5.261)" fill="#4d4e4e"/>
      <path id="Path_899" data-name="Path 899" d="M24.382,22.52H18.41L18.205,26.7,21.4,27.753,24.587,26.7Z" transform="translate(-3.718 -5.404)" fill="#e49769"/>
      <path id="Path_900" data-name="Path 900" d="M30.138,30.86s-3.977-1.91-6.681-3.165c-1.066-.5-2.5-1.142-2.627-1.186-.008,0-.008,0-.014,0-.1.114-1.581,1.792-3.132,1.676-1.605.12-3.138-1.682-3.138-1.682s-1.518.683-2.6,1.188c-.557.259-1.168.545-2.065.968-2.109.993,11.959.592,10.136,11.308,0,0-.012.41.458.286s9.208-2.88,9.208-2.88c2.766-.8,3.666-3.409,1.811-5.636A2.926,2.926,0,0,0,30.138,30.86Z" transform="translate(0 -6.495)" fill="#f06145"/>
      <path id="Path_901" data-name="Path 901" d="M12.367,19.332c.878-.413,1.983,1.431,2.632,1.135.317-.144.684-2.434.934-2.189.094.091.207.2.33.3-.014-.536-.032-.9-.032-.9l3.145,1.1,3.146-1.1s-.019.36-.032.9c.121-.106.233-.208.326-.3.256-.25.631,2.037.956,2.183.656.293,1.764-1.555,2.658-1.135.748.35,1.575.74,2.408,1.135-.012-.353-.036-.714-.082-1.089C27.969,13,25.624,3.454,21.687,3.26c-6.029-.3-9.176,3.382-9.829,7.209-.458,2.682-1.194,7.007-1.6,9.859C10.986,19.981,11.708,19.64,12.367,19.332Z" transform="translate(-1.696 -0.695)" fill="#4d4e4e"/>
      <path id="Path_902" data-name="Path 902" d="M21.7,21.018a1.833,1.833,0,0,1-2.113,0,9.1,9.1,0,0,1-4.825-6.907V11.046A5.754,5.754,0,0,1,20.619,5.4h0a5.9,5.9,0,0,1,5.153,2.952,5.451,5.451,0,0,1,.707,2.689v3.085C26.28,19.062,21.7,21.018,21.7,21.018Z" transform="translate(-2.919 -1.196)" fill="#f7c593"/>
      <g id="Group_166" data-name="Group 166" transform="translate(7.662 0.244)">
        <g id="Group_165" data-name="Group 165">
          <path id="Path_903" data-name="Path 903" d="M29.639,17.049c-.28-1.292-.373-2.614-.6-3.913a27.7,27.7,0,0,0-3.108-8.892A8.636,8.636,0,0,0,24.2,1.777,2.449,2.449,0,0,0,23.082,1.2a1.275,1.275,0,0,0-1.169.347,1.735,1.735,0,0,0-1.7-1.294,8.222,8.222,0,0,0-4.443,1.529,9.759,9.759,0,0,0-3.943,4.114,11.334,11.334,0,0,0-.578,1.994c-.846,3.843-1.345,7.231-1.92,11.123-.2,1.341,4.648,1.881,4.482-1.209-.134-2.5-.638-3.98-.4-6.475,1.187-1.308,3.409-1.6,4.537-2.067A7.5,7.5,0,0,0,20.83,7.08a4.437,4.437,0,0,0,.845-1.6,12.145,12.145,0,0,1,2.04,1.659,8.273,8.273,0,0,1,1.732,3.105c.588,1.817.217,3.715-.011,5.6-.13,1.072-.214,2.129-.443,3.184C24.856,19.667,30,18.711,29.639,17.049Z" transform="translate(-9.327 -0.244)" fill="#4d4e4e"/>
        </g>
      </g>
    </g>
  </g>
</svg>
