<svg xmlns="http://www.w3.org/2000/svg" width="44" height="43.979" viewBox="0 0 44 43.979">
  <g id="Legal_Entity" data-name="Legal Entity" transform="translate(-358.732 -79.426)">
    <path id="Path_906" data-name="Path 906" d="M391.578,79.426l-8.489,4.389V83.9l8.284,4.423v2.636l-8.284-4.423v3.125l8.284,4.423v2.636L383.089,92.3v3.01l8.284,4.423v2.636l-8.284-4.423v3.079l8.284,4.423v2.636l-8.284-4.423v3.056l8.284,4.423v2.636l-8.284-4.423v3.132l8.1,4.325v2.636l-8.1-4.325v3.9l8.489,4.389,8.489-4.389v-35.2Z" transform="translate(-11.071)" fill="#00244f"/>
    <path id="Path_907" data-name="Path 907" d="M423.5,101.788l-5.909,3.083v.062l5.767,3.107v1.852l-5.767-3.107v2.195l5.767,3.107v1.852l-5.767-3.107v2.115l5.767,3.107V117.9l-5.767-3.107v2.163l5.767,3.107v1.852l-5.767-3.107v2.147l5.767,3.107v1.852l-5.767-3.107v2.2l5.638,3.038V129.9l-5.638-3.038V129.6l5.909,3.083,5.909-3.083V104.871Z" transform="translate(-26.676 -10.384)" fill="#00b4ed"/>
    <path id="Path_908" data-name="Path 908" d="M364.641,101.788l-5.909,3.083v.062l5.767,3.107v1.852l-5.767-3.107v2.195l5.767,3.107v1.852l-5.767-3.107v2.115l5.767,3.107V117.9l-5.767-3.107v2.163l5.767,3.107v1.852l-5.767-3.107v2.147l5.767,3.107v1.852l-5.767-3.107v2.2l5.638,3.038V129.9l-5.638-3.038V129.6l5.909,3.083,5.909-3.083V104.871Z" transform="translate(0 -10.384)" fill="#00b4ed"/>
  </g>
</svg>
