<?xml version="1.0" encoding="utf-8"?>
<!-- Generator: Adobe Illustrator 19.2.0, SVG Export Plug-In . SVG Version: 6.00 Build 0)  -->
<svg version="1.1" id="Layer_1" xmlns="http://www.w3.org/2000/svg" xmlns:xlink="http://www.w3.org/1999/xlink" x="0px" y="0px"
	 viewBox="0 0 80 80" style="enable-background:new 0 0 80 80;" xml:space="preserve">
<style type="text/css">
	.st0{fill:#86D4EE;}
	.st1{fill:#FFFFFF;}
	.st2{fill:#2E2F83;}
	.st3{fill:#D8A428;}
</style>
<circle class="st2" cx="40" cy="40" r="40"/>
<path class="st1" d="M60.8,52.4c-0.8-1-1.5-1.1-2-1.3c0,0-6-2.8-10.1-4.7c-1.6-0.7-3.8-1.7-4-1.8c0,0,0,0,0,0c0,0,0,0-0.1,0.1
	l-0.2-3.8c1.5-1.5,3.9-3.7,4-5c0-0.3,0.1-0.7,0.1-1.1c0.3,0.1,0.8,0,1-0.7c0.3-1,0.4-1.1,0.9-2c0.7-1.1,0.5-4.3-1.1-3.1h-0.2
	c0,0,0,0,0,0l0,0c0.3-1.3,0.5-2.6,0.7-4c0,0,0,0,0,0c0.2-1.4,0.2-2.7,0.2-4c-0.1-2-5.4-6.7-10.1-6.4c-4.4-0.2-9.4,3.9-10,6.1
	c0,0.1-0.1,0.3-0.1,0.4c-0.1,1.2,0,2.6,0.2,4c0,0,0,0,0,0c0.1,1.3,0.4,2.6,0.7,3.9h-0.2c-1.6-1.2-1.8,2-1.1,3.1l0.9,2
	c0.3,0.7,0.7,0.8,1,0.7c0,0.4,0.1,0.8,0.1,1.1c0.1,1.3,2.5,3.5,4,5l-0.2,3.8c0,0,0-0.1,0-0.1c0,0-2.3,1-3.9,1.8
	c-4.1,1.9-10.1,4.7-10.1,4.7c-0.5,0.3-1.2,0.3-2,1.3c-2.8,3.3-1.4,7.2,2.7,8.4c4.6,1.3,11,3.2,14.8,4.3c2.1,0.6,4.4,0.6,6.5,0
	l14.9-4.3C62.3,59.6,63.6,55.7,60.8,52.4z M30.7,28.9L30.7,28.9C30.7,28.9,30.7,28.9,30.7,28.9L30.7,28.9z"/>
<g>
	<circle class="st3" cx="66.6" cy="13.4" r="13.4"/>
	<g>
		<path class="st1" d="M69.2,10.2H73c1.2,0,2.1,1.1,1.9,2.3L73.6,19c-0.2,0.9-1,1.6-1.9,1.6h-8.4c-0.3,0-0.6-0.3-0.6-0.6v-9.7
			c0,0,0.2,0,0.8,0C65.1,10,67,9.3,67,6.5c0,0,1.8-0.6,2.2,0.7S69.2,10.2,69.2,10.2"/>
		<rect x="58.2" y="10.2" class="st1" width="3.5" height="10.3"/>
	</g>
</g>
</svg>
