<svg xmlns="http://www.w3.org/2000/svg" width="32" height="32" viewBox="0 0 32 32">
  <g id="Group_171" data-name="Group 171" transform="translate(-2.657 -0.16)">
    <path id="Path_909" data-name="Path 909" d="M12.689,3.137h3.423a2.212,2.212,0,0,1,2.125,1.941h2.995A5.211,5.211,0,0,0,16.112.16H12.689A5.211,5.211,0,0,0,7.567,5.079h2.995a2.2,2.2,0,0,1,2.127-1.941Zm0,0" transform="translate(4.267 0)" fill="#ed1c24"/>
    <path id="Path_910" data-name="Path 910" d="M25.487,3.853H6.1a4.562,4.562,0,0,0-2.588,1.4,1.256,1.256,0,0,0-.4,1.025c.23,2.138,1.717,4.148,4.238,5.733a19.524,19.524,0,0,0,8.1,2.674,25.156,25.156,0,0,0,2.869.167,24.083,24.083,0,0,0,5.2-.553A18.33,18.33,0,0,0,29.3,12.015c2.521-1.584,4-3.6,4.238-5.733a1.385,1.385,0,0,0-.4-1.025,4.561,4.561,0,0,0-2.589-1.4Zm0,0" transform="translate(0.333 3.146)" fill="#ed1c24"/>
    <path id="Path_911" data-name="Path 911" d="M30.982,11a19.789,19.789,0,0,1-5.1,2.238,26.05,26.05,0,0,1-7.214.989c-.181,0-.367,0-.548-.007A23.14,23.14,0,0,1,6.344,11,13.6,13.6,0,0,1,3.022,8.12c-.212-.26-.365-.213-.365.115V21.3a3.807,3.807,0,0,0,3.8,3.81h24.4a3.728,3.728,0,0,0,1.887-.507,3.8,3.8,0,0,0,1.912-3.3V8.24c0-.328-.154-.375-.365-.113A13.421,13.421,0,0,1,30.982,11Zm0,0" transform="translate(0 7.052)" fill="#ed1c24"/>
  </g>
</svg>
