<svg xmlns="http://www.w3.org/2000/svg" width="38.457" height="44" viewBox="0 0 38.457 44">
  <g id="Men" transform="translate(-3.046 -0.243)">
    <path id="Path_893" data-name="Path 893" d="M26.358,22.5H18.585l-.267,5.437,4.154,1.376,4.154-1.376Z" transform="translate(-0.224 -0.303)" fill="#e49769"/>
    <g id="Group_163" data-name="Group 163" transform="translate(3.046 0.243)">
      <path id="Path_894" data-name="Path 894" d="M29.771,28.034c-1.388-.648-3.261-1.487-3.421-1.545-.011,0-.01,0-.017,0-.128.148-2.06,2.333-4.079,2.182-2.091.156-4.086-2.19-4.086-2.19-.016,0-1.977.89-3.387,1.548C11.258,29.667,5.031,32.441,4.313,33.3,1.9,36.2,3.066,39.589,6.664,40.636l12.79,3.721a10.035,10.035,0,0,0,5.606,0l12.818-3.722c3.6-1.046,4.773-4.438,2.357-7.336C39.518,32.44,33.293,29.667,29.771,28.034Z" transform="translate(-3.046 -0.757)" fill="#4180c2"/>
      <path id="Path_895" data-name="Path 895" d="M13.265,15.475c-.6-.949-.478-3.726.958-2.663h.163c-.069-.561-.139-1.114-.208-1.636-.352-2.707-1.146-8.759,8.3-8.759s8.651,6.052,8.3,8.759c-.068.522-.138,1.075-.208,1.636h.164c1.437-1.063,1.558,1.714.959,2.663a5.779,5.779,0,0,0-.807,1.736c-.221.638-.59.724-.9.653-.04.378-.072.708-.1.97-.132,1.46-3.64,4.385-4.435,5.3-.746.856-5.214.856-5.959,0-.8-.915-4.3-3.84-4.438-5.3-.022-.262-.055-.592-.1-.97-.306.071-.674-.015-.895-.653Z" transform="translate(-3.27 -0.243)" fill="#f7c593"/>
      <path id="Path_896" data-name="Path 896" d="M31.292,5.848c-.108-1.706-4.7-5.8-8.814-5.6-3.882-.2-8.185,3.44-8.749,5.284a1.409,1.409,0,0,0-.078.36,16.977,16.977,0,0,0,.133,3.479l0,.019c.13,1.158.365,2.313.588,3.466l.011-.06,0,.012.158-.9a9.671,9.671,0,0,1,.305-1.537c.035-.125.074-.254.117-.386.021-.065.045-.127.067-.192,0-.006.012-.024.025-.048A22.663,22.663,0,0,0,22.5,11.188c3.547,0,6.448-1.564,7.293-1.465a.406.406,0,0,1,.1.077c.023.065.047.127.068.192a9.978,9.978,0,0,1,.435,1.971l.158.9.011-.058,0,.01c.223-1.153.457-2.308.588-3.466l0-.019A16.97,16.97,0,0,0,31.292,5.848Z" transform="translate(-3.27 -0.243)" fill="#4d4e4e"/>
    </g>
  </g>
</svg>
