<svg xmlns="http://www.w3.org/2000/svg" width="251.671" height="168.247" viewBox="0 0 251.671 168.247">
  <g id="Group_181" data-name="Group 181" transform="translate(-981.996 -255)">
    <path id="Path_915" data-name="Path 915" d="M998.586,487.788c43.578,2.53,44.273-4.371,80.535,12.5s122.516,14.184,142.066-5.75c9.939-10.134,3.588-19.548-7.642-24.713-18.182-8.362-40.273-6.61-59.894-6.98-18.424-.347-37.119-.993-55.5.568a61.5,61.5,0,0,0-6.149.742c-27,5.065-54.754-1.937-81.7,3.6-7.862,1.615-21.189,4.689-26.816,11.3-5.666,6.656,6.374,7.934,10.867,8.41C995.757,487.605,997.172,487.705,998.586,487.788Z" transform="translate(0 -88.144)" fill="#b0f0ff"/>
    <path id="Path_916" data-name="Path 916" d="M1143.2,332.314h-64.225a7.188,7.188,0,0,1,0-14.376h62.139V299.4a30.026,30.026,0,1,0-60.052,0,7.188,7.188,0,0,1-14.376,0,44.4,44.4,0,1,1,88.8,0v20.623A12.3,12.3,0,0,1,1143.2,332.314Z" transform="translate(-35.991)" fill="#7fdbf4"/>
    <path id="Rectangle_181" data-name="Rectangle 181" d="M13.6,0H93.469a13.6,13.6,0,0,1,13.6,13.6v34A34.4,34.4,0,0,1,72.664,82H34.4A34.4,34.4,0,0,1,0,47.6v-34A13.6,13.6,0,0,1,13.6,0Z" transform="translate(1021.562 315.952)" fill="#7fdbf4"/>
    <rect id="Rectangle_182" data-name="Rectangle 182" width="23.042" height="23.042" rx="11.521" transform="translate(1063.574 339.81)" fill="#fff"/>
    <path id="Rectangle_183" data-name="Rectangle 183" d="M0,0H8.394a0,0,0,0,1,0,0V15.03a4.2,4.2,0,0,1-4.2,4.2h0A4.2,4.2,0,0,1,0,15.03V0A0,0,0,0,1,0,0Z" transform="translate(1070.898 356.045)" fill="#fff"/>
    <rect id="Rectangle_184" data-name="Rectangle 184" width="104.271" height="23.384" rx="11.692" transform="translate(1129.396 277.426)" fill="#f76a63"/>
    <g id="Group_173" data-name="Group 173" transform="translate(1143.196 284.134)">
      <circle id="Ellipse_65" data-name="Ellipse 65" cx="4.984" cy="4.984" r="4.984" fill="#fff"/>
      <circle id="Ellipse_66" data-name="Ellipse 66" cx="4.984" cy="4.984" r="4.984" transform="translate(22.234)" fill="#fff"/>
      <circle id="Ellipse_67" data-name="Ellipse 67" cx="4.984" cy="4.984" r="4.984" transform="translate(44.468)" fill="#fff"/>
      <circle id="Ellipse_68" data-name="Ellipse 68" cx="4.984" cy="4.984" r="4.984" transform="translate(66.703)" fill="#fff"/>
    </g>
    <g id="Group_174" data-name="Group 174" transform="translate(1146.755 306.788)">
      <rect id="Rectangle_185" data-name="Rectangle 185" width="69.552" height="41.4" transform="translate(69.552 41.4) rotate(180)" fill="#7fdbf4"/>
      <rect id="Rectangle_186" data-name="Rectangle 186" width="31.028" height="30.738" transform="translate(65.832 35.969) rotate(180)" fill="#fff"/>
      <rect id="Rectangle_187" data-name="Rectangle 187" width="27.097" height="4.171" transform="translate(31.034 17.609) rotate(180)" fill="#fff"/>
      <rect id="Rectangle_188" data-name="Rectangle 188" width="27.097" height="4.171" transform="translate(31.034 27.805) rotate(180)" fill="#fff"/>
    </g>
    <g id="Group_176" data-name="Group 176" transform="translate(1183.653 345.944)">
      <path id="Path_917" data-name="Path 917" d="M1345.527,427.45l-3.795,2.287,2.435,1.764,4.091-3.238-1.47-9.846-.9,1.326Z" transform="translate(-1336.533 -415.393)" fill="#fcd7ae"/>
      <g id="Group_175" data-name="Group 175" transform="translate(0 14.344)">
        <path id="Path_918" data-name="Path 918" d="M1337.89,438.1h0l-4.267,2.565a1.779,1.779,0,1,0,1.933,2.972l4.768-3.773Z" transform="translate(-1332.69 -438.102)" fill="#f76a63"/>
      </g>
      <path id="Path_919" data-name="Path 919" d="M1347.849,418.034a9.4,9.4,0,0,0-.551-2.176c-.042-.1-.83-.347-.871-.443-.252-.587-.009-.807.071-.89.141-.147.682-.752.682-.752l.508-.415s.661-.362.952-.117c.51.428.8,2.277.8,2.277l-.51.929Z" transform="translate(-1338.48 -413.157)" fill="#fcd7ae"/>
    </g>
    <g id="Group_178" data-name="Group 178" transform="translate(1165.556 345.944)">
      <path id="Path_920" data-name="Path 920" d="M1303.95,427.45l3.795,2.287-2.435,1.764-4.091-3.238,1.47-9.846.9,1.326Z" transform="translate(-1301.218 -415.393)" fill="#fcd7ae"/>
      <g id="Group_177" data-name="Group 177" transform="translate(4.091 14.344)">
        <path id="Path_921" data-name="Path 921" d="M1310.768,438.1h0l4.267,2.565a1.779,1.779,0,1,1-1.933,2.972l-4.768-3.773Z" transform="translate(-1308.333 -438.102)" fill="#f76a63"/>
      </g>
      <path id="Path_922" data-name="Path 922" d="M1304.145,418.034a9.394,9.394,0,0,1,.551-2.176c.042-.1.83-.347.871-.443.252-.587.009-.807-.071-.89-.141-.147-.682-.752-.682-.752l-.508-.415s-.661-.362-.952-.117c-.51.428-.8,2.277-.8,2.277l.509.929Z" transform="translate(-1301.787 -413.157)" fill="#fcd7ae"/>
    </g>
    <path id="Path_923" data-name="Path 923" d="M1335.667,520.867l-.09,1.935-1.106-.046-.125-2.489,1.1.2Z" transform="translate(-149.741 -112.732)" fill="#fcd7ae"/>
    <path id="Path_924" data-name="Path 924" d="M1334.223,524.161l1.252-.409,4.712.868a.506.506,0,0,1,.382.465c.009.375-6.564-.063-6.564-.063Z" transform="translate(-149.596 -114.213)" fill="#534f64"/>
    <path id="Path_925" data-name="Path 925" d="M1331.838,465.537l.65,16.076L1331.7,498.1l-1.791.415-1.343-15.067-4.126-18.254Z" transform="translate(-145.533 -89.327)" fill="#5f90cb"/>
    <path id="Path_926" data-name="Path 926" d="M1317.983,520.867l.09,1.935,1.106-.046.125-2.489-1.1.2Z" transform="translate(-142.787 -112.732)" fill="#fcd7ae"/>
    <path id="Path_927" data-name="Path 927" d="M1315.55,524.161l-1.252-.409-4.712.868a.507.507,0,0,0-.382.465c-.009.375,6.565-.063,6.565-.063Z" transform="translate(-139.056 -114.213)" fill="#534f64"/>
    <path id="Path_928" data-name="Path 928" d="M1316.843,465.537l-.65,16.076.783,16.485,1.791.415,1.343-15.067,4.126-18.254Z" transform="translate(-142.026 -89.327)" fill="#5f90cb"/>
    <path id="Path_929" data-name="Path 929" d="M1329.087,443.247a2.819,2.819,0,0,0-2.495-2.992c-.538-.252-1.172-.549-1.7-.791l-1.337-.615,0,0,0,0-.374.278-.72.525-.72-.525-.374-.278,0,0,0,0-1.338.615c-.521.239-1.148.532-1.682.783a2.821,2.821,0,0,0-2.51,3c-.023.088,1.09,9.153,1.117,9.231l-1.118,3.541c.018.27,1.092.466,1.359.422l3.809-.627a8.975,8.975,0,0,1,2.914,0l3.81.627c.267.044,1.341-.152,1.359-.422l-.729-4.33C1328.37,451.611,1329.11,443.336,1329.087,443.247Z" transform="translate(-141.869 -78.132)" fill="#f76a63"/>
    <path id="Path_930" data-name="Path 930" d="M1327.564,436.17l-1.2-.165-1.2.165a4.577,4.577,0,0,1-.128,1.588,1.607,1.607,0,0,0,2.659,0A4.581,4.581,0,0,1,1327.564,436.17Z" transform="translate(-145.783 -76.923)" fill="#f0b17b"/>
    <g id="Group_179" data-name="Group 179" transform="translate(1176.068 348.189)">
      <path id="Path_931" data-name="Path 931" d="M1320.04,425.829c.1.3.278.342.423.308.019.179.034.334.045.458.063.689,1.719,2.07,2.095,2.5a3.415,3.415,0,0,0,2.814,0c.375-.432,2.032-1.813,2.094-2.5.012-.124.027-.279.046-.458.144.033.318-.007.422-.308a2.731,2.731,0,0,1,.381-.819c.283-.448.226-1.759-.453-1.258h-.077c.033-.265.066-.526.1-.772.166-1.278.541-4.136-3.919-4.136s-4.084,2.857-3.918,4.136c.032.247.066.508.1.772h-.077c-.678-.5-.736.81-.453,1.258" transform="translate(-1319.499 -417.819)" fill="#f1c094"/>
      <path id="Path_932" data-name="Path 932" d="M1320.106,419.706c.051-.805,2.219-2.74,4.161-2.642,1.942-.1,4.11,1.837,4.161,2.642a7.975,7.975,0,0,1-.063,1.642v.009c-.062.546-.172,1.092-.277,1.637l-.075-.423a4.745,4.745,0,0,0-.205-.93c-.01-.031-.021-.06-.032-.091a13.326,13.326,0,0,1-3.5.8,10.7,10.7,0,0,1-3.516-.8c-.011.03-.022.06-.032.091a4.722,4.722,0,0,0-.206.93l-.075.423c-.105-.545-.216-1.09-.277-1.639Z" transform="translate(-1319.757 -417.061)" fill="#2b2b2d"/>
    </g>
    <g id="Group_180" data-name="Group 180" transform="translate(1185.894 314.69)">
      <path id="Path_933" data-name="Path 933" d="M1360.043,391.957c-.963-3.428-1.808-3.325-2.3-3.575,0,0-3.013-1.43-5.062-2.369-.554-.255-1.241-.563-1.648-.741a.54.54,0,0,0-.593.1,2.762,2.762,0,0,1-4.269,0,.524.524,0,0,0-.579-.1c-.4.18-1.088.49-1.632.741-2.049.94-5.061,2.369-5.061,2.369-.488.25-1.334.147-2.3,3.576a.526.526,0,0,0,.359.647l9.715,2.794a5.911,5.911,0,0,0,3.263,0l9.74-2.8A.527.527,0,0,0,1360.043,391.957Z" transform="translate(-1336.587 -370.033)" fill="#5f90cb"/>
      <path id="Path_934" data-name="Path 934" d="M1348.084,368.562c.127.367.339.416.515.375.023.217.042.407.055.558.077.84,2.094,2.521,2.552,3.048.428.492,3,.492,3.427,0,.457-.526,2.474-2.208,2.55-3.048.014-.151.033-.34.056-.558.175.04.388-.009.515-.375a3.322,3.322,0,0,1,.464-1c.344-.545.275-2.142-.552-1.531h-.094c.128-.663.263-1.328.338-1.993v-.011a9.774,9.774,0,0,0,.077-2c-.062-.981-2.7-3.337-5.068-3.218-2.232-.113-4.707,1.978-5.031,3.038a.8.8,0,0,0-.045.207,9.766,9.766,0,0,0,.076,2v.011c.074.656.206,1.312.333,1.965h-.082c-.826-.611-.9.986-.551,1.531Zm.18-2.536v.006h0Z" transform="translate(-1341.193 -358.805)" fill="#5f90cb"/>
    </g>
  </g>
</svg>
