<svg xmlns="http://www.w3.org/2000/svg" width="25.442" height="32" viewBox="0 0 25.442 32">
  <g id="Group_172" data-name="Group 172" transform="translate(-2.8 -0.3)">
    <path id="Path_913" data-name="Path 913" d="M7.118,3.6a.918.918,0,1,0,0,1.836H23.511a.918.918,0,1,0,0-1.836Z" transform="translate(1.059 1.028)" fill="#514d93"/>
    <path id="Path_914" data-name="Path 914" d="M27.324,8.693H7.915A3.247,3.247,0,0,1,4.636,5.415,3.247,3.247,0,0,1,7.915,2.136h19.41a.9.9,0,0,0,.918-.918A.9.9,0,0,0,27.324.3H7.915A5.121,5.121,0,0,0,2.8,5.415v21.9A4.981,4.981,0,0,0,7.784,32.3h19.41a.9.9,0,0,0,.918-.918V9.48C28.242,9.087,27.849,8.693,27.324,8.693Z" transform="translate(0)" fill="#514d93"/>
  </g>
</svg>
