<svg xmlns="http://www.w3.org/2000/svg" width="38.441" height="44" viewBox="0 0 38.441 44">
  <g id="Women" transform="translate(-2.934 -0.244)">
    <path id="Path_897" data-name="Path 897" d="M18.875,24.636v-1.7l-1.56-.818L9.4,24.366l-.031.16a2.209,2.209,0,0,0,2.046,2.616,5,5,0,0,0,2.641-.478,9.394,9.394,0,0,1,3.744-.941A1.112,1.112,0,0,0,18.875,24.636Z" transform="translate(-0.101 -0.295)" fill="#4d4e4e"/>
    <path id="Path_898" data-name="Path 898" d="M26.015,24.636v-1.7l1.65-.818,8.07-.148.227,1.729a2.918,2.918,0,0,1-3.119,3.426,4.7,4.7,0,0,1-1.735-.463,10.413,10.413,0,0,0-3.961-.941A1.144,1.144,0,0,1,26.015,24.636Z" transform="translate(-0.465 -0.294)" fill="#4d4e4e"/>
    <path id="Path_899" data-name="Path 899" d="M26.246,22.52H18.472l-.267,5.437,4.154,1.376,4.154-1.376Z" transform="translate(-0.232 -0.314)" fill="#e49769"/>
    <path id="Path_900" data-name="Path 900" d="M38.345,32.173s-5.177-2.486-8.7-4.12c-1.388-.647-3.261-1.486-3.42-1.544-.011,0-.01,0-.018,0-.128.148-2.058,2.333-4.077,2.182-2.09.156-4.085-2.19-4.085-2.19-.016,0-1.976.889-3.387,1.547-3.519,1.634-8.7,4.12-8.7,4.12A3.8,3.8,0,0,0,4.2,33.323c-2.41,2.9-1.248,6.286,2.35,7.333l12.784,3.721a10.023,10.023,0,0,0,5.6,0L37.75,40.656c3.6-1.046,4.772-4.438,2.357-7.336A3.809,3.809,0,0,0,38.345,32.173Z" transform="translate(0 -0.532)" fill="#f06145"/>
    <path id="Path_901" data-name="Path 901" d="M13.005,24.185c1.143-.537,2.581,1.863,3.426,1.478.412-.187.89-3.168,1.216-2.85.123.119.27.254.43.394-.019-.7-.042-1.166-.042-1.166l4.094,1.428,4.1-1.428s-.025.469-.042,1.17c.158-.138.3-.271.425-.39.334-.325.821,2.652,1.244,2.841.854.382,2.3-2.024,3.46-1.477.973.455,2.05.963,3.134,1.478-.016-.459-.047-.93-.107-1.418-1.024-8.3-4.076-20.727-9.2-20.98-7.847-.387-11.943,4.4-12.794,9.384-.6,3.491-1.554,9.121-2.089,12.833C11.207,25.03,12.147,24.586,13.005,24.185Z" fill="#4d4e4e"/>
    <path id="Path_902" data-name="Path 902" d="M23.79,25.728a2.386,2.386,0,0,1-2.751,0s-5.656-2.679-6.281-8.991V12.748a7.49,7.49,0,0,1,7.629-7.343h0a7.675,7.675,0,0,1,6.708,3.843,7.1,7.1,0,0,1,.92,3.5v4.015C29.756,23.182,23.79,25.728,23.79,25.728Z" transform="translate(-0.232)" fill="#f7c593"/>
    <g id="Group_166" data-name="Group 166" transform="translate(9.088 0.244)">
      <g id="Group_165" data-name="Group 165">
        <path id="Path_903" data-name="Path 903" d="M35.766,22.119c-.364-1.682-.485-3.4-.785-5.094A36.058,36.058,0,0,0,30.936,5.45a11.241,11.241,0,0,0-2.253-3.211,3.187,3.187,0,0,0-1.452-.757,1.66,1.66,0,0,0-1.522.452A2.258,2.258,0,0,0,23.5.25a10.7,10.7,0,0,0-5.783,1.99,12.7,12.7,0,0,0-5.133,5.355,14.753,14.753,0,0,0-.752,2.6c-1.1,5-1.751,9.412-2.5,14.478-.257,1.745,6.05,2.448,5.834-1.574-.175-3.254-.83-5.181-.521-8.428,1.545-1.7,4.438-2.088,5.906-2.69A9.76,9.76,0,0,0,24.3,9.142a5.776,5.776,0,0,0,1.1-2.08,15.809,15.809,0,0,1,2.655,2.159,10.768,10.768,0,0,1,2.255,4.042c.765,2.365.283,4.836-.014,7.291-.169,1.395-.279,2.771-.577,4.145C29.54,25.526,36.234,24.282,35.766,22.119Z" transform="translate(-9.327 -0.244)" fill="#4d4e4e"/>
      </g>
    </g>
  </g>
</svg>
