<svg xmlns="http://www.w3.org/2000/svg" width="32" height="28.733" viewBox="0 0 32 28.733">
  <g id="Icon_user" data-name="Icon user" transform="translate(-407.773 -292.475)">
    <path id="Path_948" data-name="Path 948" d="M417.192,292.475a6.67,6.67,0,0,1,6.141,7.159c-.017.22-.046.44-.083.658-.621,4.29-2.691,7.4-6.058,7.4-3.312,0-5.331-3.209-5.849-7.4a6.661,6.661,0,0,1,5.36-7.745C416.866,292.515,417.029,292.492,417.192,292.475Z" transform="translate(6.438 0)" fill="#2e3092"/>
    <path id="Path_949" data-name="Path 949" d="M437.3,309.548H410.259a2.464,2.464,0,0,1-2.485-2.445v-.092a6.9,6.9,0,0,1,.621-2.9c.947-1.5,8.506-4.436,10.577-5.008a.911.911,0,0,0,.363-.257,10.013,10.013,0,0,0,4.29.932,10.535,10.535,0,0,0,4.608-1.035.344.344,0,0,0,.257.206c3.364,1.347,10.3,3.521,10.869,5.177a11.787,11.787,0,0,1,.415,2.86,2.51,2.51,0,0,1-2.451,2.566H437.3Z" transform="translate(0 11.657)" fill="#2e3092"/>
  </g>
</svg>
