<svg id="Group_183" data-name="Group 183" xmlns="http://www.w3.org/2000/svg" width="24" height="24" viewBox="0 0 24 24">
  <path id="Path_938" data-name="Path 938" d="M24,12A12,12,0,1,0,10.125,23.854V15.469H7.078V12h3.047V9.356c0-3.007,1.792-4.669,4.533-4.669a18.453,18.453,0,0,1,2.686.234V7.875H15.831a1.734,1.734,0,0,0-1.956,1.874V12H17.2l-.532,3.469h-2.8v8.385A12,12,0,0,0,24,12Z" fill="#1877f2"/>
  <path id="Path_939" data-name="Path 939" d="M311.6,210.786l.532-3.47H308.8v-2.252a1.735,1.735,0,0,1,1.957-1.875h1.514v-2.955a18.463,18.463,0,0,0-2.687-.234c-2.742,0-4.535,1.662-4.535,4.671v2.645H302v3.47h3.048v8.389a12.134,12.134,0,0,0,3.752,0v-8.389Z" transform="translate(-294.924 -195.322)" fill="#fff"/>
</svg>
