<?xml version="1.0" encoding="utf-8"?>
<!-- Generator: Adobe Illustrator 22.0.0, SVG Export Plug-In . SVG Version: 6.00 Build 0)  -->
<svg version="1.1" id="Layer_1" xmlns="http://www.w3.org/2000/svg" xmlns:xlink="http://www.w3.org/1999/xlink" x="0px" y="0px"
	 viewBox="0 0 25 25" style="enable-background:new 0 0 25 25;" xml:space="preserve">
<style type="text/css">
	.st0{fill:#787878;}
	.st1{fill:#FFFFFF;}
	.st2{fill-rule:evenodd;clip-rule:evenodd;fill:#FFFFFF;}
</style>
<circle class="st0" cx="12.5" cy="12.5" r="12.5"/>
<path class="st1" d="M13.7,20.3c0-2.3,0-4.6,0-7c0-0.1,0-0.1,0.1-0.1c0.7,0,1.5,0,2.2,0c0.1,0,0.1,0,0.1-0.1
	c0.1-0.6,0.1-1.2,0.2-1.8c0-0.3,0.1-0.5,0.1-0.8c0-0.1,0-0.1-0.1-0.1c-0.8,0-1.7,0-2.5,0c-0.2,0-0.1,0-0.1-0.1c0-0.6,0-1.1,0-1.7
	c0-0.2,0-0.3,0-0.5c0.1-0.4,0.4-0.7,0.8-0.8c0.2,0,0.4,0,0.5,0c0.5,0,0.9,0,1.4,0c0.1,0,0.1,0,0.1-0.1c0-0.8,0-1.5,0-2.3
	c0-0.1,0-0.1-0.1-0.1c-0.7-0.1-1.4-0.1-2.2-0.1c-0.5,0-1.1,0.1-1.6,0.3c-0.9,0.4-1.4,1.1-1.7,2c-0.1,0.4-0.2,0.8-0.2,1.3
	c0,0.7,0,1.4,0,2c0,0.1,0,0.1-0.1,0.1c-0.7,0-1.5,0-2.2,0c-0.1,0-0.1,0-0.1,0.1c0,0.9,0,1.7,0,2.6c0,0.1,0,0.1,0.1,0.1
	c0.7,0,1.5,0,2.2,0c0.1,0,0.1,0,0.1,0.1c0,2.3,0,4.6,0,7L13.7,20.3z"/>
</svg>
