<svg id="Circle_Button" data-name="Circle Button" xmlns="http://www.w3.org/2000/svg" width="24" height="24" viewBox="0 0 24 24">
  <rect id="Area" width="24" height="24" rx="12" fill="#858585"/>
  <g id="Icon" transform="translate(3.84 4.8)">
    <g id="Area-2" data-name="Area" opacity="0">
      <rect id="Area-3" data-name="Area" width="16" height="16" transform="translate(0.16 0.199)" fill="#fff"/>
      <path id="Area_-_Outline" data-name="Area - Outline" d="M1,1V15H15V1H1M0,0H16V16H0Z" transform="translate(0.16 0.199)" fill="#858585"/>
    </g>
    <g id="Icon-2" data-name="Icon" transform="translate(1.245 0.767)">
      <path id="Path" d="M2.5,5.738V.833h8.408v4.9" transform="translate(0.303 -0.833)" fill="#fff"/>
      <path id="Path_-_Outline" data-name="Path - Outline" d="M10.908,6.155a.417.417,0,0,1-.417-.417V1.25H2.917V5.738a.417.417,0,1,1-.833,0V.833A.417.417,0,0,1,2.5.416h8.408a.417.417,0,0,1,.417.417v4.9A.417.417,0,0,1,10.908,6.155Z" transform="translate(0.303 -0.833)" fill="#858585"/>
      <path id="Path-2" data-name="Path" d="M3.636,10.056h-1.4a1.4,1.4,0,0,1-1.4-1.4v-3.5a1.4,1.4,0,0,1,1.4-1.4H13.444a1.4,1.4,0,0,1,1.4,1.4v3.5a1.4,1.4,0,0,1-1.4,1.4h-1.4" transform="translate(-0.833 1.155)" fill="#fff"/>
      <path id="Path_-_Outline-2" data-name="Path - Outline" d="M13.444,10.472h-1.4a.417.417,0,0,1,0-.833h1.4a.986.986,0,0,0,.986-.984v-3.5a.986.986,0,0,0-.986-.984H2.235a.986.986,0,0,0-.986.984v3.5a.986.986,0,0,0,.986.984h1.4a.417.417,0,0,1,0,.833h-1.4A1.82,1.82,0,0,1,.416,8.655v-3.5A1.82,1.82,0,0,1,2.235,3.333H13.444a1.82,1.82,0,0,1,1.819,1.817v3.5A1.82,1.82,0,0,1,13.444,10.472Z" transform="translate(-0.833 1.155)" fill="#858585"/>
      <rect id="Rect" width="8.408" height="5.605" transform="translate(2.803 8.408)" fill="#fff"/>
      <path id="Rect_-_Outline" data-name="Rect - Outline" d="M0-.417H8.408A.417.417,0,0,1,8.824,0V5.605a.417.417,0,0,1-.417.417H0a.417.417,0,0,1-.417-.417V0A.417.417,0,0,1,0-.417ZM7.991.417H.417V5.188H7.991Z" transform="translate(2.803 8.408)" fill="#858585"/>
    </g>
  </g>
</svg>
