<?xml version="1.0" encoding="utf-8"?>
<!-- Generator: Adobe Illustrator 19.2.0, SVG Export Plug-In . SVG Version: 6.00 Build 0)  -->
<svg version="1.1" id="Layer_1" xmlns="http://www.w3.org/2000/svg" xmlns:xlink="http://www.w3.org/1999/xlink" x="0px" y="0px"
	 viewBox="0 0 30 30" style="enable-background:new 0 0 30 30;" xml:space="preserve">
<style type="text/css">
	.st0{fill:#FFFFFF;}
</style>
<g>
	<polygon class="st0" points="20.6,27.4 9.5,27.4 9.5,22.1 6.9,22.1 6.9,30 23.2,30 23.2,22.1 20.6,22.1 	"/>
	<path class="st0" d="M30,6.7c0-1.2-1-2.2-2.2-2.2h-4.6V0H6.9v4.5H2.2C1,4.5,0,5.5,0,6.7v12.8l0,0v4.7c0,1.7,1.4,3.1,3.1,3.1H5v-2.6
		H3.1c-0.3,0-0.5-0.3-0.5-0.5v-4.7h24.9v4.7c0,0.3-0.3,0.5-0.5,0.5h-1.8v2.6h1.8c1.7,0,3.1-1.4,3.1-3.1v-4.7l0,0V6.7z M24.4,11.9
		c0,1-0.8,1.8-1.8,1.8s-1.8-0.8-1.8-1.8s0.8-1.8,1.8-1.8C23.6,10.1,24.4,11,24.4,11.9z M9.5,2.6h11.3v1.9H9.5V2.6z"/>
</g>
</svg>
