<?xml version="1.0" encoding="utf-8"?>
<!-- Generator: Adobe Illustrator 22.0.0, SVG Export Plug-In . SVG Version: 6.00 Build 0)  -->
<svg version="1.1" id="Layer_1" xmlns="http://www.w3.org/2000/svg" xmlns:xlink="http://www.w3.org/1999/xlink" x="0px" y="0px"
	 viewBox="0 0 20 18" style="enable-background:new 0 0 20 18;" xml:space="preserve">
<style type="text/css">
	.st0{fill:#777777;}
</style>
<g>
	<path class="st0" d="M5.2,14.4V18h9.6v-6H5.2V14.4z M6.4,13.2h7.2v1.2H6.4V13.2z M6.4,15.6h7.2v1.2H6.4V15.6z M6.4,15.6"/>
	<path class="st0" d="M14.8,3.6V0H5.2v6h9.6V3.6z M14.8,3.6"/>
	<path class="st0" d="M17.2,3.6H16v3.6H4V3.6H2.8C1.5,3.6,0.4,4.7,0.4,6v7.5c0,0.5,0.4,0.9,0.9,0.9H4v-3.6h12v3.6h2.7
		c0.5,0,0.9-0.4,0.9-0.9V6C19.6,4.8,18.4,3.6,17.2,3.6L17.2,3.6z M17.2,3.6"/>
</g>
</svg>
