<?xml version="1.0" encoding="utf-8"?>
<!-- Generator: Adobe Illustrator 22.0.0, SVG Export Plug-In . SVG Version: 6.00 Build 0)  -->
<svg version="1.1" id="Layer_1" xmlns="http://www.w3.org/2000/svg" xmlns:xlink="http://www.w3.org/1999/xlink" x="0px" y="0px"
	 viewBox="0 0 25 25" style="enable-background:new 0 0 25 25;" xml:space="preserve">
<style type="text/css">
	.st0{fill:#787878;}
	.st1{fill:#FFFFFF;}
	.st2{fill-rule:evenodd;clip-rule:evenodd;fill:#FFFFFF;}
</style>
<circle class="st0" cx="12.5" cy="12.5" r="12.5"/>
<path class="st2" d="M4.6,19.1c2,0.2,3.8-0.3,5.3-1.5c-0.8,0-1.5-0.3-2.1-0.7c-0.6-0.5-1-1.1-1.3-1.8c0.3,0,0.5,0,0.8,0
	c0.3,0,0.5,0,0.8-0.1c-1.1-0.3-1.9-0.9-2.5-1.9c-0.3-0.6-0.4-1.4-0.4-1.7c0.5,0.3,1,0.4,1.6,0.5c-0.8-0.6-1.3-1.3-1.5-2.2
	C5.2,8.7,5.4,7.8,5.9,6.9c2,2.3,4.5,3.6,7.5,3.8c0-0.1,0-0.2-0.1-0.3c-0.1-0.7,0-1.3,0.3-2c0.5-1.2,1.5-1.9,2.7-2.1
	c1.2-0.2,2.3,0.2,3.2,1c0.1,0.1,0.1,0.1,0.2,0.1c0.8-0.2,1.5-0.4,2.1-0.8c0,0,0.1,0,0.1,0c-0.1,0.4-0.3,0.8-0.6,1.1
	C21,8,20.7,8.3,20.4,8.5c0.7-0.1,1.4-0.3,2-0.5c0,0,0,0,0,0.1c-0.5,0.7-1,1.3-1.7,1.7c-0.1,0.1-0.1,0.1-0.1,0.2c0,0.3,0,0.7,0,1
	c0,0.8-0.2,1.5-0.4,2.3c-0.4,1.5-1.2,2.8-2.2,4c-1.4,1.6-3.2,2.7-5.3,3.2c-0.5,0.1-1.1,0.2-1.6,0.2c-0.3,0-0.7,0-1,0
	c-1.5,0-2.9-0.3-4.2-0.9C5.5,19.6,5.1,19.4,4.6,19.1C4.7,19.1,4.7,19.1,4.6,19.1C4.6,19.1,4.6,19.1,4.6,19.1z"/>
</svg>
