<svg xmlns="http://www.w3.org/2000/svg" width="24" height="24" viewBox="0 0 24 24">
  <g id="Group_184" data-name="Group 184" transform="translate(-0.309 -0.309)">
    <g id="Dark_Blue" data-name="Dark Blue">
      <circle id="Ellipse_72" data-name="Ellipse 72" cx="12" cy="12" r="12" transform="translate(0.309 0.309)" fill="#1d9bf0"/>
    </g>
    <g id="Logo_FIXED" data-name="Logo — FIXED" transform="translate(4.879 6.242)">
      <path id="Path_940" data-name="Path 940" d="M94.617,127.73a9.433,9.433,0,0,0,9.5-9.5c0-.145,0-.288-.009-.432a6.792,6.792,0,0,0,1.665-1.728,6.664,6.664,0,0,1-1.917.525,3.35,3.35,0,0,0,1.468-1.847,6.689,6.689,0,0,1-2.12.81,3.341,3.341,0,0,0-5.689,3.044,9.477,9.477,0,0,1-6.881-3.488,3.341,3.341,0,0,0,1.033,4.456,3.314,3.314,0,0,1-1.512-.418c0,.014,0,.028,0,.043a3.34,3.34,0,0,0,2.678,3.273,3.332,3.332,0,0,1-1.507.057,3.342,3.342,0,0,0,3.118,2.319,6.7,6.7,0,0,1-4.146,1.429,6.8,6.8,0,0,1-.8-.046,9.45,9.45,0,0,0,5.117,1.5" transform="translate(-89.5 -114.507)" fill="#fff"/>
    </g>
  </g>
</svg>
