<svg xmlns="http://www.w3.org/2000/svg" width="24" height="24" viewBox="0 0 24 24">
  <g id="Group_218" data-name="Group 218" transform="translate(-0.309 -0.309)">
    <g id="Dark_Blue" data-name="Dark Blue">
      <circle id="Ellipse_72" data-name="Ellipse 72" cx="12" cy="12" r="12" transform="translate(0.309 0.309)" fill="#00b900"/>
    </g>
    <g id="TYPE_A" data-name="TYPE A" transform="translate(-521.553 -252.496)">
      <g id="Group_220" data-name="Group 220" transform="translate(525.473 257.805)">
        <path id="Path_943" data-name="Path 943" d="M542.25,264.613c0-3.754-3.763-6.808-8.389-6.808s-8.389,3.054-8.389,6.808c0,3.365,2.984,6.183,7.016,6.716.273.059.645.18.739.414a1.723,1.723,0,0,1,.027.758s-.1.592-.12.718c-.037.212-.169.829.727.452a27.08,27.08,0,0,0,6.591-4.87h0a6.056,6.056,0,0,0,1.8-4.188" transform="translate(-525.473 -257.805)" fill="#fefefe"/>
        <g id="Group_219" data-name="Group 219" transform="translate(2.752 4.994)">
          <path id="Path_944" data-name="Path 944" d="M557.123,283.813h-.588a.163.163,0,0,0-.163.163v3.655a.163.163,0,0,0,.163.163h.588a.163.163,0,0,0,.163-.163v-3.655a.163.163,0,0,0-.163-.163" transform="translate(-553.19 -283.813)" fill="#00b900"/>
          <path id="Path_945" data-name="Path 945" d="M567.432,283.813h-.588a.163.163,0,0,0-.163.163v2.172L565,283.886l-.013-.017h0l-.01-.01,0,0-.009-.007,0,0-.008-.006,0,0-.009-.005-.005,0-.009,0-.005,0-.01,0h-.006l-.009,0h-.618a.164.164,0,0,0-.164.163v3.655a.163.163,0,0,0,.164.163h.588a.163.163,0,0,0,.164-.163V285.46l1.677,2.265a.162.162,0,0,0,.041.04h0l.01.006,0,0,.008,0,.008,0,0,0,.011,0h0a.158.158,0,0,0,.042.006h.588a.163.163,0,0,0,.163-.163v-3.655a.163.163,0,0,0-.163-.163" transform="translate(-559.449 -283.813)" fill="#00b900"/>
          <path id="Path_946" data-name="Path 946" d="M542.32,286.879h-1.6v-2.9a.163.163,0,0,0-.163-.163h-.589a.163.163,0,0,0-.163.163v3.655h0a.162.162,0,0,0,.046.113l0,0,0,0a.162.162,0,0,0,.113.046h2.351a.163.163,0,0,0,.163-.163v-.589a.163.163,0,0,0-.163-.163" transform="translate(-539.806 -283.813)" fill="#00b900"/>
          <path id="Path_947" data-name="Path 947" d="M587.725,284.728a.163.163,0,0,0,.163-.163v-.588a.163.163,0,0,0-.163-.164h-2.351a.162.162,0,0,0-.113.046l0,0,0,0a.163.163,0,0,0-.045.113h0v3.655h0a.162.162,0,0,0,.046.113l0,0,0,0a.162.162,0,0,0,.113.046h2.351a.163.163,0,0,0,.163-.163v-.588a.163.163,0,0,0-.163-.163h-1.6v-.618h1.6a.163.163,0,0,0,.163-.164v-.588a.163.163,0,0,0-.163-.164h-1.6v-.618Z" transform="translate(-576.493 -283.813)" fill="#00b900"/>
        </g>
      </g>
    </g>
  </g>
</svg>
