<?xml version="1.0" encoding="utf-8"?>
<!-- Generator: Adobe Illustrator 22.0.0, SVG Export Plug-In . SVG Version: 6.00 Build 0)  -->
<svg version="1.1" id="Layer_1" xmlns="http://www.w3.org/2000/svg" xmlns:xlink="http://www.w3.org/1999/xlink" x="0px" y="0px"
	 viewBox="0 0 45 45" style="enable-background:new 0 0 45 45;" xml:space="preserve">
<style type="text/css">
	.st0{fill:#10254D;}
	.st1{fill:#00B2EA;}
	.st2{fill:#787878;}
	.st3{fill:#EEEEEE;}
</style>
<g>
	<path class="st0" d="M22.7,0.3c-0.2-0.1-0.5-0.1-0.8,0l-8.2,4.3v0.1l7.9,4.3c0.3,0.1,0.4,0.4,0.4,0.7v0.8c0,0.6-0.7,1-1.2,0.7
		L14.9,8c-0.5-0.3-1.2,0.1-1.2,0.7V10c0,0.3,0.2,0.6,0.4,0.7l7.5,4c0.3,0.1,0.4,0.4,0.4,0.7v0.8c0,0.6-0.7,1-1.2,0.7l-5.9-3.2
		c-0.5-0.3-1.2,0.1-1.2,0.7v1.2c0,0.3,0.2,0.6,0.4,0.7l7.5,4c0.3,0.1,0.4,0.4,0.4,0.7v0.8c0,0.6-0.7,1-1.2,0.7l-5.9-3.2
		c-0.5-0.3-1.2,0.1-1.2,0.7v1.3c0,0.3,0.2,0.6,0.4,0.7l7.5,4c0.3,0.1,0.4,0.4,0.4,0.7v0.8c0,0.6-0.7,1-1.2,0.7l-5.9-3.2
		c-0.5-0.3-1.2,0.1-1.2,0.7v1.2c0,0.3,0.2,0.6,0.4,0.7l7.5,4c0.3,0.1,0.4,0.4,0.4,0.7v0.8c0,0.6-0.7,1-1.2,0.7l-5.9-3.2
		c-0.5-0.3-1.2,0.1-1.2,0.7v1.3c0,0.3,0.2,0.6,0.4,0.7l7.3,3.9c0.3,0.1,0.4,0.4,0.4,0.7v0.8c0,0.6-0.7,1-1.2,0.7l-5.8-3.1
		c-0.5-0.3-1.2,0.1-1.2,0.7v2.1c0,0.3,0.2,0.6,0.4,0.7l7.8,4c0.2,0.1,0.5,0.1,0.8,0l7.8-4c0.3-0.1,0.4-0.4,0.4-0.7V5.1
		c0-0.3-0.2-0.6-0.4-0.7L22.7,0.3z"/>
	<path class="st1" d="M39.3,12.8c-0.2-0.1-0.5-0.1-0.8,0L33,15.7v0.1l5.4,2.9c0.3,0.1,0.4,0.4,0.4,0.7v0c0,0.6-0.7,1-1.2,0.7
		l-3.4-1.8C33.7,18,33,18.4,33,19v0.3c0,0.3,0.2,0.6,0.4,0.7l5,2.7c0.3,0.1,0.4,0.4,0.4,0.7v0c0,0.6-0.7,1-1.2,0.7l-3.4-1.8
		c-0.5-0.3-1.2,0.1-1.2,0.7v0.3c0,0.3,0.2,0.6,0.4,0.7l5,2.7c0.3,0.1,0.4,0.4,0.4,0.7v0c0,0.6-0.7,1-1.2,0.7l-3.4-1.8
		c-0.5-0.3-1.2,0.1-1.2,0.7v0.3c0,0.3,0.2,0.6,0.4,0.7l5,2.7c0.3,0.1,0.4,0.4,0.4,0.7v0c0,0.6-0.7,1-1.2,0.7l-3.4-1.8
		c-0.5-0.3-1.2,0.1-1.2,0.7v0.3c0,0.3,0.2,0.6,0.4,0.7l5,2.7c0.3,0.1,0.4,0.4,0.4,0.7v0c0,0.6-0.7,1-1.2,0.7l-3.4-1.8
		c-0.5-0.3-1.2,0.1-1.2,0.7v0.4c0,0.3,0.2,0.6,0.4,0.7l4.8,2.6c0.3,0.1,0.4,0.4,0.4,0.7v0c0,0.6-0.7,1-1.2,0.7l-3.3-1.8
		c-0.5-0.3-1.2,0.1-1.2,0.7v0.9c0,0.3,0.2,0.6,0.4,0.7l5.1,2.7c0.2,0.1,0.5,0.1,0.8,0l5.1-2.7c0.3-0.1,0.4-0.4,0.4-0.7v-24
		c0-0.3-0.2-0.6-0.4-0.7L39.3,12.8z"/>
	<path class="st1" d="M6.4,12.8c-0.2-0.1-0.5-0.1-0.8,0l-5.6,2.9v0.1l5.4,2.9c0.3,0.1,0.4,0.4,0.4,0.7v0c0,0.6-0.7,1-1.2,0.7
		l-3.4-1.8C0.7,18,0.1,18.4,0.1,19v0.3c0,0.3,0.2,0.6,0.4,0.7l5,2.7c0.3,0.1,0.4,0.4,0.4,0.7v0c0,0.6-0.7,1-1.2,0.7l-3.4-1.8
		c-0.5-0.3-1.2,0.1-1.2,0.7v0.3c0,0.3,0.2,0.6,0.4,0.7l5,2.7c0.3,0.1,0.4,0.4,0.4,0.7v0c0,0.6-0.7,1-1.2,0.7l-3.4-1.8
		c-0.5-0.3-1.2,0.1-1.2,0.7v0.3c0,0.3,0.2,0.6,0.4,0.7l5,2.7c0.3,0.1,0.4,0.4,0.4,0.7v0c0,0.6-0.7,1-1.2,0.7l-3.4-1.8
		c-0.5-0.3-1.2,0.1-1.2,0.7v0.3c0,0.3,0.2,0.6,0.4,0.7l5,2.7c0.3,0.1,0.4,0.4,0.4,0.7v0c0,0.6-0.7,1-1.2,0.7l-3.4-1.8
		c-0.5-0.3-1.2,0.1-1.2,0.7v0.4c0,0.3,0.2,0.6,0.4,0.7l4.8,2.6c0.3,0.1,0.4,0.4,0.4,0.7v0c0,0.6-0.7,1-1.2,0.7l-3.3-1.8
		c-0.5-0.3-1.2,0.1-1.2,0.7v0.9c0,0.3,0.2,0.6,0.4,0.7l5.1,2.7c0.2,0.1,0.5,0.1,0.8,0l5.1-2.7c0.3-0.1,0.4-0.4,0.4-0.7v-24
		c0-0.3-0.2-0.6-0.4-0.7L6.4,12.8z"/>
</g>
</svg>
