<?xml version="1.0" encoding="utf-8"?>
<!-- Generator: Adobe Illustrator 22.0.0, SVG Export Plug-In . SVG Version: 6.00 Build 0)  -->
<svg version="1.1" id="Layer_1" xmlns="http://www.w3.org/2000/svg" xmlns:xlink="http://www.w3.org/1999/xlink" x="0px" y="0px"
	 viewBox="0 0 23 18" style="enable-background:new 0 0 23 18;" xml:space="preserve">
<style type="text/css">
	.st0{fill:#FFFFFF;}
</style>
<g>
	<path class="st0" d="M10.5,1.9h2c0.6,0,1.1,0.5,1.2,1.1h1.7c-0.1-1.6-1.4-2.8-3-2.8h-2C9,0.2,7.7,1.4,7.6,3h1.7
		C9.4,2.4,9.9,1.9,10.5,1.9L10.5,1.9z M10.5,1.9"/>
	<path class="st0" d="M15.4,3.9H4.8c-0.5,0-1.1,0.5-1.4,0.8C3.1,4.9,3.1,5.1,3.1,5.3c0.1,1.2,0.9,2.4,2.3,3.3
		c1.2,0.8,2.8,1.3,4.5,1.5c0.5,0.1,1,0.1,1.6,0.1c1,0,2-0.1,2.9-0.3c1.2-0.3,2.3-0.7,3.2-1.3c1.4-0.9,2.2-2.1,2.3-3.3
		c0-0.2-0.1-0.5-0.2-0.6c-0.3-0.3-0.9-0.8-1.4-0.8H15.4z M15.4,3.9"/>
	<path class="st0" d="M18.3,9.7c-0.8,0.5-1.8,1-2.8,1.3c-1.2,0.4-2.6,0.6-4,0.6c-0.1,0-0.2,0-0.3,0c-2.5,0-4.7-0.7-6.5-1.9
		C4,9.2,3.3,8.7,2.9,8C2.7,7.9,2.7,7.9,2.7,8.1v7.5c0,1.2,0.9,2.2,2.1,2.2h13.5c0.4,0,0.7-0.1,1-0.3c0.6-0.4,1.1-1.1,1.1-1.9V8.1
		c0-0.2-0.1-0.2-0.2-0.1C19.7,8.7,19.1,9.2,18.3,9.7L18.3,9.7z M18.3,9.7"/>
</g>
</svg>
