<?xml version="1.0" encoding="utf-8"?>
<!-- Generator: Adobe Illustrator 22.0.0, SVG Export Plug-In . SVG Version: 6.00 Build 0)  -->
<svg version="1.1" id="Layer_1" xmlns="http://www.w3.org/2000/svg" xmlns:xlink="http://www.w3.org/1999/xlink" x="0px" y="0px"
	 viewBox="0 0 25 31" style="enable-background:new 0 0 25 31;" xml:space="preserve">
<style type="text/css">
	.st0{fill:#514D93;}
	.st1{fill:#F0525E;}
	.st2{fill:#FFFFFF;}
</style>
<g>
	<path class="st0" d="M5.6,4.4c-0.5,0-0.8,0.4-0.8,0.8c0,0.5,0.4,0.8,0.8,0.8h15.5c0.5,0,0.8-0.4,0.8-0.8c0-0.5-0.4-0.8-0.8-0.8H5.6
		z M5.6,4.4"/>
	<g>
		<path class="st0" d="M13.5,16.7c-0.9,0-1.5,0.2-1.8,0.5c-0.4,0.3-0.5,0.9-0.5,1.7h4.4v-0.5C15.6,17.3,14.9,16.7,13.5,16.7z"/>
		<path class="st0" d="M23.6,8.3H5.3c-1.7,0-3.1-1.4-3.1-3.1c0-1.7,1.4-3.1,3.1-3.1h18.4c0.5,0,0.8-0.4,0.8-0.8
			c0-0.5-0.4-0.8-0.8-0.8H5.3c-2.6,0-4.7,2.1-4.7,4.7v20.7c0,2.6,2.1,4.7,4.7,4.7h18.4c0.5,0,0.8-0.4,0.8-0.8V9.1
			C24.5,8.6,24.1,8.3,23.6,8.3z M17.9,20.6h-6.8c0.1,0.7,0.5,1.2,1,1.5c0.5,0.3,1.3,0.4,2.4,0.4c0.5,0,1,0,1.5-0.1
			c0.5-0.1,1-0.2,1.3-0.4V24c-0.9,0.4-2,0.6-3.4,0.6c-1.7,0-3-0.4-3.9-1.2c-0.9-0.8-1.4-2-1.4-3.7c0-1.5,0.4-2.7,1.2-3.6
			c0.8-0.9,2-1.3,3.5-1.3c1.4,0,2.5,0.4,3.3,1.1c0.8,0.7,1.2,1.7,1.2,3V20.6z"/>
	</g>
</g>
</svg>
