<?xml version="1.0" encoding="utf-8"?>
<!-- Generator: Adobe Illustrator 22.0.0, SVG Export Plug-In . SVG Version: 6.00 Build 0)  -->
<svg version="1.1" id="Layer_1" xmlns="http://www.w3.org/2000/svg" xmlns:xlink="http://www.w3.org/1999/xlink" x="0px" y="0px"
	 viewBox="0 0 45 45" style="enable-background:new 0 0 45 45;" xml:space="preserve">
<style type="text/css">
	.st0{fill:#10254D;}
	.st1{fill:#00B2EA;}
	.st2{fill:#787878;}
	.st3{fill:#EEEEEE;}
</style>
<g>
	<path class="st0" d="M38.9,32.2c0,0-5.2-2.5-8.8-4.1c-1-0.4-2.2-1-2.9-1.3c-0.4-0.2-0.8-0.1-1,0.2c-0.7,0.7-2.2,1.9-3.7,1.8
		c-1.5,0.1-3-1.1-3.7-1.8c-0.3-0.3-0.7-0.3-1-0.2c-0.7,0.3-1.9,0.9-2.8,1.3c-3.6,1.6-8.8,4.1-8.8,4.1c-0.8,0.4-2.3,0.3-4,6.2
		c-0.1,0.5,0.1,1,0.6,1.1l16.9,4.9c1.9,0.5,3.8,0.5,5.7,0l16.9-4.9c0.5-0.1,0.8-0.6,0.6-1.1C41.2,32.4,39.7,32.6,38.9,32.2z"/>
	<path class="st1" d="M14.1,17.2c0.2,0.6,0.6,0.7,0.9,0.7c0,0.4,0.1,0.7,0.1,1c0.1,1.5,3.6,4.4,4.4,5.3c0.7,0.9,5.2,0.9,6,0
		c0.8-0.9,4.3-3.8,4.4-5.3c0-0.3,0.1-0.6,0.1-1c0.3,0.1,0.7,0,0.9-0.7c0.3-0.9,0.3-1,0.8-1.7c0.6-0.9,0.5-3.7-1-2.7h-0.2
		c0.1-0.6,0.1-1.1,0.2-1.6c0.4-2.7,1.1-8.8-8.3-8.8c-9.4,0-8.7,6.1-8.3,8.8c0.1,0.5,0.1,1.1,0.2,1.6h-0.2c-1.4-1.1-1.6,1.7-1,2.7"/>
	<path class="st0" d="M31.3,5.8c-0.1-1.7-4.7-5.8-8.8-5.6c-3.9-0.2-8.2,3.4-8.7,5.3c0,0.1-0.1,0.2-0.1,0.4c-0.1,1.1,0,2.3,0.1,3.5
		c0,0,0,0,0,0c0.1,1.2,0.4,2.3,0.6,3.5l0-0.1c0,0,0,0,0,0l0.2-0.9c0,0,0.1-0.7,0.3-1.5c0-0.1,0.1-0.3,0.1-0.4c0-0.1,0-0.1,0.1-0.2
		c0,0,0,0,0,0c0.2,0.1,2.2,4,5.2,2.1c3.2-2,8.7-2.2,9.5-2.1c0.1,0,0.1,0.1,0.1,0.1c0,0.1,0,0.1,0.1,0.2c0.4,1.1,0.4,2,0.4,2l0.2,0.9
		c0,0,0,0,0-0.1l0,0c0.2-1.2,0.5-2.3,0.6-3.5c0,0,0,0,0,0C31.3,8.1,31.4,6.9,31.3,5.8z"/>
</g>
</svg>
