<?xml version="1.0" encoding="utf-8"?>
<!-- Generator: Adobe Illustrator 22.0.0, SVG Export Plug-In . SVG Version: 6.00 Build 0)  -->
<svg version="1.1" id="Layer_1" xmlns="http://www.w3.org/2000/svg" xmlns:xlink="http://www.w3.org/1999/xlink" x="0px" y="0px"
	 viewBox="0 0 18 18" style="enable-background:new 0 0 18 18;" xml:space="preserve">
<style type="text/css">
	.st0{fill:none;stroke:#CCCCCC;stroke-miterlimit:10;}
	.st1{fill:none;stroke:#FFFFFF;stroke-miterlimit:10;}
</style>
<g>
	<g>
		<path class="st1" d="M17.1,13.6c-0.3-0.9-3.9-2-5.6-2.7c-0.1,0-0.1-0.1-0.1-0.1c-0.7,0.3-1.5,0.5-2.4,0.5c-0.8,0-1.5-0.2-2.2-0.5
			C6.6,11,6.6,11,6.5,11c-1.1,0.3-5,1.8-5.5,2.6c-0.2,0.4-0.3,0.9-0.3,1.5c0,0.7,0.6,1.3,1.3,1.3h14c0.7,0,1.3-0.6,1.3-1.3
			C17.3,14.6,17.2,14,17.1,13.6z"/>
	</g>
	<path class="st1" d="M12.1,5.6c-0.3,2.2-1.4,3.8-3.1,3.8c-1.7,0-2.8-1.7-3-3.8c-0.3-2.2,1.3-4,3-4C10.7,1.6,12.4,3.4,12.1,5.6z"/>
</g>
</svg>
