<?xml version="1.0" encoding="utf-8"?>
<!-- Generator: Adobe Illustrator 22.0.0, SVG Export Plug-In . SVG Version: 6.00 Build 0)  -->
<svg version="1.1" id="Layer_1" xmlns="http://www.w3.org/2000/svg" xmlns:xlink="http://www.w3.org/1999/xlink" x="0px" y="0px"
	 viewBox="0 0 25 31" style="enable-background:new 0 0 25 31;" xml:space="preserve">
<style type="text/css">
	.st0{fill:#514D93;}
	.st1{fill:#F0525E;}
	.st2{fill:#FFFFFF;}
</style>
<g>
	<path class="st1" d="M0.6,2.4v26.1c0,1.1,0.9,2,2,2h19.8c1.1,0,2-0.9,2-2V8.8c0-0.5-0.2-1.1-0.6-1.4L17.4,1
		c-0.4-0.4-0.9-0.6-1.4-0.6H2.6C1.5,0.4,0.6,1.3,0.6,2.4z"/>
	<g>
		<path class="st2" d="M4,21.1v-7.9h2.1c0.8,0,1.3,0,1.5,0.1c0.4,0.1,0.7,0.4,0.9,0.8C8.8,14.5,9,15.1,9,15.7c0,0.6-0.1,1-0.3,1.4
			s-0.5,0.7-0.8,0.8c-0.3,0.2-0.9,0.2-1.7,0.2H5.3v3H4z M5.3,14.6v2.2H6c0.5,0,0.8,0,1-0.1c0.2-0.1,0.3-0.2,0.4-0.4
			c0.1-0.2,0.2-0.4,0.2-0.7c0-0.3-0.1-0.5-0.2-0.7c-0.1-0.2-0.3-0.3-0.4-0.4c-0.2-0.1-0.5-0.1-1.1-0.1H5.3z"/>
		<path class="st2" d="M10,13.3h2.4c0.6,0,1.1,0.1,1.4,0.2c0.3,0.1,0.6,0.4,0.8,0.7c0.3,0.3,0.5,0.7,0.6,1.2
			c0.1,0.5,0.2,1.1,0.2,1.9c0,0.7-0.1,1.3-0.2,1.8c-0.2,0.5-0.3,0.9-0.6,1.2c-0.2,0.3-0.5,0.5-0.9,0.7c-0.3,0.1-0.8,0.2-1.3,0.2H10
			V13.3z M11.3,14.6v5.2h1c0.4,0,0.7,0,0.9-0.1s0.3-0.2,0.5-0.4c0.1-0.2,0.2-0.4,0.3-0.8s0.1-0.8,0.1-1.4c0-0.6,0-1-0.1-1.4
			c-0.1-0.3-0.2-0.6-0.4-0.8c-0.2-0.2-0.4-0.3-0.6-0.4c-0.2,0-0.5-0.1-1.1-0.1H11.3z"/>
		<path class="st2" d="M16.6,21.1v-7.9H21v1.3h-3.1v1.9h2.7v1.3h-2.7v3.4H16.6z"/>
	</g>
</g>
</svg>
