<svg xmlns="http://www.w3.org/2000/svg" width="10" height="14" viewBox="0 0 10 14">
  <g id="Shared_" data-name="Shared " transform="translate(0 0.531)">
    <path id="Path_805" data-name="Path 805" d="M16.949,9.949h0a1.33,1.33,0,0,0-1.889.009L11,14v2l4.06,4.06a1.33,1.33,0,0,0,1.88,0l.066-.066a1.329,1.329,0,0,0-.054-1.931L13,15l3.839-3.072A1.33,1.33,0,0,0,16.949,9.949Z" transform="translate(-9 -8.293)" fill="#2e3092" opacity="0.8" style="isolation: isolate"/>
    <circle id="Path-2" cx="2" cy="2" r="2" transform="translate(0 4.469)" fill="#2e3092"/>
    <circle id="Path-3" cx="2" cy="2" r="2" transform="translate(6 9.469)" fill="#2e3092" opacity="0.8" style="isolation: isolate"/>
    <circle id="Path" cx="2" cy="2" r="2" transform="translate(6 -0.531)" fill="#2e3092"/>
    <path id="Path_806" data-name="Path 806" d="M16.949,9.949h0a1.33,1.33,0,0,0-1.889.009L11,14v2l2-1,3.839-3.072A1.33,1.33,0,0,0,16.949,9.949Z" transform="translate(-9 -8.293)" fill="#2e3092"/>
  </g>
</svg>
