<svg id="SEARCH" xmlns="http://www.w3.org/2000/svg" width="16" height="16" viewBox="0 0 16 16">
  <path id="Path_771" data-name="Path 771" d="M22.376,21.064l-1.321,1.312L16.96,18.281a5.245,5.245,0,0,0,1.321-1.321L19.7,18.384Z" transform="translate(-6.376 -6.376)" fill="#ed1c24"/>
  <path id="Path_772" data-name="Path 772" d="M19.791,9.917a7.449,7.449,0,1,0-2.2,9,7.665,7.665,0,0,0,1.312-1.321,7.387,7.387,0,0,0,1.563-4.755A7.643,7.643,0,0,0,19.791,9.917Zm-3.62,7.575a5.371,5.371,0,0,1-3,1,5.46,5.46,0,1,1,4.811-7.743,5.519,5.519,0,0,1,.5,2.15,5.441,5.441,0,0,1-1,3.276A5.245,5.245,0,0,1,16.171,17.492Z" transform="translate(-5.587 -5.587)" fill="#2e3092" opacity="0.8"/>
</svg>
