<svg id="SIGN_IN" data-name="SIGN IN" xmlns="http://www.w3.org/2000/svg" width="18" height="18" viewBox="0 0 18 18">
  <path id="Path_763" data-name="Path 763" d="M18.98,9.59l-.12.65-.11.55a.5.5,0,0,1-.02.12,3.559,3.559,0,0,1-7.07-.12l-.22-1.2L11.37,9l-.12-1L11,6h4.89A3.167,3.167,0,0,1,18.98,9.59Z" transform="translate(-6 -6)" fill="#2e3092" opacity="0.8"/>
  <path id="Path_764" data-name="Path 764" d="M18.73,10.91a3.559,3.559,0,0,1-7.07-.12l-.22-1.2L11.37,9h4.52A3.075,3.075,0,0,1,18.73,10.91Z" transform="translate(-6 -6)" fill="#2e3092" opacity="0.8"/>
  <path id="Path_765" data-name="Path 765" d="M24,24H6l1.4-4.18a5.752,5.752,0,0,1,4.3-3.65.037.037,0,0,0,.03-.01A7.237,7.237,0,0,1,13.22,16h3.56a6.883,6.883,0,0,1,1.88.26c.01,0,.02.01.03.01a5.684,5.684,0,0,1,3.91,3.55Z" transform="translate(-6 -6)" fill="#ed1c24"/>
  <path id="Path_766" data-name="Path 766" d="M18.66,16.26a3.547,3.547,0,0,1-6.93-.1A7.237,7.237,0,0,1,13.22,16h3.56A6.883,6.883,0,0,1,18.66,16.26Z" transform="translate(-6 -6)" fill="#2e3092" opacity="0.8"/>
</svg>
