<?xml version="1.0" encoding="utf-8"?>
<!-- Generator: Adobe Illustrator 22.0.0, SVG Export Plug-In . SVG Version: 6.00 Build 0)  -->
<svg version="1.1" id="Layer_1" xmlns="http://www.w3.org/2000/svg" xmlns:xlink="http://www.w3.org/1999/xlink" x="0px" y="0px"
	 viewBox="0 0 20 21" style="enable-background:new 0 0 20 21;" xml:space="preserve">
<style type="text/css">
	.st0{fill:#FFFFFF;}
</style>
<g>
	<path class="st0" d="M8.7,0.2C4.1,0.8,0.6,4.6,0.2,9.2c-0.1,1.6,0.1,3.1,0.7,4.5C1.2,14.3,1.5,15,2,15.6c0.4,0.5,0.8,1,1.3,1.5
		c0.4,0.3,0.1,1.4-0.3,2.4c-0.3,0.7,0.4,1.5,1.1,1.3c1.5-0.4,3.7-0.9,5.7-0.9c5-0.1,9.4-3.6,10-8.6C20.5,4.8,15.1-0.6,8.7,0.2z
		 M14.5,7.9l-5.8,5.8l-3.1-3.3c-0.4-0.4-0.4-1,0-1.4C6,8.6,6.6,8.6,7,9l1.7,1.8L13,6.5c0.4-0.4,1-0.4,1.4,0S14.8,7.5,14.5,7.9z"/>
</g>
</svg>
