<?xml version="1.0" encoding="utf-8"?>
<!-- Generator: Adobe Illustrator 22.0.0, SVG Export Plug-In . SVG Version: 6.00 Build 0)  -->
<svg version="1.1" id="Layer_1" xmlns="http://www.w3.org/2000/svg" xmlns:xlink="http://www.w3.org/1999/xlink" x="0px" y="0px"
	 viewBox="0 0 55 55" style="enable-background:new 0 0 55 55;" xml:space="preserve">
<style type="text/css">
	.st0{fill:#666767;}
	.st1{fill:none;stroke:#FFFFFF;stroke-width:2;stroke-linecap:round;stroke-linejoin:round;stroke-miterlimit:10;}
	.st2{fill:none;stroke:#FFFFFF;stroke-width:2;stroke-linecap:round;stroke-miterlimit:10;}
</style>
<circle class="st0" cx="27.5" cy="21.3" r="18.9"/>
<g>
	<polyline class="st1" points="21.2,19.1 27.7,14.2 33.8,19.1 	"/>
	<line class="st2" x1="27.7" y1="14.2" x2="27.7" y2="28.5"/>
</g>
<g>
	<path class="st0" d="M6.8,51H5v-7.1h1c1.4,0,2.6,0.3,2.6,2c0,0.5-0.2,1-0.7,1.4c0.8,0.2,1.4,1,1.4,1.8C9.3,50.4,8.1,51,6.8,51z
		 M6.3,44.7H5.9V47h0.4c0.9,0,1.6-0.2,1.6-1.2C7.8,44.9,7.1,44.7,6.3,44.7z M6.8,47.7H5.9v2.5h0.8c0.8,0,1.7-0.2,1.7-1.3
		C8.4,48,7.5,47.7,6.8,47.7z"/>
	<path class="st0" d="M13.5,51v-0.6c-0.3,0.5-1,0.7-1.5,0.7c-1.4,0-2.2-1.1-2.2-2.4c0-1.2,0.8-2.3,2.1-2.3c0.6,0,1.2,0.2,1.6,0.7
		v-0.6h0.9V51H13.5z M12.1,47.2c-0.9,0-1.4,0.8-1.4,1.6c0,0.8,0.5,1.6,1.4,1.6c0.9,0,1.5-0.7,1.5-1.6C13.5,47.9,13,47.2,12.1,47.2z"
		/>
	<path class="st0" d="M17.4,51.2c-1.4,0-2.4-1-2.4-2.3c0-1.4,1.1-2.4,2.5-2.4c0.4,0,0.8,0.1,1.2,0.3v1c-0.3-0.3-0.7-0.5-1.2-0.5
		c-1,0-1.6,0.7-1.6,1.6c0,0.9,0.6,1.6,1.5,1.6c0.4,0,0.9-0.2,1.2-0.5v1C18.2,51.1,17.8,51.2,17.4,51.2z"/>
	<path class="st0" d="M22.2,51l-1.6-2l-0.3,0.3V51h-0.9v-7.9h0.9v5.2l1.7-1.7h1.1l-1.9,1.9l2.1,2.6H22.2z"/>
	<path class="st0" d="M28.6,47.4V51h-0.9v-3.6h-0.5v-0.8h0.5v-2h0.9v2h0.8v0.8H28.6z"/>
	<path class="st0" d="M31.8,51.2c-1.3,0-2.4-1-2.4-2.3s1-2.3,2.4-2.3c1.3,0,2.4,1,2.4,2.3S33.1,51.2,31.8,51.2z M31.8,47.3
		c-0.8,0-1.5,0.7-1.5,1.5s0.6,1.5,1.5,1.5c0.8,0,1.5-0.7,1.5-1.5S32.6,47.3,31.8,47.3z"/>
	<path class="st0" d="M39.7,47.4V51h-0.9v-3.6h-0.5v-0.8h0.5v-2h0.9v2h0.8v0.8H39.7z"/>
	<path class="st0" d="M42.8,51.2c-1.3,0-2.4-1-2.4-2.3s1-2.3,2.4-2.3s2.4,1,2.4,2.3S44.2,51.2,42.8,51.2z M42.8,47.3
		c-0.8,0-1.5,0.7-1.5,1.5s0.6,1.5,1.5,1.5c0.8,0,1.5-0.7,1.5-1.5S43.7,47.3,42.8,47.3z"/>
	<path class="st0" d="M48.2,51.2c-0.7,0-1.2-0.3-1.6-0.6v3h-0.9v-7h0.9v0.6c0.4-0.5,1-0.7,1.6-0.7c1.3,0,2.1,1.1,2.1,2.3
		C50.4,50,49.6,51.2,48.2,51.2z M48,47.2c-0.9,0-1.4,0.8-1.4,1.6c0,0.8,0.5,1.6,1.4,1.6c0.9,0,1.5-0.7,1.5-1.6
		C49.5,47.9,48.9,47.2,48,47.2z"/>
</g>
</svg>
