<svg xmlns="http://www.w3.org/2000/svg" width="15.072" height="18.71" viewBox="0 0 15.072 18.71">
  <path id="Icon_awesome-toilet-paper" data-name="Icon awesome-toilet-paper" d="M4.678,18.71c-1.938,0-3.508-3.141-3.508-7.016V5.406C1.169,3.9.811,3.112.03.77A.585.585,0,0,1,.585,0H10.851A1.17,1.17,0,0,1,11.96.8a13,13,0,0,1,.9,4.606v6.288c0,3.055.865,5.61,2.209,7.016ZM3.508,10.524a.585.585,0,1,0,.585.585A.585.585,0,0,0,3.508,10.524Zm2.339,0a.585.585,0,1,0,.585.585A.585.585,0,0,0,5.847,10.524Zm2.339,0a.585.585,0,1,0,.585.585A.585.585,0,0,0,8.186,10.524Zm2.339,0a.585.585,0,1,0,.585.585A.585.585,0,0,0,10.525,10.524Z" transform="translate(15.072 18.71) rotate(180)" fill="#fff"/>
</svg>
