<svg xmlns="http://www.w3.org/2000/svg" width="40" height="80" viewBox="0 0 40 80">
  <g id="Control_Next_Button" data-name="Control Next Button" transform="translate(0 -0.258)">
    <path id="Area" d="M0,0H40V80H0Z" transform="translate(0 0.258)" fill="#e0e0ef" opacity="0.8"/>
    <g id="Layer_1" data-name="Layer 1" transform="translate(12.946 33.841)">
      <path id="arrow_back-2" data-name="arrow back-2" d="M13.6,6.328,8.743.232a.6.6,0,0,0-.959.021,1.03,1.03,0,0,0-.017,1.2l3.681,4.618H.69A.793.793,0,0,0,0,6.939a.793.793,0,0,0,.69.866H11.449L7.767,12.423a1.028,1.028,0,0,0,0,1.224.6.6,0,0,0,.976,0L13.6,7.554a1.028,1.028,0,0,0,0-1.227Z" fill="#2e3092"/>
    </g>
  </g>
</svg>
