<svg xmlns="http://www.w3.org/2000/svg" width="17.057" height="18.459" viewBox="0 0 17.057 18.459">
  <g id="LAW_Active" data-name="LAW Active" transform="translate(1574.54 3433.725)">
    <path id="Icon_map-lawyer" data-name="Icon map-lawyer" d="M23.052,28.843a.61.61,0,0,1-.608.611H11.07a.608.608,0,1,1,0-1.217H22.443A.607.607,0,0,1,23.052,28.843Zm-12.525.923H22.986v1.76H10.527Zm1.722-1.839h9.275C19.306,26.387,14.465,26.387,12.248,27.926Z" transform="translate(-1585 -3446.792)" fill="#fff" opacity="0.8"/>
    <path id="Icon_metro-hammer" data-name="Icon metro-hammer" d="M18.058,15.7,11.445,9.933l.491-.492a2.252,2.252,0,0,0,.652-1.454c.019-.009.038-.018.057-.028l1.98-1.238a.833.833,0,0,0-.044-1.106L11.138,2.161a.827.827,0,0,0-1.1-.044L8.8,4.1c-.01.019-.019.038-.028.057a2.24,2.24,0,0,0-1.45.654L5.449,6.693A2.251,2.251,0,0,0,4.8,8.146c-.019.009-.039.018-.057.028L2.76,9.413A.833.833,0,0,0,2.8,10.518l3.444,3.454a.828.828,0,0,0,1.1.044L8.585,12.03c.01-.018.019-.038.028-.057a2.239,2.239,0,0,0,1.45-.654l.544-.546,5.642,6.743a.661.661,0,0,0,.951.11l.968-.971A.665.665,0,0,0,18.058,15.7Z" transform="translate(-1575.807 -3435.653)" fill="#fff"/>
  </g>
</svg>
