<?xml version="1.0" encoding="utf-8"?>
<!-- Generator: Adobe Illustrator 22.0.0, SVG Export Plug-In . SVG Version: 6.00 Build 0)  -->
<svg version="1.1" id="Layer_1" xmlns="http://www.w3.org/2000/svg" xmlns:xlink="http://www.w3.org/1999/xlink" x="0px" y="0px"
	 viewBox="0 0 150 150" style="enable-background:new 0 0 150 150;" xml:space="preserve">
<style type="text/css">
	.st0{fill:#3374B9;}
	.st1{fill:#5ABBE2;}
	.st2{fill:#DA5EA2;}
	.st3{fill:#EF515D;}
	.st4{fill:#FFFFFF;}
	.st5{fill:#787878;}
	.st6{fill:#F0592B;}
	.st7{fill:#327D3D;}
	.st8{fill:#79AD42;}
	.st9{fill:#514D93;}
</style>
<path class="st8" d="M115.2,23H87.3v-7.8c0-1.1-0.5-2.1-1.3-2.7c-0.8-0.7-1.9-1-2.9-0.8L26.1,22.4c-1.7,0.3-2.9,1.8-2.9,3.5v98.1
	c0,1.7,1.2,3.2,2.9,3.5l56.9,10.7c0.2,0,0.4,0.1,0.7,0.1c0.8,0,1.6-0.3,2.3-0.8c0.8-0.7,1.3-1.7,1.3-2.7V127h27.9
	c6.4,0,11.6-5.2,11.6-11.6V34.6C126.8,28.2,121.6,23,115.2,23z M46.6,83.4c0,0.3-0.1,0.6-0.4,0.7c-1.7,1.1-3.9,1.6-6.6,1.6
	c-2.1,0-3.9-0.4-5.5-1.2c-1.6-0.8-2.8-2-3.7-3.5c-0.9-1.5-1.3-3.3-1.3-5.4c0-2.1,0.4-3.9,1.3-5.4c0.9-1.5,2.1-2.7,3.7-3.5
	c1.6-0.8,3.4-1.2,5.5-1.2c2.5,0,4.6,0.5,6.4,1.6c0.3,0.2,0.4,0.4,0.4,0.7v2c0,0.6-0.7,1-1.2,0.7c-0.5-0.3-1-0.5-1.6-0.6
	c-1.1-0.3-2.2-0.5-3.6-0.5c-2,0-3.6,0.6-4.8,1.7c-1.2,1.1-1.8,2.7-1.8,4.6c0,2,0.6,3.5,1.8,4.6c1.2,1.1,2.8,1.7,4.8,1.7
	c1.4,0,2.6-0.2,3.7-0.5c0.6-0.2,1.2-0.4,1.7-0.7c0.6-0.3,1.2,0.1,1.2,0.7V83.4z M60.6,84.3c-1.3,1-3.2,1.5-5.7,1.5
	c-1.2,0-2.4-0.1-3.5-0.3c-0.9-0.2-1.7-0.4-2.3-0.6c-0.3-0.1-0.5-0.4-0.5-0.8v-1.9c0-0.6,0.6-1,1.2-0.8c0.6,0.2,1.3,0.4,1.9,0.6
	c1.1,0.2,2.1,0.4,3,0.4c1.1,0,1.9-0.2,2.5-0.6c0.6-0.4,0.8-0.9,0.8-1.6c0-0.5-0.1-0.9-0.4-1.2c-0.3-0.3-0.7-0.6-1.2-0.9
	c-0.5-0.3-1.3-0.6-2.4-1.1c-1.8-0.7-3.1-1.6-4-2.5c-0.8-0.9-1.2-2.1-1.2-3.4c0-1.1,0.3-2.1,0.9-2.9c0.6-0.8,1.4-1.5,2.5-2
	c1.1-0.5,2.3-0.7,3.7-0.7c1.2,0,2.2,0.1,3.1,0.3c0.7,0.1,1.4,0.4,2.1,0.6c0.3,0.1,0.5,0.4,0.5,0.8v1.8c0,0.6-0.6,1-1.1,0.8
	c-1.3-0.5-2.5-0.7-3.8-0.7c-1,0-1.9,0.2-2.5,0.5c-0.6,0.4-0.9,0.9-0.9,1.6c0,0.5,0.1,0.9,0.4,1.2c0.3,0.3,0.7,0.6,1.2,0.8
	c0.5,0.2,1.3,0.6,2.5,1.1c1.3,0.6,2.4,1.1,3.1,1.6c0.7,0.5,1.3,1.1,1.6,1.8c0.4,0.7,0.5,1.6,0.5,2.6C62.5,81.9,61.9,83.3,60.6,84.3z
	 M74.5,85.3h-3c-0.3,0-0.7-0.2-0.8-0.5L63.5,67c-0.2-0.6,0.2-1.2,0.8-1.2H67c0.4,0,0.7,0.2,0.8,0.5l5.2,13.3l5.2-13.3
	c0.1-0.3,0.4-0.5,0.8-0.5h2.7c0.6,0,1,0.6,0.8,1.2l-7.1,17.8C75.1,85.1,74.8,85.3,74.5,85.3z M121,115.4c0,3.2-2.6,5.8-5.8,5.8H87.3
	V28.8h27.9c3.2,0,5.8,2.6,5.8,5.8V115.4z"/>
<path class="st7" d="M106.7,43h-7.1c-2,0-3.6,1.6-3.6,3.6c0,2,1.6,3.6,3.6,3.6h7.1c2,0,3.6-1.6,3.6-3.6
	C110.2,44.6,108.6,43,106.7,43z"/>
<path class="st7" d="M106.7,62h-7.1c-2,0-3.6,1.6-3.6,3.6c0,2,1.6,3.6,3.6,3.6h7.1c2,0,3.6-1.6,3.6-3.6
	C110.2,63.5,108.6,62,106.7,62z"/>
<path class="st7" d="M106.7,80.9h-7.1c-2,0-3.6,1.6-3.6,3.6s1.6,3.6,3.6,3.6h7.1c2,0,3.6-1.6,3.6-3.6S108.6,80.9,106.7,80.9z"/>
<path class="st7" d="M106.7,99.9h-7.1c-2,0-3.6,1.6-3.6,3.6c0,2,1.6,3.6,3.6,3.6h7.1c2,0,3.6-1.6,3.6-3.6
	C110.2,101.5,108.6,99.9,106.7,99.9z"/>
</svg>
