<?xml version="1.0" encoding="utf-8"?>
<!-- Generator: Adobe Illustrator 22.0.0, SVG Export Plug-In . SVG Version: 6.00 Build 0)  -->
<svg version="1.1" id="Layer_1" xmlns="http://www.w3.org/2000/svg" xmlns:xlink="http://www.w3.org/1999/xlink" x="0px" y="0px"
	 viewBox="0 0 150 150" style="enable-background:new 0 0 150 150;" xml:space="preserve">
<style type="text/css">
	.st0{fill:#3374B9;}
	.st1{fill:#5ABBE2;}
	.st2{fill:#DA5EA2;}
	.st3{fill:#EF515D;}
	.st4{fill:#FFFFFF;}
	.st5{fill:#787878;}
	.st6{fill:#F0592B;}
	.st7{fill:#327D3D;}
	.st8{fill:#79AD42;}
	.st9{fill:#514D93;}
</style>
<g>
	<path class="st3" d="M30.2,25.9v98.1c0,4.2,3.4,7.6,7.6,7.6h74.3c4.2,0,7.6-3.4,7.6-7.6V49.9c0-2-0.8-4-2.2-5.4l-24-24
		c-1.4-1.4-3.4-2.2-5.4-2.2H37.8C33.6,18.3,30.2,21.7,30.2,25.9z"/>
	<g>
		<path class="st4" d="M43.1,96.2V66.6H51c2.9,0,4.9,0.1,5.8,0.4c1.4,0.5,2.6,1.4,3.6,2.9c0.9,1.5,1.4,3.4,1.4,5.8
			c0,2.1-0.4,3.9-1.2,5.4c-0.8,1.4-1.8,2.5-3,3.1c-1.2,0.6-3.3,0.9-6.3,0.9H48v11.2H43.1z M48,71.6V80h2.7c1.8,0,3.1-0.1,3.7-0.4
			c0.7-0.3,1.2-0.7,1.6-1.4c0.4-0.7,0.6-1.5,0.6-2.5c0-1-0.2-1.8-0.6-2.5c-0.4-0.7-1-1.1-1.6-1.4c-0.6-0.2-2-0.3-4-0.3H48z"/>
		<path class="st4" d="M65.7,66.6h9c2.3,0,4,0.3,5.1,0.8c1.2,0.5,2.2,1.4,3.2,2.6c1,1.2,1.7,2.8,2.3,4.7c0.6,1.9,0.8,4.3,0.8,7.1
			c0,2.6-0.3,4.8-0.9,6.7c-0.6,1.9-1.3,3.4-2.2,4.5c-0.9,1.1-2,1.9-3.2,2.5c-1.3,0.6-2.9,0.8-4.9,0.8h-9.2V66.6z M70.6,71.6v19.6
			h3.7c1.6,0,2.7-0.1,3.4-0.4c0.7-0.3,1.3-0.7,1.7-1.3c0.5-0.6,0.8-1.5,1.1-2.8s0.4-3,0.4-5.1c0-2.2-0.2-3.9-0.5-5.2
			c-0.3-1.3-0.8-2.3-1.4-3c-0.6-0.7-1.4-1.2-2.3-1.4c-0.7-0.2-2-0.3-4-0.3H70.6z"/>
		<path class="st4" d="M90.3,96.2V66.6h16.7v5H95.2v7h10.2v5H95.2v12.6H90.3z"/>
	</g>
</g>
</svg>
