<?xml version="1.0" encoding="utf-8"?>
<!-- Generator: Adobe Illustrator 22.0.0, SVG Export Plug-In . SVG Version: 6.00 Build 0)  -->
<svg version="1.1" id="Layer_1" xmlns="http://www.w3.org/2000/svg" xmlns:xlink="http://www.w3.org/1999/xlink" x="0px" y="0px"
	 viewBox="0 0 150 150" style="enable-background:new 0 0 150 150;" xml:space="preserve">
<style type="text/css">
	.st0{fill:#3374B9;}
	.st1{fill:#5ABBE2;}
	.st2{fill:#DA5EA2;}
	.st3{fill:#EF515D;}
	.st4{fill:#FFFFFF;}
	.st5{fill:#787878;}
	.st6{fill:#F0592B;}
	.st7{fill:#327D3D;}
	.st8{fill:#79AD42;}
	.st9{fill:#514D93;}
</style>
<g>
	<path class="st9" d="M117.6,44.5l-24-24c-1.4-1.4-3.4-2.2-5.4-2.2h-0.7v10.2H75v10.2h12.5v10.2H75v10.2h12.5v10.2H75v10.2h12.5V90
		H75V79.8H62.5V69.6H75V59.3H62.5V49.1H75V38.8H62.5V28.6H75V18.3H37.8c-4.2,0-7.6,3.4-7.6,7.6v98.1c0,4.2,3.4,7.6,7.6,7.6h74.3
		c4.2,0,7.6-3.4,7.6-7.6V49.9C119.8,47.9,119,46,117.6,44.5z M72.6,125.2H56v-3.1l10.3-14.2H56.2v-3.8H72v3.1l-10.3,14.2h10.9V125.2
		z M79.7,125.2h-4.6v-21.1h4.6V125.2z M97.5,116.5c-1.4,1.2-3.3,1.8-5.8,1.8h-4.3v6.9h-4.6v-21.1h8.9c2.4,0,4.3,0.6,5.7,1.9
		c1.4,1.3,2.1,3,2.1,5.2C99.7,113.5,99,115.3,97.5,116.5z"/>
	<path class="st9" d="M94,108.7c-0.7-0.5-1.6-0.7-2.9-0.7h-3.6v6.6h3.6c2.6,0,3.9-1.1,3.9-3.3C95,110,94.7,109.1,94,108.7z"/>
</g>
</svg>
