<?xml version="1.0" encoding="utf-8"?>
<!-- Generator: Adobe Illustrator 22.0.0, SVG Export Plug-In . SVG Version: 6.00 Build 0)  -->
<svg version="1.1" id="Layer_1" xmlns="http://www.w3.org/2000/svg" xmlns:xlink="http://www.w3.org/1999/xlink" x="0px" y="0px"
	 viewBox="0 0 150 150" style="enable-background:new 0 0 150 150;" xml:space="preserve">
<style type="text/css">
	.st0{fill:#3374B9;}
	.st1{fill:#5ABBE2;}
	.st2{fill:#DA5EA2;}
	.st3{fill:#EF515D;}
	.st4{fill:#FFFFFF;}
	.st5{fill:#787878;}
	.st6{fill:#F0592B;}
	.st7{fill:#327D3D;}
	.st8{fill:#79AD42;}
	.st9{fill:#514D93;}
</style>
<path class="st2" d="M117.6,44.5l-24-24c-1.4-1.4-3.4-2.2-5.4-2.2H37.8c-4.2,0-7.6,3.4-7.6,7.6v98.1c0,4.2,3.4,7.6,7.6,7.6h74.3
	c4.2,0,7.6-3.4,7.6-7.6V49.9C119.8,47.9,119,46,117.6,44.5z M90.3,45.1c1-1.2,2.7-1.4,4-0.5c3.2,2.5,5.8,5.7,7.6,9.4
	c0.7,1.4,0.1,3.1-1.3,3.8c-0.4,0.2-0.8,0.3-1.2,0.3c-1,0-2-0.6-2.5-1.6c-1.4-2.9-3.5-5.4-6-7.4C89.6,48.1,89.4,46.3,90.3,45.1z
	 M86.7,63.3c0.7-1.4,2.4-2,3.8-1.3l2.9,1.4c1,0.5,1.6,1.5,1.6,2.5c0,1.1-0.6,2.1-1.6,2.5l-10.1,4.9c-0.4,0.2-0.8,0.3-1.2,0.3
	c-1,0-2-0.6-2.5-1.6c-0.7-1.4-0.1-3.1,1.3-3.8l5.8-2.9C86.3,64.9,86.4,64.1,86.7,63.3z M71.3,39.5c3.9-0.9,8.2-1,12.1-0.1
	c1.5,0.3,2.5,1.8,2.2,3.4c-0.3,1.5-1.8,2.5-3.4,2.2c-3.1-0.7-6.5-0.6-9.6,0.1c-0.2,0.1-0.4,0.1-0.7,0.1c-1.3,0-2.4-0.9-2.7-2.2
	C68.8,41.4,69.8,39.9,71.3,39.5z M67.2,55.2c0-1,0.5-1.9,1.3-2.4c0.8-0.5,1.9-0.6,2.7-0.1l9.1,4.5c1.4,0.7,2,2.4,1.3,3.8
	c-0.5,1-1.5,1.6-2.5,1.6c-0.4,0-0.8-0.1-1.2-0.3l-6.7-3.3c-0.4,0.2-0.7,0.2-1.2,0.2c-1.6,0-2.8-1.3-2.8-2.8V55.2z M67.2,67.6
	c0-1.6,1.3-2.8,2.8-2.8c1.6,0,2.8,1.3,2.8,2.8v5.7c0.7,0.2,1.2,0.7,1.6,1.4c0.7,1.4,0.1,3.1-1.3,3.8l-1.9,0.9
	c-0.4,0.2-0.8,0.3-1.2,0.3c-0.5,0-1-0.1-1.5-0.4c-0.8-0.5-1.3-1.4-1.3-2.4V67.6z M53,54.4c1.7-3.7,4.3-6.9,7.5-9.5
	c1.2-1,3-0.8,4,0.4c1,1.2,0.8,3-0.4,4c-2.5,2-4.6,4.6-5.9,7.5c-0.5,1-1.5,1.6-2.6,1.6c-0.4,0-0.8-0.1-1.2-0.3
	C52.9,57.4,52.3,55.8,53,54.4z M53.1,77.9c-1.8-3.7-2.7-7.6-2.7-11.8c0-1.6,1.2-2.8,2.8-2.8c0,0,0,0,0,0c1.5,0,2.8,1.3,2.8,2.8
	c0,3.3,0.7,6.4,2.2,9.3c0.7,1.4,0.1,3.1-1.3,3.8c-0.4,0.2-0.8,0.3-1.2,0.3C54.6,79.5,53.6,78.9,53.1,77.9z M74.9,123.6
	c-2,1.4-4.7,2.1-8,2.1c-2.3,0-4.3-0.5-6.1-1.4c-1.8-0.9-3.1-2.2-4.1-3.9c-1-1.7-1.4-3.7-1.4-5.9c0-2.3,0.5-4.3,1.4-6
	c1-1.7,2.3-3,4.1-3.9c1.8-0.9,3.8-1.4,6.1-1.4c1.6,0,2.9,0.2,4.1,0.5c1.2,0.3,2.3,0.8,3.3,1.5v4.5c-0.9-0.7-1.9-1.3-3.1-1.6
	c-1.2-0.3-2.5-0.5-4-0.5c-1.4,0-2.6,0.3-3.7,0.8c-1.1,0.6-2,1.4-2.6,2.4c-0.6,1-1,2.3-1,3.7c0,1.4,0.3,2.7,0.9,3.7
	c0.6,1.1,1.4,1.9,2.5,2.4c1.1,0.6,2.3,0.9,3.7,0.9c1.3,0,2.4-0.2,3.3-0.7v-4.2h-3.5v-3.4h8V123.6z M74.9,90.4
	c-0.3,1.3-1.5,2.2-2.7,2.2c-0.2,0-0.4,0-0.6-0.1c-3.9-0.9-7.7-2.7-10.9-5.2c-1.2-1-1.4-2.7-0.5-4c1-1.2,2.7-1.4,4-0.5
	c2.5,2,5.5,3.4,8.6,4.1C74.3,87.3,75.3,88.9,74.9,90.4z M82.2,125.2h-4.7v-21.5h4.7V125.2z M83,92.5c-1.3,0-2.4-0.9-2.7-2.2
	c-0.4-1.5,0.6-3,2.1-3.4c3.1-0.7,6.1-2.2,8.6-4.2c1.2-1,3-0.8,4,0.4c1,1.2,0.8,3-0.4,4c-3.2,2.5-6.9,4.4-10.9,5.3
	C83.4,92.5,83.2,92.5,83,92.5z M100.4,107.6H90.1v5h7.5v3.6h-7.5v8.9h-4.7v-21.5h14.9V107.6z M104.7,65.9c0,4.2-0.9,8.2-2.7,11.9
	c-0.5,1-1.5,1.6-2.5,1.6c-0.4,0-0.8-0.1-1.2-0.3c-1.4-0.7-2-2.4-1.3-3.8c1.4-2.9,2.1-6.1,2.1-9.3c0-1.6,1.3-3,2.8-3
	c1.6,0,2.8,1.1,2.8,2.7V65.9z"/>
</svg>
