<?xml version="1.0" encoding="utf-8"?>
<!-- Generator: Adobe Illustrator 22.0.0, SVG Export Plug-In . SVG Version: 6.00 Build 0)  -->
<svg version="1.1" id="Layer_1" xmlns="http://www.w3.org/2000/svg" xmlns:xlink="http://www.w3.org/1999/xlink" x="0px" y="0px"
	 viewBox="0 0 150 150" style="enable-background:new 0 0 150 150;" xml:space="preserve">
<style type="text/css">
	.st0{fill:#3374B9;}
	.st1{fill:#5ABBE2;}
	.st2{fill:#DA5EA2;}
	.st3{fill:#EF515D;}
	.st4{fill:#FFFFFF;}
	.st5{fill:#787878;}
	.st6{fill:#F0592B;}
	.st7{fill:#327D3D;}
	.st8{fill:#79AD42;}
	.st9{fill:#514D93;}
</style>
<g>
	<rect x="65.2" y="41.6" class="st5" width="11.7" height="11.7"/>
	<path class="st5" d="M100.1,27.1l-6.6-6.6c-1.4-1.4-3.2-2.1-5.1-2.2V30h11.7V27.1z"/>
	<rect x="41.9" y="18.3" class="st5" width="11.7" height="11.7"/>
	<rect x="76.8" y="30" class="st5" width="11.7" height="11.7"/>
	<rect x="65.2" y="18.3" class="st5" width="11.7" height="11.7"/>
	<rect x="30.2" y="30" class="st5" width="11.7" height="11.7"/>
	<rect x="41.9" y="41.6" class="st5" width="11.7" height="11.7"/>
	<rect x="53.5" y="30" class="st5" width="11.7" height="11.7"/>
	<path class="st5" d="M57.1,109c-0.7-0.5-1.6-0.7-2.8-0.7h-3.6v6.4h3.6c2.5,0,3.8-1.1,3.8-3.2C58.2,110.3,57.8,109.5,57.1,109z
		 M57.1,109c-0.7-0.5-1.6-0.7-2.8-0.7h-3.6v6.4h3.6c2.5,0,3.8-1.1,3.8-3.2C58.2,110.3,57.8,109.5,57.1,109z M119.8,53.3v-3.3
		c0-2-0.8-3.9-2.3-5.4l-2.9-2.9h-2.9v-2.8L103,30h-2.8v11.7H88.5v11.7H76.8v11.7H65.2V53.3H53.5v11.7H41.9V53.3H30.2v70.8
		c0,4.2,3.4,7.6,7.6,7.6h74.3c4.2,0,7.6-3.4,7.6-7.6V64.9h-8V53.3H119.8z M100.3,46.1c4.2,0,7.6,3.4,7.6,7.6c0,4.2-3.4,7.6-7.6,7.6
		c-4.2,0-7.6-3.4-7.6-7.6C92.7,49.5,96,46.1,100.3,46.1z M60.6,116.7c-1.4,1.2-3.3,1.8-5.6,1.8h-4.2v6.7h-4.5v-20.7H55
		c2.4,0,4.2,0.6,5.6,1.8c1.4,1.2,2.1,2.9,2.1,5.1C62.7,113.8,62,115.5,60.6,116.7z M82.3,125.2H78l-8.7-13.4v13.4h-4.5v-20.7h4.4
		l8.6,13.4v-13.4h4.5V125.2z M103.7,123.6c-2,1.4-4.5,2-7.7,2c-2.2,0-4.2-0.5-5.9-1.3c-1.7-0.9-3-2.1-3.9-3.8
		c-0.9-1.6-1.4-3.5-1.4-5.7c0-2.2,0.5-4.1,1.4-5.7c0.9-1.6,2.3-2.9,3.9-3.8c1.7-0.9,3.6-1.3,5.9-1.3c1.5,0,2.8,0.2,4,0.5
		c1.1,0.3,2.2,0.8,3.2,1.5v4.3c-0.9-0.7-1.8-1.2-3-1.6c-1.1-0.3-2.4-0.5-3.8-0.5c-1.3,0-2.5,0.3-3.6,0.8c-1.1,0.5-1.9,1.3-2.5,2.3
		c-0.6,1-0.9,2.2-0.9,3.5c0,1.4,0.3,2.6,0.9,3.6c0.6,1,1.4,1.8,2.4,2.4c1,0.5,2.2,0.8,3.6,0.8c1.2,0,2.3-0.2,3.2-0.7v-4H96v-3.3h7.7
		V123.6z M113.9,86.5c0.8,0.5,1.2,1.4,1.2,2.3v6.4c0,1.6-1.3,2.9-2.9,2.9H43.4c-1.6,0-2.9-1.3-2.9-2.9v-5.3c0-0.8,0.3-1.5,0.9-2.1
		l17.8-16.9c0.9-0.9,2.3-1.1,3.4-0.5l18.1,10.1c0.9,0.5,1.9,0.5,2.8,0l10.9-6c1-0.5,2.2-0.5,3.1,0.2L113.9,86.5z M54.4,108.3h-3.6
		v6.4h3.6c2.5,0,3.8-1.1,3.8-3.2c0-1.2-0.3-2.1-1-2.5C56.5,108.5,55.5,108.3,54.4,108.3z M57.1,109c-0.7-0.5-1.6-0.7-2.8-0.7h-3.6
		v6.4h3.6c2.5,0,3.8-1.1,3.8-3.2C58.2,110.3,57.8,109.5,57.1,109z M57.1,109c-0.7-0.5-1.6-0.7-2.8-0.7h-3.6v6.4h3.6
		c2.5,0,3.8-1.1,3.8-3.2C58.2,110.3,57.8,109.5,57.1,109z"/>
</g>
</svg>
