<?xml version="1.0" encoding="utf-8"?>
<!-- Generator: Adobe Illustrator 22.0.0, SVG Export Plug-In . SVG Version: 6.00 Build 0)  -->
<svg version="1.1" id="Layer_1" xmlns="http://www.w3.org/2000/svg" xmlns:xlink="http://www.w3.org/1999/xlink" x="0px" y="0px"
	 viewBox="0 0 150 150" style="enable-background:new 0 0 150 150;" xml:space="preserve">
<style type="text/css">
	.st0{fill:#3374B9;}
	.st1{fill:#5ABBE2;}
	.st2{fill:#DA5EA2;}
	.st3{fill:#EF515D;}
	.st4{fill:#FFFFFF;}
	.st5{fill:#787878;}
	.st6{fill:#F0592B;}
	.st7{fill:#327D3D;}
	.st8{fill:#79AD42;}
	.st9{fill:#514D93;}
</style>
<g>
	<path class="st0" d="M106.9,42.8l-7.2,0c-2,0-3.6,1.6-3.6,3.6c0,2,1.6,3.6,3.6,3.6l7.2,0c2,0,3.6-1.6,3.6-3.6
		C110.5,44.4,108.9,42.8,106.9,42.8z"/>
	<path class="st0" d="M106.9,61.9l-7.2,0c-2,0-3.6,1.6-3.6,3.6c0,2,1.6,3.6,3.6,3.6l7.2,0c2,0,3.6-1.6,3.6-3.6
		C110.4,63.5,108.8,61.9,106.9,61.9z"/>
	<path class="st0" d="M106.9,81h-7.2c-2,0-3.6,1.6-3.6,3.6s1.6,3.6,3.6,3.6h7.2c2,0,3.6-1.6,3.6-3.6S108.8,81,106.9,81z"/>
	<path class="st0" d="M106.9,100.1h-7.2c-2,0-3.6,1.6-3.6,3.6c0,2,1.6,3.6,3.6,3.6h7.2c2,0,3.6-1.6,3.6-3.6
		C110.4,101.7,108.8,100.1,106.9,100.1z"/>
	<path class="st0" d="M115.5,22.7H87.3v-7.8c0-1.1-0.5-2.1-1.3-2.8c-0.8-0.7-1.9-1-2.9-0.8L25.8,22.1c-1.7,0.3-2.9,1.8-2.9,3.5v98.8
		c0,1.7,1.2,3.2,2.9,3.5l57.3,10.7c0.2,0,0.4,0.1,0.7,0.1c0.8,0,1.6-0.3,2.3-0.8c0.8-0.7,1.3-1.7,1.3-2.8v-7.8h28.1
		c6.4,0,11.7-5.2,11.7-11.7V34.3C127.1,27.9,121.9,22.7,115.5,22.7z M67.8,90.2c-0.1,0.6-0.7,1.1-1.4,1.1H61c-0.6,0-1.2-0.4-1.3-1
		l-3.9-13.4c-0.4-1.3-2.3-1.3-2.7,0l-4.2,13.5c-0.2,0.6-0.7,1-1.3,1h-5.4c-0.6,0-1.2-0.4-1.4-1.1l-7-29.9c-0.2-0.9,0.5-1.7,1.4-1.7
		h5.1c0.7,0,1.2,0.5,1.4,1.1l4.1,18.6l4.4-14.9c0-0.1,0.1-0.3,0.1-0.4v-4.4h5.6c0.6,0,1.2,0.4,1.3,1l3.9,13.5
		c0.4,1.4,2.4,1.3,2.7-0.1l3.1-13.4c0.1-0.6,0.7-1.1,1.4-1.1h5.2c0.9,0,1.6,0.8,1.4,1.7L67.8,90.2z M121.2,115.7
		c0,3.2-2.6,5.8-5.8,5.8H87.3V28.5h28.1c3.2,0,5.8,2.6,5.8,5.8V115.7z"/>
</g>
</svg>
