<?xml version="1.0" encoding="utf-8"?>
<!-- Generator: Adobe Illustrator 22.0.0, SVG Export Plug-In . SVG Version: 6.00 Build 0)  -->
<svg version="1.1" id="Layer_1" xmlns="http://www.w3.org/2000/svg" xmlns:xlink="http://www.w3.org/1999/xlink" x="0px" y="0px"
	 viewBox="0 0 150 150" style="enable-background:new 0 0 150 150;" xml:space="preserve">
<style type="text/css">
	.st0{fill:#3374B9;}
	.st1{fill:#5ABBE2;}
	.st2{fill:#DA5EA2;}
	.st3{fill:#EF515D;}
	.st4{fill:#FFFFFF;}
	.st5{fill:#787878;}
	.st6{fill:#F0592B;}
	.st7{fill:#327D3D;}
	.st8{fill:#79AD42;}
	.st9{fill:#514D93;}
</style>
<g>
	<path class="st1" d="M71,108.3h-3.5v6.4H71c2.5,0,3.8-1.1,3.8-3.2c0-1.2-0.3-2-1-2.5C73.1,108.5,72.1,108.3,71,108.3z"/>
	<path class="st1" d="M117.6,44.5l-24-24c-1.4-1.4-3.4-2.2-5.4-2.2H37.8c-4.2,0-7.6,3.4-7.6,7.6v98.1c0,4.2,3.4,7.6,7.6,7.6h74.3
		c4.2,0,7.6-3.4,7.6-7.6V49.9C119.8,47.9,119,46,117.6,44.5z M100.2,46.1c4.2,0,7.6,3.4,7.6,7.6s-3.4,7.6-7.6,7.6s-7.6-3.4-7.6-7.6
		S96.1,46.1,100.2,46.1z M59.9,119.4c0,1.9-0.5,3.4-1.6,4.5c-1.1,1.1-2.6,1.7-4.5,1.7c-0.6,0-1.3-0.1-1.9-0.2
		c-0.7-0.1-1.2-0.3-1.6-0.4v-3.9c0.3,0.1,0.7,0.2,1.1,0.3c0.5,0.1,0.9,0.1,1.4,0.1c0.9,0,1.5-0.2,2-0.6c0.4-0.4,0.6-1.1,0.6-2v-14.5
		h4.5V119.4z M77.2,116.7c-1.4,1.2-3.3,1.8-5.6,1.8h-4.2v6.7h-4.5v-20.7h8.7c2.3,0,4.2,0.6,5.6,1.8c1.4,1.2,2.1,2.9,2.1,5.1
		C79.3,113.8,78.6,115.5,77.2,116.7z M99.7,123.6c-2,1.3-4.5,2-7.7,2c-2.2,0-4.2-0.4-5.9-1.3c-1.7-0.9-3-2.1-3.9-3.7
		c-0.9-1.6-1.4-3.5-1.4-5.7c0-2.2,0.5-4.1,1.4-5.7c0.9-1.6,2.2-2.9,3.9-3.8c1.7-0.9,3.6-1.3,5.9-1.3c1.5,0,2.8,0.2,4,0.5
		c1.2,0.3,2.2,0.8,3.2,1.4v4.3c-0.9-0.7-1.9-1.2-3-1.6c-1.1-0.3-2.4-0.5-3.8-0.5c-1.3,0-2.5,0.3-3.6,0.8c-1.1,0.5-1.9,1.3-2.5,2.3
		c-0.6,1-0.9,2.2-0.9,3.5c0,1.4,0.3,2.5,0.8,3.6c0.6,1,1.4,1.8,2.4,2.4c1,0.6,2.2,0.8,3.5,0.8c1.2,0,2.3-0.2,3.2-0.6v-4H92v-3.3h7.7
		V123.6z M115.1,95.1c0,1.6-1.3,2.9-2.9,2.9H43.4c-1.6,0-2.9-1.3-2.9-2.9v-5.3c0-0.8,0.3-1.6,0.9-2.1l17.8-16.9
		c0.9-0.9,2.3-1,3.4-0.4l18.1,10.1c0.9,0.5,1.9,0.5,2.8,0l10.9-6c1-0.5,2.2-0.5,3.1,0.2l16.3,11.7c0.8,0.5,1.2,1.4,1.2,2.4V95.1z"/>
</g>
</svg>
