<?xml version="1.0" encoding="utf-8"?>
<!-- Generator: Adobe Illustrator 22.0.0, SVG Export Plug-In . SVG Version: 6.00 Build 0)  -->
<svg version="1.1" id="Layer_1" xmlns="http://www.w3.org/2000/svg" xmlns:xlink="http://www.w3.org/1999/xlink" x="0px" y="0px"
	 viewBox="0 0 150 150" style="enable-background:new 0 0 150 150;" xml:space="preserve">
<style type="text/css">
	.st0{fill:#3374B9;}
	.st1{fill:#5ABBE2;}
	.st2{fill:#DA5EA2;}
	.st3{fill:#EF515D;}
	.st4{fill:#FFFFFF;}
	.st5{fill:#787878;}
	.st6{fill:#F0592B;}
	.st7{fill:#327D3D;}
	.st8{fill:#79AD42;}
	.st9{fill:#514D93;}
</style>
<g>
	<path class="st7" d="M115.2,23H87.3v-7.8c0-1.1-0.5-2.1-1.3-2.7c-0.8-0.7-1.9-1-2.9-0.8L26.1,22.4c-1.7,0.3-2.9,1.8-2.9,3.5v98.1
		c0,1.7,1.2,3.2,2.9,3.5l56.9,10.7c0.2,0,0.4,0.1,0.7,0.1c0.8,0,1.6-0.3,2.3-0.8c0.8-0.7,1.3-1.7,1.3-2.7V127h27.9
		c6.4,0,11.6-5.2,11.6-11.6V34.6C126.8,28.2,121.6,23,115.2,23z M68.8,92.9h-5.1c-0.8,0-1.5-0.4-1.9-1l-5.5-7.4
		c-1-1.3-2.9-1.3-3.9,0L46.9,92c-0.5,0.6-1.2,1-1.9,1h-5.1c-2,0-3.1-2.3-1.9-3.9l9.8-12.9c0.6-0.9,0.7-2,0-2.9l-9.2-12.3
		c-1.2-1.6-0.1-3.9,1.9-3.9h5c0.8,0,1.5,0.4,1.9,1l5.1,6.8c1,1.3,2.9,1.3,3.9,0l5.1-6.8c0.5-0.6,1.2-1,1.9-1h5c2,0,3.1,2.3,1.9,3.9
		l-9.2,12.3c-0.6,0.9-0.6,2,0,2.9l9.7,12.9C72,90.7,70.8,92.9,68.8,92.9z M121,115.4c0,3.2-2.6,5.8-5.8,5.8H87.3V28.8h27.9
		c3.2,0,5.8,2.6,5.8,5.8V115.4z"/>
	<path class="st7" d="M106.7,43h-7.1c-2,0-3.6,1.6-3.6,3.6c0,2,1.6,3.6,3.6,3.6h7.1c2,0,3.6-1.6,3.6-3.6
		C110.2,44.6,108.6,43,106.7,43z"/>
	<path class="st7" d="M106.7,62h-7.1c-2,0-3.6,1.6-3.6,3.6c0,2,1.6,3.6,3.6,3.6h7.1c2,0,3.6-1.6,3.6-3.6
		C110.2,63.5,108.6,62,106.7,62z"/>
	<path class="st7" d="M106.7,80.9h-7.1c-2,0-3.6,1.6-3.6,3.6s1.6,3.6,3.6,3.6h7.1c2,0,3.6-1.6,3.6-3.6S108.6,80.9,106.7,80.9z"/>
	<path class="st7" d="M106.7,99.9h-7.1c-2,0-3.6,1.6-3.6,3.6c0,2,1.6,3.6,3.6,3.6h7.1c2,0,3.6-1.6,3.6-3.6
		C110.2,101.5,108.6,99.9,106.7,99.9z"/>
</g>
</svg>
