<svg id="LOGO_REIC" data-name="LOGO REIC" xmlns="http://www.w3.org/2000/svg" width="301.977" height="64.181" viewBox="0 0 301.977 64.181">
  <g id="Group_9" data-name="Group 9" transform="translate(124.549 14.608)">
    <rect id="Rectangle_8" data-name="Rectangle 8" width="176.856" height="1.185" transform="translate(0 18.611)" fill="#2e3092"/>
    <path id="Path_691" data-name="Path 691" d="M41.417,22.6H39.609l-1.467-3.558h-1.9V22.6H34.575V13.606h3.009q3.834,0,3.832,3.014A2.2,2.2,0,0,1,39.8,18.727l1.617,3.87m-3.3-4.9a1.945,1.945,0,0,0,1.118-.3,1.129,1.129,0,0,0,.5-.989q0-1.309-1.713-1.309H36.242v2.6Z" transform="translate(-34.255 10.552)" fill="#2e3092"/>
    <path id="Path_692" data-name="Path 692" d="M39.595,19.727a1.4,1.4,0,0,0,1.434-1.068l1.459.208a2.825,2.825,0,0,1-2.972,2.095A2.942,2.942,0,0,1,37.172,20a3.627,3.627,0,0,1-.786-2.444,3.525,3.525,0,0,1,.815-2.423,2.93,2.93,0,0,1,2.336-.977,2.657,2.657,0,0,1,2.307,1.068,4.229,4.229,0,0,1,.669,2.527H37.965c0,1.318.54,1.974,1.629,1.974m-1.629-2.968h2.98a1.519,1.519,0,0,0-1.492-1.492C38.647,15.267,38.148,15.766,37.965,16.759Z" transform="translate(-28.539 12.291)" fill="#2e3092"/>
    <path id="Path_693" data-name="Path 693" d="M42.372,19.869a3.524,3.524,0,0,1-.715.723,2.761,2.761,0,0,1-1.542.387A2.138,2.138,0,0,1,38.6,20.4a1.892,1.892,0,0,1-.619-1.459c0-1.1.8-1.787,2.4-2.07a8.847,8.847,0,0,1,1.513-.116h.457v-.507c0-.611-.453-.914-1.368-.914-.786,0-1.247.3-1.376.919l-1.347-.191c.283-1.264,1.28-1.891,3-1.891,1.779,0,2.669.715,2.669,2.153v2.818a4.328,4.328,0,0,0,.187,1.658H42.534a1.393,1.393,0,0,1-.116-.495c-.012-.067-.029-.216-.046-.441m-.017-1.97v-.27a6.2,6.2,0,0,0-1.675.17c-.678.2-1.014.574-1.014,1.122,0,.586.362.877,1.089.877a1.4,1.4,0,0,0,1.417-.906A2.522,2.522,0,0,0,42.356,17.9Z" transform="translate(-23.498 12.345)" fill="#2e3092"/>
    <rect id="Rectangle_9" data-name="Rectangle 9" width="1.58" height="8.68" transform="translate(21.644 24.469)" fill="#2e3092"/>
    <path id="Path_694" data-name="Path 694" d="M47.274,22.6H41.442V13.606h5.833v1.336H43.108v2.483h3.349v1.336H43.108v2.5h4.166V22.6" transform="translate(-12.579 10.551)" fill="#2e3092"/>
    <path id="Path_695" data-name="Path 695" d="M47.049,16.111a1.009,1.009,0,0,0-1.106-.74c-.732,0-1.1.22-1.1.669,0,.3.511.549,1.534.748a7.536,7.536,0,0,1,1.151.3,1.97,1.97,0,0,1,.894.723,1.677,1.677,0,0,1,.291.952,1.975,1.975,0,0,1-.848,1.717,3.306,3.306,0,0,1-1.912.511,4.406,4.406,0,0,1-1.887-.395,1.575,1.575,0,0,1-1.081-1.438l1.467-.254q.181.873,1.546.873c.744,0,1.118-.233,1.118-.69,0-.362-.482-.632-1.442-.811A3.039,3.039,0,0,1,43.6,17.229a1.493,1.493,0,0,1-.266-.835q0-2.22,2.623-2.22a3.011,3.011,0,0,1,1.584.4,2.014,2.014,0,0,1,.96,1.284l-1.455.249" transform="translate(-7.699 12.345)" fill="#2e3092"/>
    <path id="Path_696" data-name="Path 696" d="M47.151,19.945c0,.553.241.827.727.827h.831v1.18l-.973.033a2.2,2.2,0,0,1-1.65-.457,2.568,2.568,0,0,1-.532-1.879V16.641h-1.06V15.493h1.064l.183-1.683h1.409v1.683h1.355v1.147H47.151v3.3" transform="translate(-2.942 11.196)" fill="#2e3092"/>
    <path id="Path_697" data-name="Path 697" d="M49.976,19.869a3.424,3.424,0,0,1-.711.723,2.771,2.771,0,0,1-1.542.387,2.148,2.148,0,0,1-1.517-.574,1.9,1.9,0,0,1-.615-1.459c0-1.1.8-1.787,2.4-2.07a8.8,8.8,0,0,1,1.509-.116h.461v-.507c0-.611-.457-.914-1.368-.914-.79,0-1.247.3-1.376.919l-1.347-.191c.279-1.264,1.28-1.891,3-1.891,1.779,0,2.669.715,2.669,2.153v2.818a4.449,4.449,0,0,0,.183,1.658H50.142a1.393,1.393,0,0,1-.116-.495c-.017-.067-.029-.216-.05-.441m-.012-1.97v-.27a6.2,6.2,0,0,0-1.675.17c-.678.2-1.018.574-1.018,1.122,0,.586.366.877,1.093.877a1.4,1.4,0,0,0,1.417-.906A2.522,2.522,0,0,0,49.964,17.9Z" transform="translate(0.518 12.345)" fill="#2e3092"/>
    <path id="Path_698" data-name="Path 698" d="M49.869,19.945c0,.553.241.827.723.827h.835v1.18l-.973.033a2.206,2.206,0,0,1-1.654-.457,2.568,2.568,0,0,1-.532-1.879V16.641H47.213V15.493h1.06l.183-1.683h1.413v1.683H51.22v1.147H49.869v3.3" transform="translate(5.638 11.196)" fill="#2e3092"/>
    <path id="Path_699" data-name="Path 699" d="M51.563,19.727A1.406,1.406,0,0,0,53,18.659l1.455.208a2.818,2.818,0,0,1-2.968,2.095A2.945,2.945,0,0,1,49.14,20a3.627,3.627,0,0,1-.786-2.444,3.525,3.525,0,0,1,.815-2.423,2.936,2.936,0,0,1,2.336-.977,2.669,2.669,0,0,1,2.311,1.068,4.259,4.259,0,0,1,.665,2.527H49.934q0,1.976,1.629,1.974m-1.629-2.968h2.984a1.527,1.527,0,0,0-1.492-1.492Q50.21,15.267,49.934,16.759Z" transform="translate(9.239 12.291)" fill="#2e3092"/>
    <rect id="Rectangle_10" data-name="Rectangle 10" width="1.667" height="8.993" transform="translate(69.073 24.157)" fill="#2e3092"/>
    <path id="Path_700" data-name="Path 700" d="M51.829,14.307h1.492v1.226a2.178,2.178,0,0,1,1.887-1.347A1.886,1.886,0,0,1,57.366,16.3v4.468h-1.58v-4c0-.877-.316-1.313-.952-1.313a1.258,1.258,0,0,0-1.035.586,1.868,1.868,0,0,0-.391,1.147v3.579H51.829V14.307" transform="translate(20.208 12.383)" fill="#2e3092"/>
    <path id="Path_701" data-name="Path 701" d="M56.027,22.6h-1.6V17.287h-1.06V16.139h1.06v-.216a2.532,2.532,0,0,1,.545-1.87,2.216,2.216,0,0,1,1.642-.445l.914.017v1.268h-.64c-.574,0-.865.262-.865.781v.466h1.355v1.147H56.027V22.6" transform="translate(25.076 10.55)" fill="#2e3092"/>
    <path id="Path_702" data-name="Path 702" d="M57.622,20.966a2.879,2.879,0,0,1-2.373-1.014,3.9,3.9,0,0,1-.752-2.519,3.308,3.308,0,0,1,.877-2.294,2.786,2.786,0,0,1,2.174-.973,2.99,2.99,0,0,1,2.328.948,3.412,3.412,0,0,1,.835,2.39,3.686,3.686,0,0,1-.806,2.419,2.837,2.837,0,0,1-2.282,1.043m.037-5.537q-1.5,0-1.5,2.166c0,1.413.478,2.124,1.43,2.124q1.453,0,1.451-2.17Q59.043,15.43,57.659,15.43Z" transform="translate(28.627 12.32)" fill="#2e3092"/>
    <path id="Path_703" data-name="Path 703" d="M56.216,14.344h1.455v1.409a2.293,2.293,0,0,1,2.224-1.58v1.634l-.129-.008-.129-.008a1.636,1.636,0,0,0-1.392.686,2.582,2.582,0,0,0-.449,1.55V20.8H56.216V14.344" transform="translate(34.056 12.345)" fill="#2e3092"/>
    <path id="Path_704" data-name="Path 704" d="M57.317,14.332h1.492v1.226a2.188,2.188,0,0,1,1.9-1.38,2.134,2.134,0,0,1,1.737.682,2.033,2.033,0,0,1,.333.682,2.124,2.124,0,0,1,1.987-1.363q2.207,0,2.207,2.12v4.493h-1.58V16.763c0-.9-.333-1.355-1-1.355a1.343,1.343,0,0,0-1.11.561,1.95,1.95,0,0,0-.395,1.214v3.608H61.324V16.763a2.028,2.028,0,0,0-.166-.968.854.854,0,0,0-.831-.387,1.25,1.25,0,0,0-1.056.582,2,2,0,0,0-.374,1.193v3.608H57.317V14.332" transform="translate(37.532 12.358)" fill="#2e3092"/>
    <path id="Path_705" data-name="Path 705" d="M64.221,19.869a3.525,3.525,0,0,1-.715.723,2.756,2.756,0,0,1-1.538.387,2.148,2.148,0,0,1-1.517-.574,1.906,1.906,0,0,1-.619-1.459q0-1.646,2.4-2.07a8.882,8.882,0,0,1,1.513-.116h.461v-.507c0-.611-.457-.914-1.368-.914-.79,0-1.247.3-1.376.919l-1.347-.191c.278-1.264,1.28-1.891,3-1.891,1.783,0,2.673.715,2.673,2.153v2.818a4.359,4.359,0,0,0,.183,1.658H64.388a1.352,1.352,0,0,1-.121-.495c-.012-.067-.025-.216-.046-.441m-.012-1.97v-.27a6.2,6.2,0,0,0-1.675.17c-.678.2-1.018.574-1.018,1.122,0,.586.366.877,1.089.877a1.411,1.411,0,0,0,1.422-.906A2.522,2.522,0,0,0,64.209,17.9Z" transform="translate(45.471 12.345)" fill="#2e3092"/>
    <path id="Path_706" data-name="Path 706" d="M64.11,19.945c0,.553.245.827.723.827h.835v1.18l-.968.033a2.2,2.2,0,0,1-1.654-.457,2.568,2.568,0,0,1-.532-1.879V16.641h-1.06V15.493h1.064L62.7,13.81H64.11v1.683h1.355v1.147H64.11v3.3" transform="translate(50.591 11.196)" fill="#2e3092"/>
    <path id="Path_707" data-name="Path 707" d="M62.666,15.194m1.584,0H62.666V13.685H64.25Zm0,7.153H62.666V15.888H64.25Z" transform="translate(54.416 10.801)" fill="#2e3092"/>
    <path id="Path_708" data-name="Path 708" d="M66.39,20.966a2.884,2.884,0,0,1-2.373-1.014,3.919,3.919,0,0,1-.748-2.519,3.3,3.3,0,0,1,.873-2.294,2.794,2.794,0,0,1,2.178-.973,2.99,2.99,0,0,1,2.328.948,3.41,3.41,0,0,1,.831,2.39,3.684,3.684,0,0,1-.8,2.419,2.839,2.839,0,0,1-2.286,1.043m.037-5.537q-1.49,0-1.492,2.166c0,1.413.474,2.124,1.43,2.124s1.451-.723,1.451-2.17C67.815,16.136,67.35,15.43,66.427,15.43Z" transform="translate(56.317 12.32)" fill="#2e3092"/>
    <path id="Path_709" data-name="Path 709" d="M64.987,14.307h1.492v1.226a2.183,2.183,0,0,1,1.891-1.347A1.888,1.888,0,0,1,70.528,16.3v4.468H68.944v-4c0-.877-.316-1.313-.952-1.313a1.256,1.256,0,0,0-1.031.586,1.873,1.873,0,0,0-.395,1.147v3.579H64.987V14.307" transform="translate(61.743 12.383)" fill="#2e3092"/>
    <path id="Path_710" data-name="Path 710" d="M75.048,16.8l-1.592.162q-.293-2.014-2.012-2.012-1.958,0-1.962,3.213,0,3.261,2.145,3.263a1.738,1.738,0,0,0,1.318-.528,2.213,2.213,0,0,0,.557-1.322l1.575.162a3.792,3.792,0,0,1-1.193,2.3,3.524,3.524,0,0,1-2.419.827,3.382,3.382,0,0,1-2.914-1.476,5.408,5.408,0,0,1-.939-3.242,5.154,5.154,0,0,1,.948-3.176,3.428,3.428,0,0,1,2.9-1.409,3.465,3.465,0,0,1,2.457.881A3.839,3.839,0,0,1,75.048,16.8" transform="translate(70.029 10.419)" fill="#2e3092"/>
    <path id="Path_711" data-name="Path 711" d="M72.79,19.727a1.4,1.4,0,0,0,1.434-1.068l1.459.208a2.821,2.821,0,0,1-2.968,2.095A2.945,2.945,0,0,1,70.367,20a3.627,3.627,0,0,1-.786-2.444,3.525,3.525,0,0,1,.815-2.423,2.93,2.93,0,0,1,2.336-.977,2.657,2.657,0,0,1,2.307,1.068,4.229,4.229,0,0,1,.669,2.527H71.161c0,1.318.54,1.974,1.629,1.974m-1.629-2.968h2.98a1.519,1.519,0,0,0-1.492-1.492C71.842,15.267,71.343,15.766,71.161,16.759Z" transform="translate(76.244 12.291)" fill="#2e3092"/>
    <path id="Path_712" data-name="Path 712" d="M71.295,14.307h1.492v1.226a2.182,2.182,0,0,1,1.887-1.347A1.886,1.886,0,0,1,76.832,16.3v4.468H75.252v-4c0-.877-.32-1.313-.952-1.313a1.251,1.251,0,0,0-1.031.586,1.847,1.847,0,0,0-.395,1.147v3.579h-1.58V14.307" transform="translate(81.655 12.383)" fill="#2e3092"/>
    <path id="Path_713" data-name="Path 713" d="M75.494,19.945c0,.553.241.827.723.827h.831v1.18l-.969.033a2.2,2.2,0,0,1-1.654-.457,2.568,2.568,0,0,1-.532-1.879V16.641H72.838V15.493H73.9l.183-1.683h1.413v1.683h1.351v1.147H75.494v3.3" transform="translate(86.525 11.196)" fill="#2e3092"/>
    <path id="Path_714" data-name="Path 714" d="M77.188,19.727a1.4,1.4,0,0,0,1.434-1.068l1.459.208a2.821,2.821,0,0,1-2.968,2.095A2.945,2.945,0,0,1,74.765,20a3.627,3.627,0,0,1-.786-2.444,3.525,3.525,0,0,1,.815-2.423,2.93,2.93,0,0,1,2.336-.977,2.657,2.657,0,0,1,2.307,1.068,4.259,4.259,0,0,1,.669,2.527H75.559c0,1.318.54,1.974,1.629,1.974m-1.629-2.968h2.984a1.527,1.527,0,0,0-1.5-1.492C76.24,15.267,75.741,15.766,75.559,16.759Z" transform="translate(90.127 12.291)" fill="#2e3092"/>
    <path id="Path_715" data-name="Path 715" d="M75.693,14.344h1.455v1.409a2.289,2.289,0,0,1,2.224-1.58v1.634l-.129-.008-.129-.008a1.643,1.643,0,0,0-1.4.686,2.61,2.61,0,0,0-.449,1.55V20.8H75.693V14.344" transform="translate(95.537 12.345)" fill="#2e3092"/>
    <path id="Path_716" data-name="Path 716" d="M42.158,12.558v5.823h-2.17V12.458A1.378,1.378,0,0,0,38.429,10.9q-1.652,0-1.654,1.559v1.6a2.28,2.28,0,0,1,1.945-.894V14.89a1.789,1.789,0,0,0-.357-.033,1.4,1.4,0,0,0-1.16.59,1.935,1.935,0,0,0-.428,1.259v1.675H34.626V12.562a2.919,2.919,0,0,1,1.043-2.536,4.771,4.771,0,0,1,2.785-.653,7.409,7.409,0,0,1,1.471.137c.15.037.32.083.5.141a2.119,2.119,0,0,1,1-.769,3.4,3.4,0,0,1,1.264-.258l.183,1.692a3.775,3.775,0,0,0-.511-.046.949.949,0,0,0-.748.229,2.416,2.416,0,0,1,.266.49,4.116,4.116,0,0,1,.278,1.567" transform="translate(-34.094 -5.168)" fill="#2e3092"/>
    <path id="Path_717" data-name="Path 717" d="M36.159,13.322a1.37,1.37,0,0,0,0-.187v-.2c0-.391-.15-.586-.441-.586h-.5l.524-1.16h.707c.765,0,1.139.274,1.135.827a1.887,1.887,0,0,1-.012.191.745.745,0,0,1,0,.141c0,.536.208.8.624.8a.608.608,0,0,0,.69-.682V11.248h2.045v1.53a1.487,1.487,0,0,1-.811,1.467,4.2,4.2,0,0,1-1.771.283,3.757,3.757,0,0,1-1.355-.237c-.557-.224-.835-.549-.835-.968" transform="translate(-32.219 2.938)" fill="#2e3092"/>
    <path id="Path_718" data-name="Path 718" d="M44.641,17.643H42.733l-.1-1.675a2.86,2.86,0,0,1-2.511,1.866,2.991,2.991,0,0,1-2.153-.786,2.735,2.735,0,0,1-.86-2.112V8.86h2.153v5.433c0,1.205.453,1.8,1.359,1.8A1.623,1.623,0,0,0,42,15.315a2.693,2.693,0,0,0,.474-1.567V8.86h2.17v8.783" transform="translate(-26.256 -4.429)" fill="#2e3092"/>
    <path id="Path_719" data-name="Path 719" d="M43.8,9.263l-.4,1.318a2.43,2.43,0,0,0-1.018-.278c-.594,0-.89.254-.89.769a1.639,1.639,0,0,0-.012.166,1.027,1.027,0,0,0,.707.944,2.8,2.8,0,0,0,1.235.262v1.189a2.769,2.769,0,0,0-1.027.141,1.082,1.082,0,0,0-.632.894,1.47,1.47,0,0,0-.021.274q0,1.446,1.783,1.446c.985,0,1.48-.6,1.48-1.787V8.993h2.17v5.9q0,3.124-3.67,3.122-4.071,0-4.073-3.014a2,2,0,0,1,.569-1.4,2.849,2.849,0,0,1,.569-.445q-1.21-.412-1.21-2.178a2.045,2.045,0,0,1,.628-1.575,2.252,2.252,0,0,1,1.617-.59,4.625,4.625,0,0,1,2.2.445" transform="translate(-19.148 -4.562)" fill="#2e3092"/>
    <path id="Path_720" data-name="Path 720" d="M40.877,10.251a2.381,2.381,0,0,1,.511-1.791,4.155,4.155,0,0,1,2.635-.586v.885a.877.877,0,0,0-.133-.012H43.8c-.561,0-.844.337-.844,1.014a2.434,2.434,0,0,1,0,.249v.241H40.877" transform="translate(-14.362 -7.545)" fill="#2e3092"/>
    <path id="Path_721" data-name="Path 721" d="M44.881,12.929c-.308.395-.5.644-.569.761a2.195,2.195,0,0,0-.382,1.272q0,1.453,1.272,1.455c.865,0,1.3-.49,1.3-1.48V9.005h2.17V14.8q0,3.236-3.4,3.234-3.423,0-3.425-3.014a2.71,2.71,0,0,1,.391-1.4c.087-.145.357-.507.815-1.089l.611-.773a1.682,1.682,0,0,0,.387-.89c0-.424-.229-.632-.686-.632a1.593,1.593,0,0,0-.569.121c-.075.029-.22.1-.449.216l-.4-1.126a2.865,2.865,0,0,1,.74-.382,4.236,4.236,0,0,1,1.459-.249,1.658,1.658,0,0,1,1.787,1.521,2.32,2.32,0,0,1,.029.4,2.4,2.4,0,0,1-.391,1.272c-.087.125-.316.428-.686.919" transform="translate(-11.301 -4.574)" fill="#2e3092"/>
    <path id="Path_722" data-name="Path 722" d="M44.936,8.239a1.009,1.009,0,0,1,.129.482.986.986,0,0,1-.229.644c.071-.012.212-.037.411-.075a6.159,6.159,0,0,0,.777-.175,4.218,4.218,0,0,0,1.9-1.043V9.544a5.753,5.753,0,0,1-2.2.869,9.9,9.9,0,0,1-1.787.121,6.947,6.947,0,0,1-.869-.05v-.4a.818.818,0,0,0,.316-.586.493.493,0,0,0-.208-.42.772.772,0,0,0-.457-.121l.4-1.118a4.44,4.44,0,0,1,.632-.042,3.5,3.5,0,0,1,.5.021.932.932,0,0,1,.678.424" transform="translate(-8.529 -7.794)" fill="#2e3092"/>
    <path id="Path_723" data-name="Path 723" d="M44.142,12.912h4.09V14.3h-2a2.252,2.252,0,0,0,.574,1.571,1.931,1.931,0,0,0,1.5.632q2.033,0,2.033-2.885,0-3.155-2.24-3.155a1.9,1.9,0,0,0-1.949,1.459l-1.966-.274a3.907,3.907,0,0,1,1.5-2.1,4.357,4.357,0,0,1,2.523-.732,4.1,4.1,0,0,1,3.209,1.293,4.79,4.79,0,0,1,1.11,3.317A4.82,4.82,0,0,1,51.4,16.749a4.076,4.076,0,0,1-3.209,1.318,3.535,3.535,0,0,1-3.176-1.588,6.4,6.4,0,0,1-.869-3.566" transform="translate(-4.056 -4.574)" fill="#2e3092"/>
    <path id="Path_724" data-name="Path 724" d="M48.805,13.723a2.586,2.586,0,0,0,.54,1.58,1.709,1.709,0,0,0,1.4.794c.848,0,1.276-.6,1.276-1.8V8.86h2.17v6.1q0,2.874-2.943,2.876a2.959,2.959,0,0,1-2.56-1.866v1.675H46.652V8.86h2.153v4.863" transform="translate(3.867 -4.429)" fill="#2e3092"/>
    <path id="Path_725" data-name="Path 725" d="M48.186,13.322a1.375,1.375,0,0,0,0-.187v-.2c0-.391-.15-.586-.445-.586h-.495l.524-1.16h.707c.761,0,1.139.274,1.131.827a1.891,1.891,0,0,1-.012.191.376.376,0,0,1,0,.141c0,.536.208.8.623.8a.606.606,0,0,0,.69-.682V11.248h2.049v1.53a1.489,1.489,0,0,1-.815,1.467,4.163,4.163,0,0,1-1.767.283,3.78,3.78,0,0,1-1.359-.237c-.553-.224-.831-.549-.831-.968" transform="translate(5.745 2.938)" fill="#2e3092"/>
    <path id="Path_726" data-name="Path 726" d="M57.137,11.732v6.081h-2.17V13.507a9.019,9.019,0,0,0-2.261.208q-1.365.393-1.368,1.525a1.06,1.06,0,0,0,.457.919,1.715,1.715,0,0,0,1.018.3,2.055,2.055,0,0,0,1.11-.316l.2,1.189a3.386,3.386,0,0,1-4.248-.042,2.607,2.607,0,0,1-.831-2q0-2.251,3.263-2.831a12.081,12.081,0,0,1,2.058-.162h.6v-.678c0-.823-.619-1.23-1.862-1.23a1.608,1.608,0,0,0-1.8,1.205l-1.9-.287c.42-1.667,1.8-2.5,4.115-2.5q3.616,0,3.616,2.926" transform="translate(11.43 -4.6)" fill="#2e3092"/>
    <path id="Path_727" data-name="Path 727" d="M51.493,12.912h4.09V14.3h-2a2.269,2.269,0,0,0,.569,1.571,1.946,1.946,0,0,0,1.509.632q2.026,0,2.028-2.885,0-3.155-2.236-3.155A1.9,1.9,0,0,0,53.5,11.923l-1.966-.274a3.907,3.907,0,0,1,1.5-2.1,4.357,4.357,0,0,1,2.523-.732,4.09,4.09,0,0,1,3.2,1.293,4.77,4.77,0,0,1,1.11,3.317,4.8,4.8,0,0,1-1.131,3.325,4.061,4.061,0,0,1-3.2,1.318,3.535,3.535,0,0,1-3.176-1.588,6.4,6.4,0,0,1-.869-3.566" transform="translate(19.148 -4.574)" fill="#2e3092"/>
    <path id="Path_728" data-name="Path 728" d="M62,12.3v6.085H59.83V14.075a9.019,9.019,0,0,0-2.261.208q-1.365.393-1.368,1.525a1.07,1.07,0,0,0,.457.919,1.715,1.715,0,0,0,1.018.3,2.055,2.055,0,0,0,1.11-.316l.208,1.189a3.391,3.391,0,0,1-4.252-.042,2.621,2.621,0,0,1-.831-2q0-2.251,3.263-2.831a12.082,12.082,0,0,1,2.058-.162h.6v-.678c0-.823-.619-1.23-1.862-1.23a1.6,1.6,0,0,0-1.791,1.205l-1.908-.287c.424-1.667,1.791-2.5,4.115-2.5a6.369,6.369,0,0,1,1.438.15,2.8,2.8,0,0,1,.457.15,2.1,2.1,0,0,1,.944-.765,2.922,2.922,0,0,1,1.2-.283.862.862,0,0,1,.17.012l.162,1.7a2.747,2.747,0,0,0-.5-.046.979.979,0,0,0-.773.229,2.275,2.275,0,0,1,.254.424A3.39,3.39,0,0,1,62,12.3" transform="translate(26.781 -5.168)" fill="#2e3092"/>
    <path id="Path_729" data-name="Path 729" d="M57.114,10.127a3.043,3.043,0,0,1-1.284-.32c-.528-.241-.819-.54-.869-.89l1.467-1.031a1.49,1.49,0,0,0,.765.648,2.4,2.4,0,0,0,.989.237H61.4v1.355h-4.29" transform="translate(30.095 -7.5)" fill="#2e3092"/>
    <path id="Path_730" data-name="Path 730" d="M58.465,9.924l1.667,6.127h.445a1.3,1.3,0,0,0,1.239-.923,4.2,4.2,0,0,0,.3-1.654q0-3-1.609-3a2.734,2.734,0,0,1-.3-.017,1.362,1.362,0,0,0-.619.129L59.3,9.23a3.009,3.009,0,0,1,1.634-.4A2.914,2.914,0,0,1,63.6,10.3a5.919,5.919,0,0,1,.727,3.1,5.766,5.766,0,0,1-.686,2.851,2.579,2.579,0,0,1-2.34,1.488H58.577l-2.145-7.81h2.033" transform="translate(34.738 -4.521)" fill="#2e3092"/>
    <path id="Path_731" data-name="Path 731" d="M61,17.643H58.845V8.86H61v3.1a5.64,5.64,0,0,1,1.879-1.21q1.534-.661,1.534-1.891h2.207a1.965,1.965,0,0,1-.395,1.056A3.086,3.086,0,0,1,64.9,11.038a2.228,2.228,0,0,1,.736.391,2.452,2.452,0,0,1,.748,1.937v4.277h-2.17v-3.7c0-1.2-.428-1.8-1.276-1.8a1.707,1.707,0,0,0-1.409.881A2.884,2.884,0,0,0,61,14.671v2.972" transform="translate(42.355 -4.429)" fill="#2e3092"/>
    <path id="Path_732" data-name="Path 732" d="M61.634,10.764l-.545-1.035a5.338,5.338,0,0,1,2.9-.923c1.33,0,2,.574,2,1.729v7.278H63.832V11.4c0-.74-.312-1.11-.948-1.11a1.806,1.806,0,0,0-.769.183c-.1.046-.254.141-.482.287" transform="translate(49.438 -4.6)" fill="#2e3092"/>
    <path id="Path_733" data-name="Path 733" d="M68.217,11.425a1.354,1.354,0,0,0-1.5-1.006c-1,0-1.5.3-1.5.9,0,.395.486.7,1.459.919a16.2,16.2,0,0,1,2.457.661,2.292,2.292,0,0,1,1.4,2.136,2.684,2.684,0,0,1-1.164,2.34,4.5,4.5,0,0,1-2.61.7q-2.937,0-3.816-1.742a2.314,2.314,0,0,1-.241-.761l2.033-.337c.129.79.819,1.189,2.062,1.189,1.023,0,1.53-.312,1.53-.935,0-.445-.453-.769-1.363-.968a13.587,13.587,0,0,1-2.427-.686,2.248,2.248,0,0,1-1.347-2.016A2.73,2.73,0,0,1,64.222,9.5a4.078,4.078,0,0,1,2.515-.694,4.188,4.188,0,0,1,2.157.54A2.774,2.774,0,0,1,70.2,11.088l-1.983.337" transform="translate(54.527 -4.6)" fill="#2e3092"/>
    <path id="Path_734" data-name="Path 734" d="M63.483,8.1h7.03V9.441h-7.64l.61-1.337" transform="translate(55.071 -6.816)" fill="#2e3092"/>
    <path id="Path_735" data-name="Path 735" d="M67.383,13.723a2.607,2.607,0,0,0,.536,1.58,1.715,1.715,0,0,0,1.4.794c.852,0,1.276-.6,1.276-1.8V8.86h2.17v6.1q0,2.874-2.939,2.876a2.964,2.964,0,0,1-2.565-1.866v1.675H65.23V8.86h2.153v4.863" transform="translate(62.51 -4.429)" fill="#2e3092"/>
    <path id="Path_736" data-name="Path 736" d="M69.71,17.788H67.557V9.005H69.59V10.66a2.935,2.935,0,0,1,2.565-1.846q2.937,0,2.939,2.881v6.094h-2.17V12.326q0-1.8-1.276-1.8a1.724,1.724,0,0,0-1.409.794,2.634,2.634,0,0,0-.528,1.58v4.884" transform="translate(69.855 -4.574)" fill="#2e3092"/>
    <path id="Path_737" data-name="Path 737" d="M75.322,11.425a1.356,1.356,0,0,0-1.5-1.006c-1,0-1.492.3-1.492.9,0,.395.486.7,1.459.919a16.2,16.2,0,0,1,2.457.661,2.292,2.292,0,0,1,1.4,2.136,2.694,2.694,0,0,1-1.164,2.34,4.5,4.5,0,0,1-2.61.7q-2.937,0-3.816-1.742a2.313,2.313,0,0,1-.241-.761l2.033-.337c.129.79.815,1.189,2.062,1.189,1.023,0,1.53-.312,1.53-.935,0-.445-.453-.769-1.367-.968a13.614,13.614,0,0,1-2.423-.686,2.248,2.248,0,0,1-1.347-2.016A2.73,2.73,0,0,1,71.327,9.5a4.078,4.078,0,0,1,2.515-.694A4.188,4.188,0,0,1,76,9.346,2.774,2.774,0,0,1,77.3,11.088l-1.983.337" transform="translate(76.954 -4.6)" fill="#2e3092"/>
    <path id="Path_738" data-name="Path 738" d="M72.921,10.127a3.014,3.014,0,0,1-1.284-.32c-.528-.241-.819-.54-.869-.89l1.467-1.031A1.49,1.49,0,0,0,73,8.535a2.4,2.4,0,0,0,.989.237h3.221v1.355h-4.29" transform="translate(79.991 -7.5)" fill="#2e3092"/>
    <path id="Path_739" data-name="Path 739" d="M76.811,16.77A2.086,2.086,0,0,1,74.9,17.884a2.306,2.306,0,0,1-2.1-.91,4.408,4.408,0,0,1-.47-2.324V8.86h2.153v6.613c0,.511.208.765.624.765.374,0,.557-.254.557-.752V8.86h2.17v6.613c0,.511.216.765.648.765.378,0,.565-.254.565-.752V8.86H81.2v5.79a4.764,4.764,0,0,1-.424,2.332,2.1,2.1,0,0,1-1.966.9,2.465,2.465,0,0,1-2-1.114" transform="translate(84.934 -4.429)" fill="#2e3092"/>
    <path id="Path_740" data-name="Path 740" d="M79.351,9.263l-.4,1.318A2.446,2.446,0,0,0,77.93,10.3c-.594,0-.889.254-.889.769a1.637,1.637,0,0,0-.013.166,1.027,1.027,0,0,0,.707.944,2.8,2.8,0,0,0,1.234.262v1.189a2.785,2.785,0,0,0-1.027.141,1.09,1.09,0,0,0-.632.894,1.936,1.936,0,0,0-.021.274q0,1.446,1.783,1.446c.985,0,1.48-.6,1.48-1.787V8.993h2.17v5.9q0,3.124-3.67,3.122-4.071,0-4.073-3.014a2,2,0,0,1,.569-1.4,2.85,2.85,0,0,1,.569-.445q-1.2-.412-1.205-2.178a2.057,2.057,0,0,1,.623-1.575,2.259,2.259,0,0,1,1.617-.59,4.625,4.625,0,0,1,2.2.445" transform="translate(93.072 -4.562)" fill="#2e3092"/>
    <path id="Path_741" data-name="Path 741" d="M76.427,10.251a2.363,2.363,0,0,1,.515-1.791,4.132,4.132,0,0,1,2.631-.586v.885a.829.829,0,0,0-.129-.012h-.091c-.561,0-.84.337-.84,1.014a2.443,2.443,0,0,1,0,.249v.241H76.427" transform="translate(97.854 -7.545)" fill="#2e3092"/>
  </g>
  <g id="Group_12" data-name="Group 12">
    <rect id="Rectangle_11" data-name="Rectangle 11" width="110.122" height="4.515" transform="translate(0 59.666)" fill="#ed1c24"/>
    <rect id="Rectangle_12" data-name="Rectangle 12" width="110.122" height="4.517" transform="translate(0 52.655)" fill="#ed1c24"/>
    <path id="Path_742" data-name="Path 742" d="M49.109,17.095S47.517,8.628,37.724,8.628c-9.643,0-12.561,8.068-12.474,14.008,0,0-.865,14.12,12.42,14.12,0,0,9.435.74,11.439-9.219L42.99,25.479s-.524,5.844-5.316,5.744-5.973-4.256-5.965-8.588,1.056-8.417,5.965-8.488a4.978,4.978,0,0,1,5.221,4.643l6.214-1.7" transform="translate(60.821 9.447)" fill="#2e3092"/>
    <path id="Path_743" data-name="Path 743" d="M23.883,26.83a12.843,12.843,0,0,0-2.7-2.735A7.465,7.465,0,0,0,27.1,16.513a7.323,7.323,0,0,0-3.849-6.771,15.012,15.012,0,0,0-6.484-1.114H4.813l0,27.238h6.31V24.955l1.4,0a4.2,4.2,0,0,1,3.2,1.463c1.118,1.176,6.459,9.444,6.459,9.444h7.444s-4.639-7.444-5.749-9.036m-4.335-7.553a5.814,5.814,0,0,1-2.943.49H11.1V14.056h5.5c1.675,0,4.057.1,4.057,2.9A2.574,2.574,0,0,1,19.548,19.277Z" transform="translate(-3.653 9.447)" fill="#2e3092"/>
    <g id="Group_10" data-name="Group 10" transform="translate(58.085 14.847)">
      <rect id="Rectangle_13" data-name="Rectangle 13" width="24.979" height="32.454" fill="#ed1c24"/>
      <rect id="Rectangle_14" data-name="Rectangle 14" width="5.402" height="27.127" transform="translate(9.651 3.324)" fill="#fff"/>
    </g>
    <g id="Group_11" data-name="Group 11" transform="translate(27.448 14.847)">
      <path id="Path_744" data-name="Path 744" d="M37.152,7.852H11.137V40.305H37.145l.007-32.454" transform="translate(-11.137 -7.852)" fill="#ed1c24"/>
      <path id="Path_745" data-name="Path 745" d="M29.92,30.439v5.339H12.133V8.651H29.394v5.341H17.464V18.9h11.29v5.339H17.464v6.2H29.92" transform="translate(-7.995 -5.327)" fill="#fff"/>
    </g>
    <path id="Path_746" data-name="Path 746" d="M11.188,17.312h55.4L47.531,4.28H30.294L11.188,17.312" transform="translate(16.47 -4.28)" fill="#ed1c24"/>
  </g>
</svg>
