<?xml version="1.0" encoding="utf-8"?>
<!-- Generator: Adobe Illustrator 22.0.0, SVG Export Plug-In . SVG Version: 6.00 Build 0)  -->
<svg version="1.1" id="Layer_1" xmlns="http://www.w3.org/2000/svg" xmlns:xlink="http://www.w3.org/1999/xlink" x="0px" y="0px"
	 viewBox="0 0 20 20" style="enable-background:new 0 0 20 20;" xml:space="preserve">
<style type="text/css">
	.st0{fill-rule:evenodd;clip-rule:evenodd;fill:#5384C4;}
	.st1{fill-rule:evenodd;clip-rule:evenodd;fill:#FFFFFF;}
	.st2{fill-rule:evenodd;clip-rule:evenodd;fill:#C2C2C1;}
	.st3{fill-rule:evenodd;clip-rule:evenodd;fill:#1EA361;}
	.st4{fill-rule:evenodd;clip-rule:evenodd;fill:#FEDB43;}
	.st5{fill:#EFEFEF;}
	.st6{fill:#DC4B3E;}
	.st7{fill:#802C27;}
</style>
<g>
	<polygon class="st0" points="2.4,19.5 9,12.9 15.6,19.5 	"/>
	<path class="st1" d="M15.6,19.5l-6.7-6.7l1.7-1.7l6.7,6.7v0.3c0,0.8-0.6,1.4-1.4,1.4H15.6z"/>
	<polygon class="st2" points="17.3,17.8 10.7,11.2 17.3,4.5 	"/>
	<path class="st3" d="M0.6,17.8V4.3c0-0.8,0.6-1.4,1.4-1.4h13.6L0.6,17.8z"/>
	<path class="st4" d="M0.6,18.1v-0.3l15-15h0.3c0.8,0,1.4,0.6,1.4,1.4v0.4L2.5,19.5H2.1C1.3,19.5,0.6,18.9,0.6,18.1z"/>
	<path class="st5" d="M3.6,4.7c0.8-0.4,1.9-0.2,2.6,0.4C6,5.3,5.8,5.5,5.6,5.7C4.9,5,3.6,5.4,3.3,6.3C2.8,7.2,3.5,8.3,4.5,8.4
		C5.2,8.4,5.8,8,6,7.3c-0.5,0-0.9,0-1.4,0c0-0.3,0-0.6,0-0.8c0.8,0,1.5,0,2.3,0c0.1,0.6,0,1.1-0.3,1.6C6.1,9,5,9.4,4.1,9.2
		C2.9,9,2.1,7.8,2.2,6.6C2.3,5.8,2.9,5,3.6,4.7z"/>
	<path class="st6" d="M18.7,7.5c0.4-0.7,0.7-1.5,0.7-2.3c0-2.6-2.1-4.7-4.7-4.7S10,2.6,10,5.2c0,1.2,0.5,2.2,1.2,3.1
		c0.7,1,1.5,2,2.1,3.1c0.7,1.3,1,2.6,1.1,3.1c0.2,0.8,0.5,0.8,0.7,0c0.1-0.4,0.4-1.7,1.1-3.1c0.5-0.8,1-1.6,1.5-2.4
		C18,8.6,18.4,8.1,18.7,7.5z"/>
	<g>
		<path class="st7" d="M14.2,3.2c0.9-0.2,2,0.3,2.3,1.2c0.3,0.7,0.1,1.6-0.5,2.1c-0.6,0.6-1.6,0.7-2.3,0.3c-0.7-0.3-1.1-1.1-1-1.9
			C12.8,4.1,13.4,3.4,14.2,3.2z"/>
	</g>
</g>
</svg>
