<?xml version="1.0" encoding="utf-8"?>
<!-- Generator: Adobe Illustrator 22.0.0, SVG Export Plug-In . SVG Version: 6.00 Build 0)  -->
<svg version="1.1" id="Layer_1" xmlns="http://www.w3.org/2000/svg" xmlns:xlink="http://www.w3.org/1999/xlink" x="0px" y="0px"
	 viewBox="0 0 45 45" style="enable-background:new 0 0 45 45;" xml:space="preserve">
<style type="text/css">
	.st0{fill:#3B5998;}
	.st1{fill:#FFFFFF;}
	.st2{fill:#5FA9DD;}
	.st3{fill-rule:evenodd;clip-rule:evenodd;fill:#FFFFFF;}
	.st4{fill:#00B900;}
	.st5{fill:#FF0000;}
	.st6{fill:#777777;}
	.st7{fill:none;stroke:#777777;stroke-miterlimit:10;}
</style>
<g>
	<path class="st6" d="M29.1,26.6c-0.8-0.8-1.9-0.8-2.7,0c-0.6,0.6-1.3,1.3-1.9,1.9c-0.2,0.2-0.3,0.2-0.5,0.1
		c-0.4-0.2-0.8-0.4-1.2-0.6c-1.8-1.1-3.4-2.6-4.7-4.3c-0.7-0.8-1.3-1.7-1.7-2.7c-0.1-0.2-0.1-0.3,0.1-0.5c0.6-0.6,1.2-1.2,1.9-1.9
		c0.9-0.9,0.9-1.9,0-2.8c-0.5-0.5-1-1-1.5-1.5c-0.5-0.5-1-1-1.5-1.5c-0.8-0.8-1.9-0.8-2.7,0c-0.6,0.6-1.2,1.3-1.9,1.9
		c-0.6,0.6-0.9,1.3-1,2.1c-0.1,1.3,0.2,2.6,0.7,3.8c0.9,2.5,2.4,4.7,4.1,6.8c2.3,2.8,5.1,5,8.4,6.5c1.5,0.7,3,1.3,4.6,1.3
		c1.1,0.1,2.1-0.2,2.9-1.1c0.5-0.6,1.1-1.2,1.7-1.7c0.8-0.9,0.9-1.9,0-2.7C31.2,28.6,30.1,27.6,29.1,26.6L29.1,26.6z M29.1,26.6"/>
	<path class="st6" d="M28.1,22.4l2-0.3c-0.3-1.8-1.2-3.4-2.4-4.7c-1.4-1.4-3.1-2.2-5-2.5l-0.3,2c1.5,0.2,2.8,0.9,3.9,1.9
		C27.2,19.7,27.9,21,28.1,22.4L28.1,22.4z M28.1,22.4"/>
	<path class="st6" d="M31.2,13.9c-2.3-2.3-5.1-3.7-8.3-4.1l-0.3,2c2.7,0.4,5.2,1.6,7.1,3.6c1.8,1.8,3.1,4.2,3.5,6.8l2-0.3
		C34.7,18.7,33.3,16,31.2,13.9L31.2,13.9z M31.2,13.9"/>
</g>
<circle class="st7" cx="22.5" cy="22.5" r="20.8"/>
</svg>
