<?xml version="1.0" encoding="utf-8"?>
<!-- Generator: Adobe Illustrator 22.0.0, SVG Export Plug-In . SVG Version: 6.00 Build 0)  -->
<svg version="1.1" id="Layer_1" xmlns="http://www.w3.org/2000/svg" xmlns:xlink="http://www.w3.org/1999/xlink" x="0px" y="0px"
	 viewBox="0 0 45 45" style="enable-background:new 0 0 45 45;" xml:space="preserve">
<style type="text/css">
	.st0{fill:#3B5998;}
	.st1{fill:#FFFFFF;}
	.st2{fill:#5FA9DD;}
	.st3{fill-rule:evenodd;clip-rule:evenodd;fill:#FFFFFF;}
	.st4{fill:#00B900;}
	.st5{fill:#FF0000;}
	.st6{fill:#777777;}
	.st7{fill:none;stroke:#777777;stroke-miterlimit:10;}
</style>
<g>
	<circle class="st0" cx="22.5" cy="22.5" r="20.8"/>
	<path class="st1" d="M24.5,35.5c0-3.9,0-7.7,0-11.6c0-0.2,0-0.2,0.2-0.2c1.2,0,2.4,0,3.7,0c0.1,0,0.2,0,0.2-0.2c0.1-1,0.2-2,0.4-3
		c0.1-0.4,0.1-0.9,0.2-1.3c0-0.2,0-0.2-0.1-0.2c-1.4,0-2.8,0-4.2,0c-0.3,0-0.2,0-0.2-0.2c0-1,0-1.9,0-2.9c0-0.3,0-0.5,0.1-0.8
		c0.1-0.7,0.6-1.2,1.4-1.3c0.3-0.1,0.6-0.1,0.9-0.1c0.8,0,1.5,0,2.3,0c0.2,0,0.2,0,0.2-0.2c0-1.3,0-2.5,0-3.8c0-0.2,0-0.2-0.2-0.2
		c-1.2-0.1-2.4-0.2-3.6-0.2c-0.9,0-1.8,0.2-2.6,0.6c-1.5,0.7-2.4,1.8-2.8,3.3c-0.2,0.7-0.3,1.4-0.3,2.1c0,1.1,0,2.3,0,3.4
		c0,0.2,0,0.2-0.2,0.2c-1.2,0-2.4,0-3.7,0c-0.2,0-0.2,0-0.2,0.2c0,1.4,0,2.9,0,4.3c0,0.2,0,0.2,0.2,0.2c1.2,0,2.4,0,3.7,0
		c0.2,0,0.2,0,0.2,0.2c0,3.9,0,7.7,0,11.6L24.5,35.5z"/>
</g>
</svg>
