<?xml version="1.0" encoding="utf-8"?>
<!-- Generator: Adobe Illustrator 22.0.0, SVG Export Plug-In . SVG Version: 6.00 Build 0)  -->
<svg version="1.1" id="Layer_1" xmlns="http://www.w3.org/2000/svg" xmlns:xlink="http://www.w3.org/1999/xlink" x="0px" y="0px"
	 viewBox="0 0 45 45" style="enable-background:new 0 0 45 45;" xml:space="preserve">
<style type="text/css">
	.st0{fill:#3B5998;}
	.st1{fill:#FFFFFF;}
	.st2{fill:#5FA9DD;}
	.st3{fill-rule:evenodd;clip-rule:evenodd;fill:#FFFFFF;}
	.st4{fill:#00B900;}
	.st5{fill:#FF0000;}
	.st6{fill:#777777;}
	.st7{fill:none;stroke:#777777;stroke-miterlimit:10;}
</style>
<g>
	<path class="st4" d="M22.8,43.3h-0.7c-11.3,0-20.5-9.2-20.5-20.5v-0.7c0-11.3,9.2-20.5,20.5-20.5h0.7c11.3,0,20.5,9.2,20.5,20.5
		v0.7C43.3,34.1,34.1,43.3,22.8,43.3z"/>
	<path class="st1" d="M22.5,9C15,9,9,15,9,22.5S15,36,22.5,36c1.4,0,2.8-0.2,4.2-0.7l0.8-0.3c0.3-0.1,0.4-0.4,0.4-0.7L27.1,32
		c-0.1-0.3-0.4-0.4-0.7-0.3l-0.8,0.3c-1,0.3-2,0.5-3.1,0.5c-5.5,0-9.9-4.5-9.9-9.9s4.5-9.9,9.9-9.9c5.5,0,9.9,4.5,9.9,9.9
		c0,1.1-0.2,2.3-0.6,3.5c-0.3,0.9-1,1.6-1.6,1.6c-0.8,0-1.4-0.6-1.4-1.4v-9.6c0-0.3-0.2-0.5-0.5-0.5h-2.5c-0.3,0-0.5,0.2-0.5,0.5
		l0,0.2l-0.2-0.1c-1-0.5-2-0.8-3.1-0.8c-3.6,0-6.6,3-6.6,6.6s3,6.6,6.6,6.6c1.3,0,2.5-0.4,3.5-1l0.1-0.1l0.1,0.1
		c0.8,1.8,2.6,3,4.6,3c2.1,0,4.1-1.6,5-4c0.5-1.6,0.8-3.1,0.8-4.7C36,15,30,9,22.5,9z M25.2,22.5c0,1.8-1.5,3.3-3.3,3.3
		c-1.8,0-3.3-1.5-3.3-3.3s1.5-3.3,3.3-3.3C23.8,19.2,25.2,20.7,25.2,22.5z"/>
</g>
</svg>
