<?xml version="1.0" encoding="utf-8"?>
<!-- Generator: Adobe Illustrator 22.0.0, SVG Export Plug-In . SVG Version: 6.00 Build 0)  -->
<svg version="1.1" id="Layer_1" xmlns="http://www.w3.org/2000/svg" xmlns:xlink="http://www.w3.org/1999/xlink" x="0px" y="0px"
	 viewBox="0 0 45 45" style="enable-background:new 0 0 45 45;" xml:space="preserve">
<style type="text/css">
	.st0{fill:#3B5998;}
	.st1{fill:#FFFFFF;}
	.st2{fill:#5FA9DD;}
	.st3{fill-rule:evenodd;clip-rule:evenodd;fill:#FFFFFF;}
	.st4{fill:#00B900;}
	.st5{fill:#FF0000;}
	.st6{fill:#777777;}
	.st7{fill:none;stroke:#777777;stroke-miterlimit:10;}
</style>
<circle class="st7" cx="22.5" cy="22.5" r="20.8"/>
<g>
	<path class="st6" d="M19,12.7c2.3,0,3.2,0.2,3.2,1.9h1.1c0-3-2.5-3-4.3-3c-2.3,0-3.2-0.2-3.2-1.9h-1.1C14.8,12.7,17.2,12.7,19,12.7
		L19,12.7z M19,12.7"/>
	<path class="st6" d="M24.9,14.6c0.1,0.3,0.2,0.7,0.2,1v4.9c0,1.4-0.8,2.5-1.8,2.7c0,0,0,0,0,0.1v3.9c0,0.2-0.2,0.4-0.4,0.4
		c-0.2,0-0.4-0.2-0.4-0.4v-3.9c0,0,0,0,0-0.1c-1-0.2-1.8-1.4-1.8-2.7v-4.9c0-0.4,0.1-0.7,0.2-1c-3.1,0.8-5.4,3.6-5.4,6.9V28
		c0,4,3.2,7.2,7.2,7.2H23c4,0,7.2-3.2,7.2-7.2v-6.5C30.2,18.2,27.9,15.4,24.9,14.6L24.9,14.6z M24.9,14.6"/>
	<path class="st6" d="M22.8,22L22.8,22c-0.6,0-1.1-0.5-1.1-1.1V17c0-0.6,0.5-1.1,1.1-1.1h0c0.6,0,1.1,0.5,1.1,1.1v3.9
		C23.9,21.5,23.4,22,22.8,22z"/>
</g>
</svg>
