<?xml version="1.0" encoding="utf-8"?>
<!-- Generator: Adobe Illustrator 23.0.1, SVG Export Plug-In . SVG Version: 6.00 Build 0)  -->
<svg version="1.1" id="Layer_1" xmlns="http://www.w3.org/2000/svg" xmlns:xlink="http://www.w3.org/1999/xlink" x="0px" y="0px"
	 viewBox="0 0 45 45" style="enable-background:new 0 0 45 45;" xml:space="preserve">
<style type="text/css">
	.st0{fill:url(#SVGID_1_);}
	.st1{fill:#FFFFFF;}
</style>
<g>
	<linearGradient id="SVGID_1_" gradientUnits="userSpaceOnUse" x1="37.2078" y1="37.2078" x2="7.7922" y2="7.7922">
		<stop  offset="0" style="stop-color:#D95B29"/>
		<stop  offset="0.1134" style="stop-color:#DE642B"/>
		<stop  offset="0.2984" style="stop-color:#EA7C31"/>
		<stop  offset="0.5" style="stop-color:#FB9E3A"/>
		<stop  offset="0.6497" style="stop-color:#F69537"/>
		<stop  offset="0.8929" style="stop-color:#EA7D31"/>
		<stop  offset="1" style="stop-color:#E3702D"/>
	</linearGradient>
	<circle class="st0" cx="22.5" cy="22.5" r="20.8"/>
	<g id="lines__x003C_Group_x003E_">
		<path id="circle" class="st1" d="M19.2,29.6c0,1.5-1.3,2.8-2.8,2.8c-1.5,0-2.8-1.3-2.8-2.8s1.3-2.8,2.8-2.8
			C18,26.8,19.2,28,19.2,29.6z"/>
		<g>
			<path class="st1" d="M13.6,22.5c2.6,0,5.1,1,6.9,2.9c1.9,1.9,2.9,4.3,2.9,7h4c0-7.7-6.2-13.9-13.8-13.9V22.5z"/>
		</g>
		<g>
			<path class="st1" d="M13.6,15.4c9.3,0,16.9,7.6,16.9,17h4c0-11.6-9.4-21.1-21-21.1V15.4z"/>
		</g>
	</g>
</g>
</svg>
