<?xml version="1.0" encoding="utf-8"?>
<!-- Generator: Adobe Illustrator 22.0.0, SVG Export Plug-In . SVG Version: 6.00 Build 0)  -->
<svg version="1.1" id="Layer_1" xmlns="http://www.w3.org/2000/svg" xmlns:xlink="http://www.w3.org/1999/xlink" x="0px" y="0px"
	 viewBox="0 0 45 45" style="enable-background:new 0 0 45 45;" xml:space="preserve">
<style type="text/css">
	.st0{fill:#3B5998;}
	.st1{fill:#FFFFFF;}
	.st2{fill:#5FA9DD;}
	.st3{fill-rule:evenodd;clip-rule:evenodd;fill:#FFFFFF;}
	.st4{fill:#00B900;}
	.st5{fill:#FF0000;}
	.st6{fill:#777777;}
	.st7{fill:none;stroke:#777777;stroke-miterlimit:10;}
</style>
<g>
	<circle class="st2" cx="22.5" cy="22.5" r="20.8"/>
	<path class="st3" d="M9.4,33.4c3.3,0.3,6.3-0.5,8.9-2.5c-1.3-0.1-2.4-0.5-3.5-1.2c-1-0.8-1.7-1.8-2.1-3c0.5,0,0.9,0.1,1.3,0.1
		c0.4,0,0.9-0.1,1.3-0.2c-1.8-0.5-3.2-1.5-4.1-3.1c-0.6-1-0.7-2.3-0.7-2.9c0.8,0.4,1.7,0.7,2.7,0.8c-1.3-0.9-2.2-2.2-2.5-3.7
		c-0.3-1.5-0.1-3,0.7-4.4c3.3,3.9,7.4,6,12.5,6.3c0-0.2-0.1-0.4-0.1-0.5c-0.2-1.1,0-2.2,0.5-3.3c0.9-2,2.4-3.2,4.6-3.5
		c2-0.3,3.8,0.3,5.3,1.7c0.1,0.1,0.2,0.1,0.3,0.1c1.3-0.3,2.4-0.7,3.5-1.4c0,0,0.1,0,0.1-0.1c-0.2,0.7-0.5,1.3-1,1.9
		c-0.4,0.6-1,1-1.5,1.4c1.2-0.1,2.3-0.4,3.3-0.9c0,0,0,0.1-0.1,0.1c-0.8,1.1-1.7,2.1-2.8,2.9c-0.1,0.1-0.2,0.2-0.2,0.3
		c0,0.6,0,1.1,0,1.7c-0.1,1.3-0.3,2.5-0.7,3.8c-0.7,2.5-1.9,4.7-3.6,6.6c-2.4,2.7-5.3,4.5-8.8,5.3c-0.9,0.2-1.8,0.3-2.6,0.4
		c-0.6,0-1.2,0.1-1.7,0.1c-2.4,0-4.8-0.6-7-1.6c-0.7-0.3-1.3-0.7-2-1.1C9.5,33.5,9.4,33.5,9.4,33.4C9.4,33.5,9.4,33.5,9.4,33.4z"/>
</g>
</svg>
