<?xml version="1.0" encoding="utf-8"?>
<!-- Generator: Adobe Illustrator 23.0.1, SVG Export Plug-In . SVG Version: 6.00 Build 0)  -->
<svg version="1.1" id="Layer_1" xmlns="http://www.w3.org/2000/svg" xmlns:xlink="http://www.w3.org/1999/xlink" x="0px" y="0px"
	 viewBox="0 0 25 25" style="enable-background:new 0 0 25 25;" xml:space="preserve">
<style type="text/css">
	.st0{fill:#00B4ED;}
	.st1{fill:#FFFFFF;}
</style>
<circle class="st0" cx="12.5" cy="12.5" r="12.5"/>
<g>
	<path class="st1" d="M5.5,12.2C5.8,12.2,6,12,6,11.8v-1.1c0-0.1,0.1-0.2,0.1-0.3c2.9-2.2,5.6-3.7,6.4-3.7c0.8,0,3.5,1.6,6.4,3.7
		c0.1,0.1,0.1,0.2,0.1,0.3v1.1c0,0.2,0.2,0.4,0.4,0.4s0.4-0.2,0.4-0.4v-1.1c0-0.4-0.2-0.7-0.5-1c-0.9-0.6-5.3-3.9-6.9-3.9
		c-1.6,0-6,3.2-6.9,3.9c-0.3,0.2-0.5,0.6-0.5,1v1.1C5.1,12,5.3,12.2,5.5,12.2z"/>
	<path class="st1" d="M19.3,12.9c-0.7,0.5-1.4,1-2.2,1.4v-1.9c0-0.1-0.1-0.2-0.2-0.3l-1-0.5c-0.1,0-0.2,0-0.3,0l-1.1,0.6v0l1.1,0.6
		c0.1,0.1,0.2,0.1,0.2,0.3v0.2l-1.2-0.7V13c0,0.1,0.1,0.2,0.2,0.3l0.9,0.5c0.1,0.1,0.2,0.1,0.2,0.3v0.2l-1.2-0.7v0.3
		c0,0.1,0.1,0.2,0.2,0.3l0.9,0.5c0.1,0.1,0.2,0.1,0.2,0.3V15l-1.2-0.7v0.3c0,0.1,0.1,0.2,0.2,0.3l0.7,0.4c-0.1,0.1-0.3,0.1-0.4,0.2
		l-0.5-0.3v0.3c0,0.1,0,0.1,0.1,0.2c-0.1,0.1-0.3,0.1-0.4,0.2v-5.7c0-0.2-0.1-0.3-0.2-0.4l-1.4-0.7c-0.1-0.1-0.3-0.1-0.4,0l-1.6,0.8
		v0l1.5,0.8c0.1,0.1,0.2,0.2,0.2,0.4v0.3l-1.7-0.9v0.4c0,0.2,0.1,0.3,0.2,0.4l1.3,0.7c0.1,0.1,0.2,0.2,0.2,0.4v0.3l-1.7-0.9v0.4
		c0,0.2,0.1,0.3,0.2,0.4l1.3,0.7c0.1,0.1,0.2,0.2,0.2,0.4v0.3l-1.7-0.9v0.4c0,0.2,0.1,0.3,0.2,0.4l1.3,0.7c0.1,0.1,0.2,0.2,0.2,0.4
		V15L10.7,14v0.4c0,0.2,0.1,0.3,0.2,0.4l1.3,0.7c0.1,0.1,0.2,0.2,0.2,0.4v0.3l-1.7-0.9v0.4c0,0.1,0,0.2,0.1,0.2
		c-0.1-0.1-0.3-0.1-0.4-0.2v-3.3c0-0.1-0.1-0.2-0.2-0.3l-1-0.5c-0.1,0-0.2,0-0.3,0l-1.1,0.6v0l1.1,0.6C9,12.9,9.1,13,9.1,13.1v0.2
		l-1.2-0.7V13c0,0.1,0.1,0.2,0.2,0.3l0.9,0.5C9,13.8,9.1,13.9,9.1,14v0.2l-1.2-0.7v0.3c0,0.1,0.1,0.2,0.2,0.3l0.9,0.5
		c0.1,0.1,0.2,0.1,0.2,0.3V15l-0.4-0.2c-1-0.6-2.1-1.3-3-1.9c-0.2-0.2-0.6,0-0.6,0.3l0,5.2c0,0.5,0.4,0.8,0.8,0.8H19
		c0.5,0,0.8-0.4,0.8-0.8v-5.2C19.9,12.9,19.6,12.7,19.3,12.9z"/>
</g>
</svg>
