<?xml version="1.0" encoding="utf-8"?>
<!-- Generator: Adobe Illustrator 22.0.0, SVG Export Plug-In . SVG Version: 6.00 Build 0)  -->
<svg version="1.1" id="Layer_1" xmlns="http://www.w3.org/2000/svg" xmlns:xlink="http://www.w3.org/1999/xlink" x="0px" y="0px"
	 viewBox="0 0 45 45" style="enable-background:new 0 0 45 45;" xml:space="preserve">
<style type="text/css">
	.st0{fill:#3B5998;}
	.st1{fill:#FFFFFF;}
	.st2{fill:#5FA9DD;}
	.st3{fill-rule:evenodd;clip-rule:evenodd;fill:#FFFFFF;}
	.st4{fill:#00B900;}
	.st5{fill:#FF0000;}
	.st6{fill:#777777;}
	.st7{fill:none;stroke:#777777;stroke-miterlimit:10;}
</style>
<circle class="st5" cx="22.5" cy="22.5" r="20.8"/>
<g id="Lozenge">
	<g>
		<path class="st1" d="M36.2,16.9c0,0-0.3-1.9-1.1-2.8C34,13,32.8,13,32.3,12.9c-3.9-0.3-9.8-0.3-9.8-0.3h0c0,0-5.9,0-9.8,0.3
			C12.2,13,11,13,9.9,14.1c-0.8,0.8-1.1,2.8-1.1,2.8s-0.3,2.3-0.3,4.5v2.1c0,2.3,0.3,4.5,0.3,4.5s0.3,1.9,1.1,2.8
			c1.1,1.1,2.5,1.1,3.1,1.2c2.2,0.2,9.5,0.3,9.5,0.3s5.9,0,9.8-0.3c0.5-0.1,1.7-0.1,2.8-1.2c0.8-0.8,1.1-2.8,1.1-2.8
			s0.3-2.3,0.3-4.5v-2.1C36.5,19.2,36.2,16.9,36.2,16.9z M19.6,26.1l0-7.9l7.6,3.9L19.6,26.1z"/>
	</g>
</g>
</svg>
