<svg xmlns="http://www.w3.org/2000/svg" width="67" height="67" viewBox="0 0 67 67">
  <g id="Group_295" data-name="Group 295" transform="translate(-596 -3488.859)">
    <g id="Ellipse_44" data-name="Ellipse 44" transform="translate(596 3488.859)" fill="none" stroke="#eee" stroke-width="1">
      <circle cx="33.5" cy="33.5" r="33.5" stroke="none"/>
      <circle cx="33.5" cy="33.5" r="33" fill="none"/>
    </g>
    <path id="Path_859" data-name="Path 859" d="M70.055,20.212a8.471,8.471,0,0,0-5.305-5.305,1.347,1.347,0,0,1-.887-1.538l.758-3.891A13.692,13.692,0,0,1,75.486,20.341L71.6,21.1A1.35,1.35,0,0,1,70.055,20.212Z" transform="translate(562.729 3505.33)" fill="#65768c" opacity="0.8" style="isolation: isolate"/>
    <path id="Path_860" data-name="Path 860" d="M78.987,23.624A17.326,17.326,0,0,0,65.077,9.731a1.385,1.385,0,0,1-1.155-1.5l.432-3.887a22.547,22.547,0,0,1,20.021,20l-3.885.437A1.384,1.384,0,0,1,78.987,23.624Z" transform="translate(562.785 3501.517)" fill="#65768c" opacity="0.8" style="isolation: isolate"/>
    <path id="Path_861" data-name="Path 861" d="M64.877,18.257l-.286.166a1.315,1.315,0,0,0-.469,1.842,22.382,22.382,0,0,0,6.514,6.476,1.334,1.334,0,0,0,1.883-.512h0a1.337,1.337,0,0,1,1.772-.564l7.957,3.945a1.32,1.32,0,0,1,.735,1.181v2.286a2.8,2.8,0,0,1-2.8,2.8c-.089,0-.176,0-.263-.01A28.008,28.008,0,0,1,67.772,31.58a27.3,27.3,0,0,1-8.441-8.372,27.436,27.436,0,0,1-4.319-12.1,2.8,2.8,0,0,1,2.551-3.03c.084-.007.166-.012.247-.012L62.216,8A1.331,1.331,0,0,1,63.53,9L65.5,16.8A1.318,1.318,0,0,1,64.877,18.257Z" transform="translate(556.169 3504.232)" fill="#65768c"/>
  </g>
</svg>
