<svg xmlns="http://www.w3.org/2000/svg" width="21.974" height="21.974" viewBox="0 0 21.974 21.974">
  <g id="Group_78" data-name="Group 78" transform="translate(-217.523 -3349.523)">
    <circle id="Ellipse_30" data-name="Ellipse 30" cx="10.987" cy="10.987" r="10.987" transform="translate(217.523 3349.523)" fill="#ef8321"/>
    <g id="Group_77" data-name="Group 77" transform="translate(223.013 3354.523)">
      <path id="Path_821" data-name="Path 821" d="M148.507,150.212c-.316,0-.634-.008-.95,0-.152.005-.195-.043-.2-.194a8.882,8.882,0,0,0-1.535-4.9,9.131,9.131,0,0,0-6.29-4.029,7.646,7.646,0,0,0-1.235-.1c-.129,0-.163-.047-.162-.171q.008-.989,0-1.978c0-.134.05-.159.171-.157a11.54,11.54,0,0,1,10.943,8.465,11.759,11.759,0,0,1,.414,2.887c0,.136-.032.179-.169.176C149.167,150.206,148.837,150.212,148.507,150.212Z" transform="translate(-138.135 -138.687)" fill="#fefefe" fill-rule="evenodd"/>
      <path id="Path_822" data-name="Path 822" d="M144.634,222.008c-.31,0-.621-.008-.931,0-.145.005-.18-.039-.185-.183a5.421,5.421,0,0,0-4.067-5.054,5.22,5.22,0,0,0-1.187-.165c-.106,0-.149-.025-.149-.139,0-.653.006-1.306,0-1.959,0-.146.078-.133.171-.131a7.167,7.167,0,0,1,3.346.855,7.548,7.548,0,0,1,4.06,5.8,5.481,5.481,0,0,1,.058.831c0,.111-.037.145-.145.143-.323-.005-.647,0-.97,0Z" transform="translate(-138.113 -210.482)" fill="#fefefe" fill-rule="evenodd"/>
      <path id="Path_823" data-name="Path 823" d="M138.182,302.867a1.577,1.577,0,1,1,1.581,1.567A1.574,1.574,0,0,1,138.182,302.867Z" transform="translate(-138.178 -292.908)" fill="#fefefe" fill-rule="evenodd"/>
    </g>
  </g>
</svg>
