<svg xmlns="http://www.w3.org/2000/svg" width="24" height="24" viewBox="0 0 24 24">
  <g id="FULL_COLOR_ICON" data-name="FULL COLOR ICON" transform="translate(-360.945 -239)">
    <rect id="Rectangle_111" data-name="Rectangle 111" width="24" height="24" rx="5" transform="translate(360.945 239)" fill="#00b900"/>
    <g id="TYPE_A" data-name="TYPE A" transform="translate(364.221 242.521)">
      <g id="Group_74" data-name="Group 74" transform="translate(0)">
        <path id="Path_814" data-name="Path 814" d="M394.824,265.013c0-3.975-3.985-7.208-8.883-7.208s-8.883,3.234-8.883,7.208c0,3.563,3.16,6.547,7.429,7.112.289.062.683.191.783.438a1.826,1.826,0,0,1,.029.8s-.1.627-.127.76c-.039.224-.178.878.769.479a28.674,28.674,0,0,0,6.979-5.157h0a6.413,6.413,0,0,0,1.9-4.435" transform="translate(-377.059 -257.805)" fill="#fff"/>
        <g id="Group_73" data-name="Group 73" transform="translate(2.914 5.288)">
          <path id="Path_815" data-name="Path 815" d="M408.753,283.813h-.623a.173.173,0,0,0-.173.173v3.87a.173.173,0,0,0,.173.173h.623a.173.173,0,0,0,.173-.173v-3.87a.173.173,0,0,0-.173-.173" transform="translate(-404.589 -283.813)" fill="#00b900"/>
          <path id="Path_816" data-name="Path 816" d="M419.214,283.813h-.623a.173.173,0,0,0-.173.173v2.3l-1.774-2.4-.013-.017h0l-.01-.011,0,0-.009-.008,0,0-.009-.006-.005,0-.009-.005-.005,0-.01,0-.006,0-.01,0h-.006l-.01,0h-.654a.173.173,0,0,0-.173.173v3.87a.173.173,0,0,0,.173.173h.623a.173.173,0,0,0,.173-.173v-2.3l1.776,2.4a.172.172,0,0,0,.044.043h0l.011.006,0,0,.008,0,.009,0,.005,0,.012,0h0a.167.167,0,0,0,.044.006h.623a.173.173,0,0,0,.173-.173v-3.87a.173.173,0,0,0-.173-.173" transform="translate(-410.761 -283.813)" fill="#00b900"/>
          <path id="Path_817" data-name="Path 817" d="M394.054,287.06h-1.693v-3.074a.173.173,0,0,0-.173-.173h-.623a.173.173,0,0,0-.173.173v3.87h0a.171.171,0,0,0,.048.119l0,0,0,0a.171.171,0,0,0,.12.048h2.489a.173.173,0,0,0,.173-.173v-.623a.173.173,0,0,0-.173-.173" transform="translate(-391.392 -283.813)" fill="#00b900"/>
          <path id="Path_818" data-name="Path 818" d="M439.459,284.782a.173.173,0,0,0,.173-.173v-.623a.173.173,0,0,0-.173-.173H436.97a.172.172,0,0,0-.12.049l0,0,0,0a.173.173,0,0,0-.048.119h0v3.87h0a.172.172,0,0,0,.048.12l0,0,0,0a.172.172,0,0,0,.12.048h2.489a.173.173,0,0,0,.173-.173v-.623a.173.173,0,0,0-.173-.173h-1.693v-.654h1.693a.173.173,0,0,0,.173-.173v-.623a.173.173,0,0,0-.173-.173h-1.693v-.654Z" transform="translate(-427.566 -283.813)" fill="#00b900"/>
        </g>
      </g>
    </g>
  </g>
</svg>
