<svg xmlns="http://www.w3.org/2000/svg" width="28.496" height="19.948" viewBox="0 0 28.496 19.948">
  <g id="Group_75" data-name="Group 75" transform="translate(-84.55 -85.039)">
    <path id="Path_819" data-name="Path 819" d="M112.451,88.154a3.569,3.569,0,0,0-2.519-2.519c-2.222-.6-11.133-.6-11.133-.6s-8.911,0-11.133.6a3.569,3.569,0,0,0-2.519,2.519,39.81,39.81,0,0,0,0,13.718,3.569,3.569,0,0,0,2.519,2.519c2.222.6,11.133.6,11.133.6s8.911,0,11.133-.6a3.569,3.569,0,0,0,2.519-2.519,39.81,39.81,0,0,0,0-13.718Z" fill="red"/>
    <path id="Path_820" data-name="Path 820" d="M133.144,117.885l7.4-4.274-7.4-4.275Z" transform="translate(-37.195 -18.598)" fill="#fff"/>
  </g>
</svg>
