<svg xmlns="http://www.w3.org/2000/svg" width="24" height="24" viewBox="0 0 24 24">
  <g id="Group_76" data-name="Group 76" transform="translate(-146 -3363)">
    <circle id="Ellipse_29" data-name="Ellipse 29" cx="12" cy="12" r="12" transform="translate(146 3363)" fill="#1d9bf0"/>
    <path id="Logo" d="M14.911,4.633c.009.136.009.273.009.411A8.98,8.98,0,0,1,5.88,14.085v0a9,9,0,0,1-4.871-1.425,6.466,6.466,0,0,0,.756.046A6.376,6.376,0,0,0,5.712,11.34,3.181,3.181,0,0,1,2.743,9.134a3.172,3.172,0,0,0,1.435-.054A3.179,3.179,0,0,1,1.628,5.964v-.04a3.154,3.154,0,0,0,1.442.4A3.18,3.18,0,0,1,2.087,2.08,9.021,9.021,0,0,0,8.636,5.4a3.181,3.181,0,0,1,5.415-2.9,6.369,6.369,0,0,0,2.018-.771,3.188,3.188,0,0,1-1.4,1.758,6.342,6.342,0,0,0,1.825-.5A6.465,6.465,0,0,1,14.911,4.633Z" transform="translate(148.991 3367.5)" fill="#fff"/>
  </g>
</svg>
