<svg xmlns="http://www.w3.org/2000/svg" width="24" height="24" viewBox="0 0 24 24">
  <g id="Group_72" data-name="Group 72" transform="translate(-261.5 -523)">
    <path id="Path_812" data-name="Path 812" d="M285.5,535a12,12,0,1,0-13.875,11.853v-8.385h-3.047V535h3.047v-2.644c0-3.007,1.792-4.668,4.533-4.668a18.464,18.464,0,0,1,2.686.234v2.953h-1.513a1.734,1.734,0,0,0-1.956,1.874V535H278.7l-.532,3.468h-2.8v8.385A12,12,0,0,0,285.5,535Z" fill="#1877f2"/>
    <path id="Path_813" data-name="Path 813" d="M418.968,631.767l.539-3.512h-3.369v-2.279a1.756,1.756,0,0,1,1.98-1.9h1.532v-2.99a18.689,18.689,0,0,0-2.719-.237c-2.775,0-4.589,1.682-4.589,4.727v2.676h-3.085v3.512h3.085v8.489a12.286,12.286,0,0,0,3.8,0v-8.489Z" transform="translate(-140.743 -93.403)" fill="#fff"/>
  </g>
</svg>
