<?xml version="1.0" encoding="utf-8"?>
<!-- Generator: Adobe Illustrator 22.0.0, SVG Export Plug-In . SVG Version: 6.00 Build 0)  -->
<svg version="1.1" id="Layer_1" xmlns="http://www.w3.org/2000/svg" xmlns:xlink="http://www.w3.org/1999/xlink" x="0px" y="0px"
	 viewBox="0 0 25 25" style="enable-background:new 0 0 25 25;" xml:space="preserve">
<style type="text/css">
	.st0{fill:#CA8EEE;}
	.st1{fill:#444444;}
	.st2{fill:#0085B2;}
	.st3{fill:#D93600;}
	.st4{fill:#F76A63;}
	.st5{fill:#514D93;}
	.st6{fill:#F9C700;}
	.st7{fill:#6F90C8;}
	.st8{fill:none;stroke:#1F218B;stroke-width:2;stroke-linecap:round;stroke-miterlimit:10;}
</style>
<g id="XMLID_82_">
	<path id="XMLID_83_" class="st7" d="M12.5,14.5c2.1,0,8.3-4,12.5-7.3V5.6c0-0.8-0.7-1.5-1.5-1.5H1.5C0.7,4.2,0,4.8,0,5.6v1.6
		C4.2,10.5,10.4,14.5,12.5,14.5z"/>
	<path id="XMLID_85_" class="st7" d="M12.5,16.9c-3.1,0-8.9-3.8-12.5-6.5v8.4c0,2.2,1.8,4,4,4H21c2.2,0,4-1.8,4-4v-8.4
		C21.4,13.1,15.6,16.9,12.5,16.9z"/>
</g>
</svg>
