<?xml version="1.0" encoding="utf-8"?>
<!-- Generator: Adobe Illustrator 22.0.0, SVG Export Plug-In . SVG Version: 6.00 Build 0)  -->
<svg version="1.1" id="Layer_1" xmlns="http://www.w3.org/2000/svg" xmlns:xlink="http://www.w3.org/1999/xlink" x="0px" y="0px"
	 viewBox="0 0 25 31" style="enable-background:new 0 0 25 31;" xml:space="preserve">
<style type="text/css">
	.st0{fill:#514D93;}
	.st1{fill:#F0525E;}
	.st2{fill:#FFFFFF;}
	.st3{fill:#337E3D;}
	.st4{fill:#2F2F82;}
	.st5{fill:#2C98CF;}
	.st6{fill:#787878;}
</style>
<g>
	<path class="st2" d="M19.1,13.4H9.9v4c0,0.4,0.3,0.7,0.7,0.7h5.9c0.8,0,1.4-0.5,1.7-1.2l1.3-2.9C19.5,13.7,19.3,13.4,19.1,13.4z"/>
	<path class="st2" d="M16,19.5c-0.6,0-1.1,0.5-1.1,1.1s0.5,1.1,1.1,1.1c0.6,0,1.1-0.5,1.1-1.1S16.6,19.5,16,19.5z"/>
	<path class="st2" d="M11.3,19.5c-0.6,0-1.1,0.5-1.1,1.1s0.5,1.1,1.1,1.1c0.6,0,1.1-0.5,1.1-1.1S12,19.5,11.3,19.5z"/>
	<path class="st2" d="M19.8,10.8H9.9L9.1,9.5C9,9.4,8.8,9.3,8.6,9.3H6.7c-0.3,0-0.5,0.2-0.5,0.5c0,0.3,0.2,0.5,0.5,0.5h1.6l0.8,1.2
		c0.1,0.2,0.3,0.2,0.4,0.2h10.2c0.3,0,0.5-0.2,0.5-0.5S20.1,10.8,19.8,10.8z"/>
	<path class="st2" d="M7.8,15.3H7.1v-0.8c0-0.3-0.2-0.5-0.5-0.5S6,14.2,6,14.5v0.8H5.2c-0.3,0-0.5,0.2-0.5,0.5
		c0,0.3,0.2,0.5,0.5,0.5H6v0.8c0,0.3,0.2,0.5,0.5,0.5s0.5-0.2,0.5-0.5v-0.8h0.8c0.3,0,0.5-0.2,0.5-0.5C8.4,15.5,8.1,15.3,7.8,15.3z"
		/>
</g>
</svg>
